<?xml version="1.0" encoding="UTF-8"?>
<svg id="Layer_2" data-name="Layer 2" xmlns="http://www.w3.org/2000/svg" viewBox="0 0 711.65 204.95">
  <defs>
    <style>
      .cls-1 {
        fill: #fff;
      }

      .cls-2 {
        fill: #dd104a;
      }

      .cls-3 {
        fill: #07076f;
      }

      .cls-4 {
        fill: #1da7cc;
      }
    </style>
  </defs>
  <g id="Layer_1-2" data-name="Layer 1">
    <g>
      <path class="cls-4" d="M554.01,157.12H262.54c-1.85,0-3.69,1.63-3.69,3.25v41.11c0,2.09,1.85,3.48,3.69,3.48h291.46c2.11,0,3.95-1.39,3.95-3.48v-41.11c0-1.62-1.84-3.25-3.95-3.25Z"/>
      <g>
        <path class="cls-3" d="M292.27,57.08c22.45,0,35.92,12.19,35.92,30.53s-13.47,30.53-35.92,30.53h-5.26v25.65c0,.9-.9,1.8-2.05,1.8h-22.96c-.9,0-1.8-.9-1.8-1.8V59c0-1.02,.9-1.92,1.8-1.92h30.27Zm1.15,38.1c4.49,0,7.57-3.08,7.57-7.57s-3.08-7.57-7.57-7.57h-6.67v15.14h6.67Z"/>
        <path class="cls-3" d="M413.24,143.54c.64,1.15-.26,2.05-1.41,2.05h-27.45c-1.28,0-2.44-.9-2.95-2.05l-13.34-27.96h-1.54v28.22c0,.9-.9,1.8-2.05,1.8h-22.57c-1.03,0-1.92-.9-1.92-1.8V59c0-1.02,.9-1.92,1.92-1.92h33.86c19.76,0,32.84,11.54,32.84,28.99,0,10.13-6.16,20.4-15.78,24.5l20.4,32.97Zm-39.12-49.77c4.36,0,7.31-2.69,7.31-6.8s-2.95-6.8-7.31-6.8h-7.57v13.6h7.57Z"/>
        <path class="cls-3" d="M468.79,147.38c-27.32,0-45.54-18.47-45.54-46.05s18.21-46.31,45.54-46.31,45.54,18.47,45.54,46.31-18.21,46.05-45.54,46.05Zm0-66.45c-10.52,0-17.57,8.21-17.57,20.4s7.05,20.4,17.57,20.4,17.57-8.21,17.57-20.4-7.06-20.4-17.57-20.4Z"/>
        <path class="cls-3" d="M587.84,57.08c1.15,0,1.93,.9,1.93,1.8v19.37c0,1.16-.77,1.93-1.93,1.93h-32.58v11.67h25.78c1.15,0,1.8,.9,1.67,1.67l-1.8,17.96c-.13,.77-1.03,1.67-2.18,1.67h-23.47v30.66c0,.9-.9,1.8-1.92,1.8h-22.71c-1.03,0-1.8-1.03-1.8-1.92V58.88c0-.9,.77-1.8,1.8-1.8h57.21Z"/>
        <path class="cls-3" d="M626.07,57.08c1.15,0,1.92,.9,1.92,1.92v84.79c0,.9-.77,1.8-1.92,1.8h-22.71c-.9,0-1.8-.9-1.8-1.8V59c0-1.02,.9-1.92,1.8-1.92h22.71Z"/>
        <path class="cls-3" d="M709.84,57.08c1.16,0,1.93,.9,1.8,1.8l-1.92,19.5c-.13,1.03-1.15,1.8-2.05,1.8h-19.11v63.62c0,.9-.77,1.8-1.8,1.8h-22.71c-1.03,0-1.92-.9-1.92-1.8v-63.62h-21.29c-.9,0-1.8-.77-1.8-1.8v-19.37c0-1.02,.9-1.92,1.8-1.92h69.01Z"/>
      </g>
      <g>
        <path class="cls-2" d="M40.17,94.96C40.17,50.02,71.76,12.46,113.94,3.26c-6.47-1.41-13.19-2.16-20.08-2.16C42.02,1.1,0,43.12,0,94.96s42.02,93.86,93.86,93.86c6.89,0,13.61-.75,20.08-2.16-42.18-9.2-73.77-46.75-73.77-91.7Z"/>
        <path class="cls-4" d="M134.03,1.1c-6.89,0-13.61,.75-20.08,2.16,42.18,9.2,73.77,46.75,73.77,91.7s-31.59,82.5-73.77,91.7c6.47,1.41,13.19,2.16,20.08,2.16,51.84,0,93.86-42.02,93.86-93.86S185.86,1.1,134.03,1.1Z"/>
        <path class="cls-3" d="M187.72,94.96c0-44.94-31.59-82.5-73.77-91.7C71.76,12.46,40.17,50.02,40.17,94.96s31.59,82.5,73.77,91.7c42.18-9.2,73.77-46.75,73.77-91.7Z"/>
      </g>
      <g>
        <path class="cls-1" d="M301.06,193.62c.12,.24-.04,.53-.37,.53h-8.05c-.37,0-.69-.2-.85-.53l-1.22-4.27h-7.65l-1.22,4.27c-.16,.33-.49,.53-.85,.53h-8.05c-.33,0-.49-.28-.37-.53l9.19-27.01c.12-.24,.57-.53,.98-.53h8.3c.41,0,.85,.29,.98,.53l9.19,27.01Zm-14.32-17.82l-2.2,7.73h4.39l-2.2-7.73Z"/>
        <path class="cls-1" d="M336.74,191.67c.12,.29-.04,.57-.37,.73-2.36,1.46-5.53,2.36-8.54,2.36-8.38,0-13.99-5.86-13.99-14.64s5.61-14.64,13.99-14.64c3.01,0,6.18,.9,8.54,2.36,.32,.16,.49,.45,.37,.73l-2.68,5.65c-.16,.37-.45,.49-.77,.33-1.5-.85-2.97-1.14-4.72-1.14-3.66,0-6.1,2.68-6.1,6.71s2.44,6.71,6.1,6.71c1.75,0,3.21-.28,4.72-1.14,.33-.16,.61-.04,.77,.33l2.68,5.65Z"/>
        <path class="cls-1" d="M379.82,193.62c.12,.24-.04,.53-.37,.53h-8.05c-.37,0-.69-.2-.85-.53l-1.22-4.27h-7.65l-1.22,4.27c-.16,.33-.49,.53-.85,.53h-8.05c-.33,0-.49-.28-.37-.53l9.19-27.01c.12-.24,.57-.53,.98-.53h8.3c.41,0,.85,.29,.98,.53l9.19,27.01Zm-14.32-17.82l-2.2,7.73h4.39l-2.2-7.73Z"/>
        <path class="cls-1" d="M404.88,166.08c8.62,0,14.36,5.57,14.36,14.03s-5.73,14.03-14.36,14.03h-9.44c-.28,0-.57-.28-.57-.61v-26.84c0-.33,.29-.61,.57-.61h9.44Zm.49,20.74c3.13,0,5.25-2.68,5.25-6.71s-2.12-6.71-5.25-6.71h-2.11v13.42h2.11Z"/>
        <path class="cls-1" d="M455.24,186.83c.33,0,.61,.24,.61,.53v6.22c0,.28-.28,.57-.61,.57h-18.91c-.28,0-.57-.33-.65-.61v-26.89c0-.37,.2-.57,.57-.57h18.51c.37,0,.65,.29,.65,.57v6.14c0,.37-.28,.61-.65,.61h-10.62v3.21h8.62c.37,0,.57,.28,.53,.53l-.57,5.69c-.04,.24-.33,.53-.69,.53h-7.89v3.46h11.1Z"/>
        <path class="cls-1" d="M503.93,166.08c.33,0,.57,.29,.57,.61v26.89c0,.28-.24,.57-.57,.57h-7.52c-.32,0-.61-.28-.61-.57v-11.96l-4.11,11.92c-.12,.33-.65,.61-1.02,.61h-4.47c-.37,0-.89-.28-1.02-.61l-4.11-11.92v11.96c0,.28-.29,.57-.61,.57h-7.52c-.33,0-.57-.28-.57-.57v-26.89c0-.33,.24-.61,.57-.61h8.5c.53,0,1.14,.37,1.38,.81l5.61,15.54,5.61-15.54c.24-.45,.85-.81,1.38-.81h8.5Z"/>
        <path class="cls-1" d="M545.79,166.08c.37,0,.65,.29,.45,.65l-8.99,16.19v10.66c0,.28-.28,.57-.61,.57h-7.16c-.32,0-.61-.28-.61-.57v-10.66l-8.99-16.19c-.2-.37,.08-.65,.45-.65h8.46c.41,0,.77,.29,.94,.65l3.34,7.32,3.34-7.32c.16-.37,.53-.65,.94-.65h8.46Z"/>
      </g>
      <g>
        <path class="cls-2" d="M277.32,1.06c11.54,0,18.47,6.27,18.47,15.7s-6.93,15.7-18.47,15.7h-2.7v13.19c0,.46-.46,.92-1.06,.92h-11.81c-.46,0-.92-.46-.92-.92V2.05c0-.53,.46-.99,.92-.99h15.57Zm.59,19.59c2.31,0,3.89-1.58,3.89-3.89s-1.58-3.89-3.89-3.89h-3.43v7.78h3.43Z"/>
        <path class="cls-2" d="M338.53,1.06c.66,0,1.12,.53,1.12,1.12V29.68c0,11.68-6.27,17.81-18.21,17.81s-18.08-6.13-18.21-17.81V2.18c0-.59,.53-1.12,1.12-1.12h11.35c.66,0,1.12,.53,1.12,1.12V30.87c0,3.03,1.71,4.82,4.62,4.82s4.62-1.78,4.62-4.75V2.18c0-.59,.53-1.12,1.12-1.12h11.35Z"/>
        <path class="cls-2" d="M386.75,45.52c.33,.59-.13,1.06-.73,1.06h-14.12c-.66,0-1.25-.46-1.52-1.06l-6.86-14.38h-.79v14.51c0,.46-.46,.92-1.06,.92h-11.61c-.53,0-.99-.46-.99-.92V2.05c0-.53,.46-.99,.99-.99h17.41c10.16,0,16.89,5.94,16.89,14.91,0,5.21-3.17,10.49-8.11,12.6l10.49,16.95Zm-20.12-25.59c2.24,0,3.76-1.39,3.76-3.5s-1.52-3.5-3.76-3.5h-3.89v6.99h3.89Z"/>
        <path class="cls-2" d="M410.83,1.06c11.54,0,18.47,6.27,18.47,15.7s-6.93,15.7-18.47,15.7h-2.7v13.19c0,.46-.46,.92-1.06,.92h-11.81c-.46,0-.92-.46-.92-.92V2.05c0-.53,.46-.99,.92-.99h15.57Zm.59,19.59c2.31,0,3.89-1.58,3.89-3.89s-1.58-3.89-3.89-3.89h-3.43v7.78h3.43Z"/>
        <path class="cls-2" d="M459.9,47.5c-14.05,0-23.42-9.5-23.42-23.68S445.85,0,459.9,0s23.42,9.5,23.42,23.81-9.37,23.68-23.42,23.68Zm0-34.17c-5.41,0-9.04,4.22-9.04,10.49s3.63,10.49,9.04,10.49,9.04-4.22,9.04-10.49-3.63-10.49-9.04-10.49Z"/>
        <path class="cls-2" d="M496.18,32.72c.2-.66,.66-.86,1.19-.53,3.03,1.72,6.66,2.97,9.17,3.17,2.11,0,3.5-.99,3.5-2.51,0-3.89-18.54-3.69-18.54-18.07,0-8.84,6.66-14.71,16.69-14.71,4.68,0,10.62,1.91,14.78,4.75,.53,.33,.73,.86,.53,1.19l-4.16,9.3c-.2,.66-.66,.86-1.19,.53-3.23-1.85-6.99-3.23-9.3-3.43-2.05,0-3.36,.92-3.36,2.37,0,3.89,18.67,3.63,18.67,18.14,0,8.77-6.79,14.64-16.95,14.64-5.54,0-11.35-1.72-14.64-4.35-.53-.4-.73-.86-.53-1.19l4.16-9.3Z"/>
        <path class="cls-2" d="M564.52,34.7c.53,0,.99,.4,.99,.86v10.09c0,.46-.46,.92-.99,.92h-30.67c-.46,0-.92-.53-1.06-.99V1.98c0-.59,.33-.92,.92-.92h30.01c.59,0,1.06,.46,1.06,.92V11.94c0,.59-.46,.99-1.06,.99h-17.22v5.21h13.98c.59,0,.92,.46,.86,.86l-.92,9.24c-.07,.4-.53,.86-1.12,.86h-12.8v5.61h18.01Z"/>
        <path class="cls-2" d="M604.62,1.06c.59,0,.99,.46,.99,.92V11.94c0,.59-.4,.99-.99,.99h-16.75v6h13.26c.59,0,.92,.46,.86,.86l-.92,9.24c-.07,.4-.53,.86-1.12,.86h-12.07v15.77c0,.46-.46,.92-.99,.92h-11.68c-.53,0-.92-.53-.92-.99V1.98c0-.46,.4-.92,.92-.92h29.42Z"/>
        <path class="cls-2" d="M648.36,1.06c.66,0,1.12,.53,1.12,1.12V29.68c0,11.68-6.27,17.81-18.21,17.81s-18.08-6.13-18.21-17.81V2.18c0-.59,.53-1.12,1.12-1.12h11.35c.66,0,1.12,.53,1.12,1.12V30.87c0,3.03,1.71,4.82,4.62,4.82s4.62-1.78,4.62-4.75V2.18c0-.59,.53-1.12,1.12-1.12h11.35Z"/>
        <path class="cls-2" d="M684.83,34.7c.46,0,.86,.4,.86,.92l-.92,10.03c-.07,.46-.53,.92-1.06,.92h-23.81c-.53,0-.99-.46-.99-.92V2.05c0-.53,.46-.99,.99-.99h11.68c.53,0,.99,.46,.99,.99V34.7h12.27Z"/>
      </g>
    </g>
  </g>
</svg>