<?xml version="1.0" encoding="UTF-8"?>
<svg id="Layer_2" data-name="Layer 2" xmlns="http://www.w3.org/2000/svg" viewBox="0 0 27 27">
  <defs>
    <style>
      .cls-1 {
        fill-rule: evenodd;
      }
    </style>
  </defs>
  <g id="Layer_1-2" data-name="Layer 1">
    <path class="cls-1" d="M26.8,25.84c.26,.26,.26,.69,0,.95-.26,.26-.69,.26-.95,0l-5.85-5.85c-.51-.51-1.31-.52-1.9-.11-1.87,1.33-4.16,2.11-6.63,2.11C5.14,22.95,0,17.81,0,11.47S5.14,0,11.47,0s11.47,5.14,11.47,11.47c0,2.19-.61,4.24-1.68,5.98-.22,.36-.72,.4-1.02,.1-.23-.23-.26-.59-.1-.87,.91-1.52,1.44-3.3,1.44-5.21,0-5.59-4.53-10.12-10.12-10.12S1.35,5.88,1.35,11.47s4.53,10.12,10.12,10.12c2.16,0,4.16-.67,5.8-1.82,1.09-.76,2.62-.84,3.55,.1l5.97,5.97h0ZM7.42,8.1c-.37,0-.67,.3-.67,.67v2.02h9.45v-2.02c0-.37-.3-.67-.67-.67H7.42Zm-.67,4.05v3.37c0,.37,.3,.67,.67,.67H15.52c.37,0,.67-.3,.67-.67v-3.37h-2.7v.67c0,1.12-.91,2.02-2.02,2.02s-2.02-.91-2.02-2.02v-.67h-2.7Zm4.05,0v.67c0,.37,.3,.67,.67,.67s.67-.3,.67-.67v-.67h-1.35Zm-5.4-3.37c0-1.12,.91-2.02,2.02-2.02h.67v-.67c0-1.12,.91-2.02,2.02-2.02h2.7c1.12,0,2.02,.91,2.02,2.02v.67h.67c1.12,0,2.02,.91,2.02,2.02v6.75c0,1.12-.91,2.02-2.02,2.02H7.42c-1.12,0-2.02-.91-2.02-2.02v-6.75h0Zm8.1-2.7v.67h-4.05v-.67c0-.37,.3-.67,.67-.67h2.7c.37,0,.67,.3,.67,.67h0Z"/>
  </g>
</svg>