<svg xmlns="http://www.w3.org/2000/svg" version="1.1" xmlns:xlink="http://www.w3.org/1999/xlink" xmlns:svgjs="http://svgjs.dev/svgjs" viewBox="0 0 800 800" opacity="1"><defs><symbol id="bbburst-shape-1" viewBox="0 0 194 167"><path d="m97 0 96.129 166.5H.871L97 0Z"></path></symbol><symbol id="bbburst-shape-4" viewBox="0 0 149 143"><path d="M71.647 2.781c.898-2.764 4.808-2.764 5.706 0l15.445 47.534a3 3 0 0 0 2.853 2.073h49.98c2.906 0 4.115 3.719 1.764 5.427L106.96 87.193a2.999 2.999 0 0 0-1.09 3.354l15.445 47.534c.898 2.764-2.266 5.062-4.617 3.354l-40.435-29.378a3 3 0 0 0-3.526 0l-40.435 29.378c-2.351 1.708-5.515-.59-4.617-3.354L43.13 90.547a3 3 0 0 0-1.09-3.354L1.605 57.815c-2.35-1.708-1.142-5.427 1.764-5.427h49.98a3 3 0 0 0 2.853-2.073L71.647 2.781Z"></path></symbol><symbol id="bbburst-shape-5" viewBox="0 0 145 145"><circle cx="72.5" cy="72.5" r="72.5"></circle></symbol><symbol id="bbburst-shape-8" viewBox="0 0 87 168"><path d="m12 12 31.2546 18.0749c16.4102 9.4902 20.014 31.6325 7.4603 45.8369L36.3296 92.1884c-12.5684 14.2206-8.9394 36.3916 7.5068 45.8636L75 156" stroke-width="14" stroke-linecap="round" stroke-linejoin="round"></path></symbol><symbol id="bbburst-shape-10" viewBox="0 0 145 145"><circle cx="72.5" cy="72.5" r="61.5" fill="none" stroke-width="22"></circle></symbol><symbol id="bbburst-shape-11" viewBox="0 0 194 167"><path d="M10.398 161 97 11l86.603 150H10.397Z" stroke-width="11"></path></symbol><symbol id="bbburst-shape-12" viewBox="0 0 170 151"><path d="M69.3728 54.2122 85 10.0031l15.627 44.2091c1.413 3.9958 5.19 6.6672 9.428 6.6673h49.312l-39.149 26.1447c-3.803 2.5401-5.399 7.3367-3.875 11.6488l15.179 42.94-40.9683-27.36c-3.3621-2.245-7.7453-2.245-11.1074 0l-40.9682 27.36 15.1785-42.94c1.5243-4.3121-.0712-9.1087-3.8746-11.6488L10.6333 60.8795h49.3112c4.2381-.0001 8.0159-2.6715 9.4283-6.6673Z" stroke-width="12"></path></symbol></defs><use xlink:href="#bbburst-shape-11" width="39.452514333663636" opacity="0.3897403104429471" transform="matrix(0.9811445865362218,-0.193275193210785,0.193275193210785,0.9811445865362218,48.893778673945974,114.4115499921204)" fill="none" stroke="#f8b136"></use><use xlink:href="#bbburst-shape-5" width="34.861646770314906" opacity="0.10167115164490803" transform="matrix(0.9884934282630096,-0.15126381682624013,0.15126381682624013,0.9884934282630096,509.1961592173931,365.67042794130816)" fill="#a0d81d"></use><use xlink:href="#bbburst-shape-11" width="13.728896111814585" opacity="0.8366113311541146" transform="matrix(0.9997048922343407,0.02429255941076137,-0.02429255941076137,0.9997048922343407,412.91859511302687,72.60787912115995)" fill="none" stroke="#1fbba8"></use><use xlink:href="#bbburst-shape-11" width="41.46004620340968" opacity="0.3580599077511504" transform="matrix(0.9954760945971232,-0.09501234175442437,0.09501234175442437,0.9954760945971232,573.7276013376355,174.79556271728165)" fill="none" stroke="#e22a97"></use><use xlink:href="#bbburst-shape-12" width="26.95725299779337" opacity="0.4795106150876147" transform="matrix(0.9807760405491215,0.19513676815195025,-0.19513676815195025,0.9807760405491215,692.6234153273035,59.563851443983026)" fill="none" stroke="#f8b136"></use><use xlink:href="#bbburst-shape-5" width="31.578161476088415" opacity="0.49375819255226183" transform="matrix(0.7146032884622798,-0.6995299422604409,0.6995299422604409,0.7146032884622798,61.54612945676308,-97.62810927772142)" fill="#a0d81d"></use><use xlink:href="#bbburst-shape-11" width="41.46873000331601" opacity="0.39519288160655563" transform="matrix(0.875298812100713,-0.483582453708859,0.483582453708859,0.875298812100713,458.03732095986015,24.240676100032545)" fill="none" stroke="#f8b136"></use><use xlink:href="#bbburst-shape-12" width="11.145827280254275" opacity="0.9909735706641195" transform="matrix(0.9949587598445075,-0.10028492513174418,0.10028492513174418,0.9949587598445075,353.90388678528177,6.5937898978169756)" fill="none" stroke="#1fbba8"></use><use xlink:href="#bbburst-shape-10" width="30.62541478354468" opacity="0.5991547817470096" transform="matrix(0.986712952957513,-0.16247322384277552,0.16247322384277552,0.986712952957513,477.96346836650554,94.71345344849385)" fill="none" stroke="#f8b136"></use><use xlink:href="#bbburst-shape-8" width="43.627278315685" opacity="-0.0626428620182391" transform="matrix(0.9756064980277815,0.21952667493033326,-0.21952667493033326,0.9756064980277815,126.36301637499949,-331.1146137382029)" fill="none" stroke="#e22a97"></use><use xlink:href="#bbburst-shape-4" width="27.02513779944027" opacity="0.7579792617748374" transform="matrix(0.9937670676722135,-0.11147652313456075,0.11147652313456075,0.9937670676722135,436.50484718069697,58.12568878326317)" fill="#f8b136"></use><use xlink:href="#bbburst-shape-12" width="40.92452806711208" opacity="0.09951675050215314" transform="matrix(0.7198282213616878,-0.6941522395924896,0.6941522395924896,0.7198282213616878,-247.80106339149384,-68.51366495752828)" fill="none" stroke="#e3cd42"></use><use xlink:href="#bbburst-shape-11" width="12.011921675547987" opacity="0.9306260653450875" transform="matrix(0.9602995407851832,-0.2789709518350725,0.2789709518350725,0.9602995407851832,299.1855043701156,-9.041642565640132)" fill="none" stroke="#f8b136"></use><use xlink:href="#bbburst-shape-5" width="41.89962823777687" opacity="0.40522485035845324" transform="matrix(0.9900769147392139,-0.14052652027457083,0.14052652027457083,0.9900769147392139,489.5554471472882,-202.63624591725528)" fill="#f8b136"></use><use xlink:href="#bbburst-shape-8" width="34.062937030994654" opacity="0.4541696843831835" transform="matrix(0.9994007285634603,0.034614790867845614,-0.034614790867845614,0.9994007285634603,236.40186351122955,185.6488124953562)" fill="none" stroke="#1fbba8"></use><use xlink:href="#bbburst-shape-12" width="43.59247394496493" opacity="0.04679615962253747" transform="matrix(0.9931998561830621,0.11642184364604835,-0.11642184364604835,0.9931998561830621,178.3949565752874,351.11905845353556)" fill="none" stroke="#1fbba8"></use><use xlink:href="#bbburst-shape-12" width="34.36894239072297" opacity="0.36276247279503715" transform="matrix(0.8414821208977789,-0.540284962042602,0.540284962042602,0.8414821208977789,102.82001166396921,351.5616424796857)" fill="none" stroke="#e22a97"></use><use xlink:href="#bbburst-shape-4" width="28.62314802751799" opacity="0.4823997237874331" transform="matrix(0.9994608181442214,-0.03283402190538877,0.03283402190538877,0.9994608181442214,517.8174048188616,182.7913392250743)" fill="#f8b136"></use><use xlink:href="#bbburst-shape-8" width="47.10740770365491" opacity="0.20006022332569917" transform="matrix(0.7171963746247874,-0.6968711216753508,0.6968711216753508,0.7171963746247874,27.806391582204867,-222.20347870042247)" fill="none" stroke="#1fbba8"></use><use xlink:href="#bbburst-shape-8" width="16.0869502637374" opacity="0.8387400095124211" transform="matrix(0.7475235347963998,0.6642353234550957,-0.6642353234550957,0.7475235347963998,711.6016532093751,44.95009084779923)" fill="none" stroke="#a0d81d"></use><use xlink:href="#bbburst-shape-10" width="34.312980432616556" opacity="0.17547111471973065" transform="matrix(0.8841524721095396,-0.4671984653898061,0.4671984653898061,0.8841524721095396,74.77051533656115,404.348220650551)" fill="none" stroke="#f8b136"></use><use xlink:href="#bbburst-shape-11" width="37.922504509098815" opacity="0.2048468629680389" transform="matrix(0.9955085763369793,0.09467140243769852,-0.09467140243769852,0.9955085763369793,764.8681764340984,-92.33474795251794)" fill="none" stroke="#1fbba8"></use><use xlink:href="#bbburst-shape-11" width="32.83492377367331" opacity="0.5953429613670695" transform="matrix(0.7663282073322143,-0.6424492809918887,0.6424492809918887,0.7663282073322143,-33.9901390930319,24.880874268004334)" fill="none" stroke="#1fbba8"></use><use xlink:href="#bbburst-shape-1" width="43.408471665155645" opacity="0.21670226825290984" transform="matrix(0.853190400568563,-0.5215995977544989,0.5215995977544989,0.853190400568563,432.6967580371654,-168.10024469879514)" fill="#e3cd42"></use><use xlink:href="#bbburst-shape-4" width="24.126064732713587" opacity="0.570968496057336" transform="matrix(0.9096052797827043,0.4154735069669644,-0.4154735069669644,0.9096052797827043,745.8010492338036,0.37734393960164425)" fill="#1fbba8"></use><use xlink:href="#bbburst-shape-8" width="20.431863910369906" opacity="0.7356129235469302" transform="matrix(0.9449822279788772,0.327121672782586,-0.327121672782586,0.9449822279788772,584.7047988696119,-81.93958971801874)" fill="none" stroke="#e22a97"></use><use xlink:href="#bbburst-shape-10" width="41.472609505207686" opacity="0.07622620982381301" transform="matrix(0.9366648244024854,-0.35022707880325454,0.35022707880325454,0.9366648244024854,461.3363736814931,-319.58273531052674)" fill="none" stroke="#a0d81d"></use><use xlink:href="#bbburst-shape-12" width="36.515989156580275" opacity="0.4750557129713374" transform="matrix(0.9889736318043352,0.14809171346075842,-0.14809171346075842,0.9889736318043352,481.08714770124186,234.47254132577172)" fill="none" stroke="#f8b136"></use><use xlink:href="#bbburst-shape-11" width="26.94988782936991" opacity="0.5898236270124155" transform="matrix(0.9651118677995448,-0.26183789380544964,0.26183789380544964,0.9651118677995448,125.16502058394178,114.20124619960853)" fill="none" stroke="#1fbba8"></use><use xlink:href="#bbburst-shape-4" width="16.037086918885745" opacity="0.9110867447878955" transform="matrix(0.9357548470184684,0.35265119634199826,-0.35265119634199826,0.9357548470184684,523.4850342881305,61.607753126949774)" fill="#1fbba8"></use><use xlink:href="#bbburst-shape-1" width="28.08310457128203" opacity="0.6622021329114498" transform="matrix(0.7712527153850632,-0.6365290637599877,0.6365290637599877,0.7712527153850632,143.38667815063565,252.21850590258623)" fill="#1fbba8"></use><use xlink:href="#bbburst-shape-4" width="30.14602748939724" opacity="0.6200437896550273" transform="matrix(0.991711738214737,-0.12848279373949203,0.12848279373949203,0.991711738214737,350.49113447646437,-164.87101953248347)" fill="#e22a97"></use><use xlink:href="#bbburst-shape-8" width="28.541501548588506" opacity="0.20081545510090948" transform="matrix(0.7778428199121616,-0.6284588670001374,0.6284588670001374,0.7778428199121616,495.8802276519808,128.01497503371496)" fill="none" stroke="#1fbba8"></use><use xlink:href="#bbburst-shape-12" width="21.299564540658665" opacity="0.6373610061245185" transform="matrix(0.989158522087503,0.14685168770452328,-0.14685168770452328,0.989158522087503,535.0763245618818,140.8820705785928)" fill="none" stroke="#e3cd42"></use><use xlink:href="#bbburst-shape-5" width="35.13755128675138" opacity="0.2875202530114198" transform="matrix(0.7305073284205035,0.6829048565678375,-0.6829048565678375,0.7305073284205035,964.7413139322595,196.43205921656693)" fill="#e22a97"></use><use xlink:href="#bbburst-shape-1" width="24.291005166316218" opacity="0.7543132406685727" transform="matrix(0.8365648947469049,-0.5478678461792588,0.5478678461792588,0.8365648947469049,76.34674382347288,129.66485726096056)" fill="#e3cd42"></use><use xlink:href="#bbburst-shape-10" width="53.654316282536" opacity="-0.06469007889134315" transform="matrix(0.9442005228596938,0.32937117759676676,-0.32937117759676676,0.9442005228596938,848.4584869467295,-322.0090564230317)" fill="none" stroke="#f8b136"></use><use xlink:href="#bbburst-shape-4" width="37.399133080650714" opacity="0.5579299372729647" transform="matrix(0.8926606182939121,-0.45072943164068024,0.45072943164068024,0.8926606182939121,5.643878043229819,76.13369341921248)" fill="#1fbba8"></use><use xlink:href="#bbburst-shape-8" width="16.916829005159705" opacity="0.8761825397516794" transform="matrix(0.867623125777608,-0.49722239653488365,0.49722239653488365,0.867623125777608,146.2675192477731,86.27297538272467)" fill="none" stroke="#e3cd42"></use><use xlink:href="#bbburst-shape-4" width="46.29171757032579" opacity="0.09733564203504819" transform="matrix(0.9874513922515066,0.15792323432782568,-0.15792323432782568,0.9874513922515066,792.2676724449376,-201.37849357220594)" fill="#1fbba8"></use><use xlink:href="#bbburst-shape-12" width="20.4340512086576" opacity="0.7341504964997916" transform="matrix(0.7367898978826941,-0.6761217688981839,0.6761217688981839,0.7367898978826941,116.8955818237049,-7.358648843929018)" fill="none" stroke="#e3cd42"></use><use xlink:href="#bbburst-shape-11" width="36.1427243005819" opacity="0.3204236482619818" transform="matrix(0.8879928566828039,-0.45985724576254455,0.45985724576254455,0.8879928566828039,324.17262413756134,332.07334616305945)" fill="none" stroke="#e22a97"></use><use xlink:href="#bbburst-shape-10" width="21.969161522419853" opacity="0.8934055545935102" transform="matrix(0.8824965681401625,0.4703188357070503,-0.4703188357070503,0.8824965681401625,545.1866795989059,7.258828194627824)" fill="none" stroke="#1fbba8"></use><use xlink:href="#bbburst-shape-8" width="36.60691841475138" opacity="0.4630837888001561" transform="matrix(0.7808207412072408,-0.6247551281106664,0.6247551281106664,0.7808207412072408,205.34028646097892,-132.2835209527003)" fill="none" stroke="#1fbba8"></use><use xlink:href="#bbburst-shape-11" width="21.359064233657108" opacity="0.7649264102147554" transform="matrix(0.9799921780852549,0.1990360040086167,-0.1990360040086167,0.9799921780852549,517.3688994403024,99.78922075143834)" fill="none" stroke="#1fbba8"></use><use xlink:href="#bbburst-shape-1" width="32.561524388762656" opacity="0.708724037959551" transform="matrix(0.9300145360753189,0.3675227376484472,-0.3675227376484472,0.9300145360753189,400.7868565588847,20.53939956398534)" fill="#1fbba8"></use><use xlink:href="#bbburst-shape-11" width="39.60360927200837" opacity="0.3520581159016555" transform="matrix(0.972234468334182,0.2340088429588729,-0.2340088429588729,0.972234468334182,338.20253000920576,-251.7954041587783)" fill="none" stroke="#f8b136"></use><use xlink:href="#bbburst-shape-10" width="52.139114365649775" opacity="0.2136950817586678" transform="matrix(0.9082632113108168,-0.4183992578618689,0.4183992578618689,0.9082632113108168,-140.24748570223642,-9.435602660473364)" fill="none" stroke="#f8b136"></use><use xlink:href="#bbburst-shape-4" width="46.14914103333058" opacity="0.21297514892805158" transform="matrix(0.938146744448178,0.3462379035883925,-0.3462379035883925,0.938146744448178,167.98561501136686,77.9096198505124)" fill="#a0d81d"></use><use xlink:href="#bbburst-shape-4" width="16.761024106072725" opacity="0.8357333371329894" transform="matrix(0.7554071274919234,0.6552557300279037,-0.6552557300279037,0.7554071274919234,582.524746750849,82.33092714007938)" fill="#1fbba8"></use><use xlink:href="#bbburst-shape-11" width="34.130004408510786" opacity="0.26080931666473417" transform="matrix(0.9494404165236255,-0.31394728135698896,0.31394728135698896,0.9494404165236255,397.4854270963949,-276.8510260303276)" fill="none" stroke="#1fbba8"></use><use xlink:href="#bbburst-shape-11" width="45.60748697841639" opacity="0.10462584671695252" transform="matrix(0.9974098290534239,-0.07192797027318149,0.07192797027318149,0.9974098290534239,700.5563592974728,197.94358062221107)" fill="none" stroke="#a0d81d"></use><use xlink:href="#bbburst-shape-8" width="19.362634608660045" opacity="0.7594098519942746" transform="matrix(0.9996787109831536,-0.025347086756873496,0.025347086756873496,0.9996787109831536,329.16703771044723,-95.11853607062716)" fill="none" stroke="#a0d81d"></use><use xlink:href="#bbburst-shape-8" width="47.37281130797482" opacity="0.18187651390034876" transform="matrix(0.7154599072112554,0.6986537920696214,-0.6986537920696214,0.7154599072112554,913.4118214142737,366.6913328478832)" fill="none" stroke="#e3cd42"></use><use xlink:href="#bbburst-shape-8" width="30.253769548670334" opacity="0.63314896503437" transform="matrix(0.9144545930224254,0.4046885188638175,-0.4046885188638175,0.9144545930224254,688.8576386018402,-58.06322500860125)" fill="none" stroke="#1fbba8"></use><use xlink:href="#bbburst-shape-11" width="50.16774466768908" opacity="-0.05700801313119319" transform="matrix(0.9192589379038092,-0.39365340730642817,0.39365340730642817,0.9192589379038092,-130.70850481630973,363.74487752900774)" fill="none" stroke="#a0d81d"></use><use xlink:href="#bbburst-shape-4" width="43.23890376431848" opacity="0.4151549793048732" transform="matrix(0.9583381897734016,0.2856359816651953,-0.2856359816651953,0.9583381897734016,721.6949984305356,-120.6294344371687)" fill="#f8b136"></use><use xlink:href="#bbburst-shape-1" width="48.566740339443065" opacity="0.32510399917735744" transform="matrix(0.9363848954755508,-0.35097482463168445,0.35097482463168445,0.9363848954755508,-33.028767352771865,-105.1760103419528)" fill="#e22a97"></use><use xlink:href="#bbburst-shape-11" width="52.771017874616106" opacity="0.20235964857876532" transform="matrix(0.8809253228598785,-0.4732552963720733,0.4732552963720733,0.8809253228598785,-66.46601190783886,-194.49874743813803)" fill="none" stroke="#a0d81d"></use><use xlink:href="#bbburst-shape-4" width="35.83409218679481" opacity="0.5861293851388187" transform="matrix(0.9934325737894014,-0.11441906018738943,0.11441906018738943,0.9934325737894014,443.67334164665226,-147.56111766085445)" fill="#1fbba8"></use><use xlink:href="#bbburst-shape-5" width="42.297021071767446" opacity="0.25751356001986947" transform="matrix(0.9630099079460172,-0.2694659852333939,0.2694659852333939,0.9630099079460172,47.755319664596755,268.3217573866046)" fill="#a0d81d"></use><use xlink:href="#bbburst-shape-11" width="43.57902226866604" opacity="0.45411868816685674" transform="matrix(0.9883305861108782,-0.15232416931573287,0.15232416931573287,0.9883305861108782,136.88711067899172,-159.11983866407857)" fill="none" stroke="#1fbba8"></use><use xlink:href="#bbburst-shape-12" width="29.72684032504197" opacity="0.6031952341283824" transform="matrix(0.937186529839187,-0.34882862309160145,0.34882862309160145,0.937186529839187,153.37707816948503,-122.08479258138507)" fill="none" stroke="#1fbba8"></use><use xlink:href="#bbburst-shape-10" width="24.07080411026483" opacity="0.7828681133117417" transform="matrix(0.7673187623945851,-0.6412658706630522,0.6412658706630522,0.7673187623945851,101.46585506088678,192.83248853750132)" fill="none" stroke="#1fbba8"></use><use xlink:href="#bbburst-shape-4" width="30.93376607955815" opacity="0.3510347094231372" transform="matrix(0.7199400710682778,0.6940362339750015,-0.6940362339750015,0.7199400710682778,670.3980428935956,-190.69826033947885)" fill="#f8b136"></use><use xlink:href="#bbburst-shape-5" width="18.30789453593168" opacity="0.8737061002444986" transform="matrix(0.9950003768589328,0.09987116726353776,-0.09987116726353776,0.9950003768589328,487.6280304589012,3.3344082642879584)" fill="#a0d81d"></use><use xlink:href="#bbburst-shape-12" width="18.11469174831171" opacity="0.8476235345773754" transform="matrix(0.955530881837789,0.29489105421205525,-0.29489105421205525,0.955530881837789,512.9889176910069,-53.38537902859599)" fill="none" stroke="#1fbba8"></use><use xlink:href="#bbburst-shape-12" width="24.214229308431904" opacity="0.7422825828643254" transform="matrix(0.9909568425384075,0.13418098310233728,-0.13418098310233728,0.9909568425384075,345.9230137212615,-63.47381375837642)" fill="none" stroke="#1fbba8"></use><use xlink:href="#bbburst-shape-1" width="21.82546726478609" opacity="0.7770931132396203" transform="matrix(0.7840636072262172,0.6206804812650485,-0.6206804812650485,0.7840636072262172,735.0814397689951,48.57815439568333)" fill="#e22a97"></use><use xlink:href="#bbburst-shape-1" width="48.875843353690556" opacity="0.13946231557087507" transform="matrix(0.9128574264068327,-0.40827848223227986,0.40827848223227986,0.9128574264068327,-123.79562502740929,233.5079885738624)" fill="#a0d81d"></use><use xlink:href="#bbburst-shape-8" width="42.65417814239866" opacity="0.0946667622508005" transform="matrix(0.8423619748437404,0.5389121480699369,-0.5389121480699369,0.8423619748437404,392.84212450542793,-300.64420189760455)" fill="none" stroke="#a0d81d"></use><use xlink:href="#bbburst-shape-11" width="41.11417015691552" opacity="0.43821583607130066" transform="matrix(0.9913903266569941,-0.13093975794592944,0.13093975794592944,0.9913903266569941,76.9480622683023,-30.38920735642381)" fill="none" stroke="#1fbba8"></use><use xlink:href="#bbburst-shape-5" width="23.012201894393545" opacity="0.6560529623603735" transform="matrix(0.9500949313684602,-0.3119609292651257,0.3119609292651257,0.9500949313684602,181.9308806315201,154.59982397155756)" fill="#1fbba8"></use><use xlink:href="#bbburst-shape-4" width="43.42723178841386" opacity="0.21538561472619044" transform="matrix(0.9926179241474266,0.1212833733916306,-0.1212833733916306,0.9926179241474266,455.8066769440788,352.2541674705627)" fill="#a0d81d"></use><use xlink:href="#bbburst-shape-8" width="16.188248694715845" opacity="0.8747079951733864" transform="matrix(0.9936508591923033,-0.11250764430205364,0.11250764430205364,0.9936508591923033,388.0740529427787,42.02520418640461)" fill="none" stroke="#f8b136"></use><use xlink:href="#bbburst-shape-8" width="34.64479057087496" opacity="0.18205409681231155" transform="matrix(0.8464119479442679,0.532528698172399,-0.532528698172399,0.8464119479442679,661.5944184480114,-310.3908617233092)" fill="none" stroke="#a0d81d"></use><use xlink:href="#bbburst-shape-8" width="33.67421210143958" opacity="0.5377042475954156" transform="matrix(0.8172782820876949,-0.5762431861877294,0.5762431861877294,0.8172782820876949,97.58228425070908,282.528775402318)" fill="none" stroke="#1fbba8"></use><use xlink:href="#bbburst-shape-12" width="43.157979975607134" opacity="-0.06432173837296107" transform="matrix(0.8375452849304375,0.5463679123912681,-0.5463679123912681,0.8375452849304375,939.1529422195754,391.8200259465774)" fill="none" stroke="#a0d81d"></use><use xlink:href="#bbburst-shape-11" width="20.029400105867854" opacity="0.6937638145812797" transform="matrix(0.9781726933451623,-0.2077936043141633,0.2077936043141633,0.9781726933451623,444.60976143250895,18.50650691556814)" fill="none" stroke="#a0d81d"></use></svg>