<svg xmlns="http://www.w3.org/2000/svg" version="1.1" xmlns:xlink="http://www.w3.org/1999/xlink" xmlns:svgjs="http://svgjs.dev/svgjs" viewBox="0 0 800 800"><defs><linearGradient x1="50%" y1="0%" x2="50%" y2="100%" id="ccchaos-grad"><stop stop-color="#a0d81d" stop-opacity="1" offset="0%"></stop><stop stop-color="#E3CD42" stop-opacity="1" offset="100%"></stop></linearGradient></defs><g stroke-width="1" stroke="url(#ccchaos-grad)" fill="none" stroke-linecap="round"><path d="M386.69 165.18C392.64 152.2 409.03 148.11 414.44 158.52Q421.07 171.8 427.66 185.47 434.34 199.55 441.2 214.04 448.29 228.9 455.62 244.1 463.11 259.56 470.67 275.22 478.2 291.01 485.57 306.82 492.72 322.59 499.63 338.23 506.35 353.69 512.96 368.91 519.56 383.85 526.28 398.49 533.2 412.84 540.35 426.9 547.73 440.7 555.25 454.3 562.81 467.73 570.31 481.05 577.63 494.33 584.72 507.63 591.57 520.99 598.25 534.47 604.84 548.1 611.47 561.91 618.23 575.92 625.21 590.12 632.43 604.5 639.85 619.05C645.27 629.6 638.19 641.6 626.71 641.62Q612.55 642.15 598.4 643.13 584.24 644.34 570.08 645.55 555.93 646.51 541.77 647.02 527.62 646.97 513.46 646.38 499.3 645.36 485.15 644.14 470.99 642.94 456.84 642.03 442.68 641.59 428.52 641.7 414.37 642.35 400.21 643.41 386.06 644.64 371.9 645.82 357.74 646.68 343.59 647.06 329.43 646.87 315.28 646.17 301.12 645.08 286.97 643.84 272.81 642.69 258.65 641.88 244.5 641.56 230.34 641.81 216.19 642.58 202.03 643.7 187.88 644.94 173.72 646.06C162.24 646.71 154.34 635.04 159.1 624.69Q165.83 610.15 172.77 595.44 179.95 580.57 187.34 565.55 194.87 550.42 202.44 535.22 209.92 520 217.22 504.81 224.28 489.7 231.12 474.73 237.78 459.95 244.37 445.4 251.01 431.11 257.79 417.1 264.79 403.35 272.03 389.87 279.47 376.62 287.02 363.54 294.57 350.59 302.01 337.69 309.25 324.77 316.26 311.75 323.04 298.55 329.67 285.11 336.27 271.35 342.93 257.25 349.76 242.77 356.83 227.9 364.12 212.66 371.6 197.09 379.16 181.24 386.69 165.18 386.69 165.18 386.69 165.18" stroke-dasharray="0 0" transform="rotate(0, 400, 400)" opacity="0.05"></path><path d="M386.99 175.72C392.75 163.34 408.4 159.49 413.48 169.44Q419.77 182.1 426.11 195.1 432.59 208.47 439.26 222.2 446.16 236.28 453.24 250.67 460.43 265.33 467.65 280.18 474.79 295.18 481.77 310.24 488.53 325.3 495.08 340.28 501.47 355.13 507.76 369.8 514.07 384.24 520.49 398.43 527.1 412.35 533.92 426 540.94 439.41 548.1 452.59 555.33 465.59 562.5 478.43 569.54 491.19 576.38 503.89 583.01 516.6 589.44 529.37 595.76 542.23 602.05 555.21 608.42 568.35 614.96 581.65 621.7 595.13 628.66 608.78C633.77 618.69 627 630.39 616.04 630.75Q602.53 631.61 589.01 632.77 575.5 634.01 561.99 635.1 548.47 635.84 534.96 636.09 521.45 635.8 507.94 635.03 494.42 633.92 480.91 632.67 467.4 631.53 453.88 630.7 440.37 630.35 426.86 630.53 413.34 631.21 399.83 632.26 386.32 633.5 372.81 634.68 359.29 635.59 345.78 636.05 332.27 635.99 318.76 635.4 305.24 634.41 291.73 633.19 278.22 631.98 264.71 631 251.19 630.43 237.68 630.39 224.17 630.87 210.65 631.79 197.14 632.98 183.63 634.21C172.67 635.09 165.16 624.12 169.77 614.07Q176.32 599.97 183.09 585.73 190.07 571.37 197.21 556.93 204.43 542.43 211.63 527.93 218.7 513.47 225.59 499.09 232.27 484.84 238.74 470.77 245.07 456.9 251.36 443.26 257.71 429.86 264.2 416.71 270.89 403.79 277.8 391.08 284.9 378.54 292.1 366.13 299.31 353.78 306.44 341.44 313.4 329.03 320.15 316.49 326.69 303.76 333.06 290.78 339.36 277.51 345.67 263.91 352.1 249.97 358.72 235.69 365.56 221.08 372.59 206.18 383.38 183.38 386.99 175.72" stroke-dasharray="0 0" transform="rotate(17.142857142857142, 400, 400)" opacity="0.10"></path><path d="M387.25 186.26C392.78 174.49 407.67 170.89 412.48 180.35Q418.5 192.39 424.62 204.73 430.91 217.4 437.4 230.39 444.07 243.7 450.89 257.29 457.76 271.14 464.62 285.19 471.36 299.39 477.94 313.69 484.33 328.01 490.52 342.31 496.58 356.52 502.57 370.59 508.59 384.49 514.71 398.19 521 411.65 527.48 424.89 534.15 437.88 540.97 450.66 547.84 463.23 554.7 475.64 561.45 487.91 568.03 500.09 574.42 512.23 580.61 524.35 586.67 536.52 592.67 548.75 598.68 561.08 604.8 573.54 611.09 586.15 617.57 598.9C622.35 608.18 615.82 619.53 605.38 620.18Q592.51 621.27 579.64 622.51 566.78 623.67 553.91 624.57 541.04 625.05 528.17 625.03 515.3 624.51 502.43 623.59 489.56 622.41 476.69 621.18 463.82 620.11 450.96 619.37 438.09 619.1 425.22 619.35 412.35 620.06 399.48 621.11 386.61 622.34 373.74 623.53 360.87 624.47 348 625.02 335.13 625.06 322.26 624.61 309.4 623.73 296.53 622.58 283.66 621.34 270.79 620.23 257.92 619.45 245.05 619.11 232.18 619.28 219.31 619.94 206.44 620.96 193.57 622.17C183.13 623.16 176.04 612.85 180.52 603.13Q186.91 589.52 193.49 575.83 200.24 562.07 207.1 548.29 213.97 534.51 220.78 520.78 227.45 507.13 233.94 493.62 240.23 480.26 246.35 467.08 252.36 454.11 258.35 441.36 264.41 428.82 270.61 416.49 276.99 404.35 283.58 392.37 290.32 380.5 297.18 368.71 304.05 356.93 310.87 345.11 317.54 333.2 324.02 321.14 330.31 308.88 336.44 296.38 342.45 283.6 348.44 270.53 354.5 257.14 360.7 243.46 367.08 229.49 373.66 215.26 383.83 193.55 387.25 186.26" stroke-dasharray="0 0" transform="rotate(34.285714285714285, 400, 400)" opacity="0.14"></path><path d="M387.53 196.81C392.77 185.64 406.92 182.26 411.5 191.27Q417.29 202.69 423.23 214.37 429.33 226.35 435.62 238.61 442.04 251.16 448.56 263.97 455.09 277.02 461.57 290.26 467.92 303.67 474.1 317.18 480.11 330.75 485.96 344.33 491.7 357.87 497.39 371.32 503.11 384.64 508.93 397.8 514.9 410.77 521.05 423.55 527.38 436.11 533.83 448.47 540.36 460.63 546.88 472.62 553.33 484.45 559.64 496.16 565.79 507.77 571.75 519.33 577.57 530.88 583.28 542.44 588.97 554.04 594.71 565.73 600.57 577.51 606.59 589.42C611.03 598.06 604.72 609.03 594.81 609.89Q582.58 611.1 570.36 612.29 558.13 613.29 545.91 613.93 533.68 614.13 521.45 613.84 509.23 613.12 497 612.08 484.78 610.87 472.55 609.68 460.33 608.69 448.1 608.06 435.87 607.88 423.65 608.18 411.42 608.92 399.2 609.97 386.97 611.18 374.74 612.37 362.52 613.35 350.29 613.96 338.07 614.12 325.84 613.81 313.61 613.06 301.39 612 289.16 610.78 276.94 609.6 264.71 608.64 252.48 608.03 240.26 607.89 228.03 608.22 215.8 608.98 203.58 610.05C193.67 611.04 187.04 601.29 191.4 591.95Q197.6 578.92 203.97 565.86 210.46 552.79 216.99 539.74 223.5 526.75 229.91 513.85 236.17 501.07 242.26 488.43 248.17 475.97 253.94 463.68 259.64 451.59 265.34 439.69 271.11 427.98 277.02 416.42 283.09 405.01 289.34 393.7 295.75 382.47 302.25 371.25 308.79 360.02 315.28 348.71 321.66 337.29 327.87 325.71 333.91 313.92 339.79 301.91 345.54 289.64 351.23 277.1 356.94 264.29 362.74 251.21 368.69 237.89 374.8 224.36 384.32 203.73 387.53 196.81" stroke-dasharray="0 0" transform="rotate(51.42857142857142, 400, 400)" opacity="0.19"></path><path d="M387.88 207.36C392.77 196.8 406.18 193.65 410.59 202.18Q416.18 212.98 421.93 224.02 427.84 235.31 433.89 246.85 440.04 258.65 446.23 270.69 452.4 282.95 458.49 295.4 464.44 308 470.24 320.73 475.88 333.53 481.39 346.37 486.81 359.21 492.2 371.99 497.62 384.7 503.14 397.28 508.8 409.73 514.62 422.01 520.59 434.11 526.69 446.03 532.87 457.77 539.06 469.33 545.19 480.74 551.23 492 557.12 503.15 562.85 514.2 568.43 525.2 573.89 536.16 579.29 547.12 584.69 558.11 590.15 569.15 595.72 580.27C599.83 588.32 593.74 598.83 584.34 599.79Q572.76 600.99 561.18 602.03 549.59 602.78 538.01 603.13 526.43 603.03 514.85 602.5 503.27 601.62 491.68 600.49 480.1 599.28 468.52 598.16 456.94 597.28 445.36 596.75 433.77 596.66 422.19 597.02 410.61 597.77 399.03 598.82 387.45 600.01 375.86 601.19 364.28 602.19 352.7 602.87 341.12 603.14 329.53 602.97 317.95 602.37 306.37 601.42 294.79 600.27 283.2 599.07 271.62 597.98 260.04 597.15 248.46 596.7 236.88 596.7 225.29 597.13 213.71 597.95C204.31 598.81 198.16 589.55 202.39 580.66Q208.4 568.3 214.52 555.95 220.7 543.64 226.88 531.4 233 519.25 239.01 507.21 244.86 495.31 250.55 483.57 256.1 471.99 261.54 460.57 266.93 449.33 272.34 438.24 277.82 427.29 283.43 416.46 289.2 405.73 295.12 395.06 301.18 384.41 307.34 373.74 313.53 363.03 319.69 352.22 325.77 341.28 331.71 330.18 337.49 318.88 343.12 307.36 348.61 295.62 354.03 283.63 359.42 271.41 364.85 258.95 370.38 246.29 376.06 233.45 384.88 213.91 387.88 207.36" stroke-dasharray="0 0" transform="rotate(68.57142857142857, 400, 400)" opacity="0.23"></path><path d="M388.32 217.93C392.86 207.97 405.53 205.04 409.77 213.09Q415.19 223.28 420.74 233.68 426.43 244.29 432.21 255.13 438.06 266.19 443.9 277.46 449.69 288.94 455.38 300.59 460.94 312.4 466.36 324.34 471.64 336.36 476.81 348.45 481.92 360.55 487.01 372.65 492.14 384.69 497.36 396.66 502.71 408.53 508.19 420.28 513.82 431.88 519.56 443.33 525.38 454.62 531.23 465.76 537.05 476.74 542.79 487.57 548.42 498.27 553.91 508.87 559.25 519.37 564.48 529.8 569.61 540.19 574.7 550.57 579.81 560.95 584.98 571.35C588.76 578.87 582.89 588.83 574.01 589.79Q563.07 590.84 552.13 591.64 541.2 592.09 530.26 592.13 519.32 591.76 508.38 591.02 497.44 590.01 486.5 588.85 475.56 587.68 464.63 586.64 453.69 585.87 442.75 585.46 431.81 585.46 420.87 585.87 409.93 586.64 398.99 587.67 388.06 588.84 377.12 590 366.18 591.02 355.24 591.75 344.3 592.13 333.36 592.09 322.43 591.64 311.49 590.84 300.55 589.79 289.61 588.62 278.67 587.46 267.73 586.47 256.8 585.76 245.86 585.43 234.92 585.51 223.98 585.99C215.1 586.64 209.41 577.79 213.49 569.42Q219.26 557.8 225.09 546.24 230.93 534.75 236.74 523.35 242.46 512.07 248.05 500.92 253.5 489.9 258.81 479.03 264.01 468.3 269.13 457.72 274.22 447.27 279.33 436.94 284.53 426.71 289.84 416.56 295.3 406.46 300.89 396.38 306.61 386.29 312.42 376.15 318.26 365.94 324.09 355.62 329.86 345.17 335.52 334.55 341.04 323.75 346.42 312.75 351.66 301.54 356.81 290.13 361.91 278.5 367.01 266.69 372.16 254.69 377.41 242.55 385.56 224.1 388.32 217.93" stroke-dasharray="0 0" transform="rotate(85.71428571428571, 400, 400)" opacity="0.28"></path><path d="M388.9 228.48C393.07 219.12 404.98 216.41 409.09 224Q414.31 233.58 419.64 243.34 425.08 253.28 430.57 263.42 436.07 273.75 441.54 284.28 446.94 294.98 452.24 305.85 457.41 316.87 462.45 328.01 467.38 339.26 472.23 350.57 477.02 361.93 481.82 373.3 486.66 384.66 491.58 395.98 496.6 407.23 501.76 418.4 507.04 429.46 512.43 440.4 517.89 451.21 523.39 461.88 528.89 472.42 534.33 482.82 539.68 493.09 544.92 503.24 550.03 513.29 555.01 523.25 559.9 533.13 564.72 542.96 569.51 552.76 574.32 562.54C577.82 569.59 572.19 578.93 563.84 579.76Q553.54 580.56 543.25 581.06 532.95 581.18 522.66 580.92 512.36 580.31 502.06 579.41 491.77 578.33 481.47 577.17 471.18 576.07 460.88 575.14 450.59 574.5 440.29 574.2 430 574.28 419.7 574.74 409.41 575.51 399.11 576.53 388.81 577.67 378.52 578.81 368.22 579.83 357.93 580.62 347.63 581.08 337.34 581.17 327.04 580.89 316.75 580.25 306.45 579.33 296.16 578.23 285.86 577.08 275.57 575.98 265.27 575.08 254.98 574.46 244.68 574.19 234.39 574.31C226.04 574.67 220.77 566.18 224.69 558.36Q230.17 547.56 235.68 536.83 241.15 526.2 246.56 515.68 251.87 505.27 257.06 494.98 262.12 484.83 267.06 474.79 271.91 464.88 276.71 455.08 281.51 445.37 286.34 435.75 291.25 426.19 296.26 416.67 301.4 407.16 306.67 397.64 312.04 388.08 317.5 378.46 323 368.74 328.5 358.91 333.95 348.94 339.31 338.82 344.56 328.53 349.69 318.06 354.69 307.41 359.58 296.58 364.41 285.57 369.2 274.4 374 263.08 378.86 251.64 386.36 234.29 388.9 228.48" stroke-dasharray="0 0" transform="rotate(102.85714285714285, 400, 400)" opacity="0.32"></path><path d="M389.6 239.05C393.41 230.29 404.58 227.79 408.53 234.9Q413.54 243.87 418.63 253 423.77 262.28 428.93 271.73 434.07 281.35 439.16 291.14 444.16 301.08 449.06 311.18 453.85 321.41 458.53 331.77 463.12 342.22 467.64 352.76 472.13 363.35 476.63 373.98 481.18 384.63 485.79 395.26 490.51 405.85 495.33 416.4 500.27 426.87 505.3 437.26 510.41 447.55 515.56 457.73 520.72 467.79 525.85 477.74 530.92 487.56 535.89 497.28 540.75 506.88 545.51 516.39 550.16 525.81 554.72 535.15 559.23 544.43 563.72 553.66C566.96 560.29 561.61 568.95 553.78 569.56Q544.13 570.04 534.48 570.2 524.83 570.01 515.18 569.48 505.52 568.68 495.87 567.68 486.22 566.56 476.57 565.45 466.92 564.45 457.27 563.65 447.62 563.14 437.96 562.95 428.31 563.11 418.66 563.61 409.01 564.39 399.36 565.38 389.71 566.48 380.05 567.6 370.4 568.61 360.75 569.43 351.1 569.98 341.45 570.2 331.8 570.07 322.14 569.6 312.49 568.84 302.84 567.87 293.19 566.77 283.54 565.65 273.89 564.62 264.23 563.78 254.58 563.21 244.93 562.96C237.1 563.01 232.23 554.86 235.93 547.64Q241.09 537.69 246.24 527.83 251.32 518.06 256.33 508.4 261.22 498.85 266.01 489.41 270.69 480.07 275.28 470.82 279.8 461.67 284.3 452.6 288.8 443.58 293.34 434.62 297.96 425.68 302.67 416.74 307.5 407.79 312.44 398.81 317.47 389.76 322.58 380.64 327.73 371.42 332.89 362.08 338.02 352.61 343.08 343 348.05 333.24 352.92 323.32 357.67 313.24 362.32 303.01 366.88 292.63 371.39 282.11 375.88 271.48 380.39 260.74 387.28 244.48 389.6 239.05" stroke-dasharray="0 0" transform="rotate(120, 400, 400)" opacity="0.37"></path><path d="M390.43 249.62C393.9 241.47 404.33 239.17 408.1 245.81Q412.86 254.18 417.66 262.67 422.47 271.31 427.28 280.08 432.04 288.99 436.73 298.05 441.34 307.25 445.85 316.58 450.26 326.04 454.59 335.61 458.84 345.28 463.05 355.04 467.24 364.86 471.45 374.73 475.69 384.63 480.01 394.54 484.41 404.45 488.9 414.33 493.5 424.17 498.18 433.96 502.93 443.68 507.73 453.32 512.55 462.87 517.35 472.32 522.11 481.68 526.81 490.94 531.42 500.1 535.93 509.16 540.35 518.13 544.67 527.01 548.93 535.82 553.14 544.56C556.15 550.82 551.13 558.75 543.82 559.09Q534.82 559.23 525.81 559.05 516.8 558.57 507.79 557.84 498.78 556.91 489.77 555.85 480.76 554.77 471.76 553.74 462.75 552.86 453.74 552.2 444.73 551.81 435.72 551.73 426.71 551.97 417.7 552.5 408.7 553.27 399.69 554.24 390.68 555.3 381.67 556.38 372.66 557.39 363.65 558.23 354.65 558.85 345.64 559.18 336.63 559.2 327.62 558.9 318.61 558.32 309.6 557.51 300.6 556.52 291.59 555.44 282.58 554.37 273.57 553.39 264.56 552.58 255.55 552.02C248.24 551.77 243.74 543.96 247.21 537.36Q252.01 528.26 256.76 519.26 261.44 510.34 266.03 501.52 270.53 492.79 274.93 484.14 279.24 475.57 283.49 467.06 287.69 458.61 291.89 450.21 296.1 441.84 300.35 433.48 304.68 425.12 309.09 416.74 313.6 408.32 318.21 399.85 322.91 391.31 327.67 382.69 332.47 373.96 337.29 365.13 342.09 356.17 346.84 347.08 351.52 337.86 356.12 328.51 360.61 319.02 365.01 309.41 369.33 299.67 373.58 289.82 377.78 279.88 381.97 269.85 388.31 254.69 390.43 249.62" stroke-dasharray="0 0" transform="rotate(137.14285714285714, 400, 400)" opacity="0.41"></path><path d="M391.36 260.2C394.52 252.63 404.21 250.53 407.77 256.71Q412.23 264.48 416.71 272.35 421.17 280.33 425.59 288.43 429.96 296.66 434.25 305 438.47 313.47 442.6 322.05 446.65 330.74 450.63 339.54 454.56 348.43 458.46 357.41 462.35 366.45 466.26 375.55 470.21 384.69 474.22 393.87 478.31 403.05 482.48 412.24 486.73 421.41 491.06 430.55 495.46 439.65 499.9 448.71 504.37 457.7 508.84 466.62 513.29 475.46 517.69 484.23 522.03 492.91 526.29 501.51 530.46 510.03 534.56 518.46 538.58 526.81 542.53 535.09C545.35 541.01 540.69 548.19 533.9 548.23Q517.17 547.57 500.45 545.99 483.72 543.95 466.99 542.03 450.26 540.77 433.53 540.54 416.8 541.39 400.07 543.08 383.34 545.15 366.61 546.99 349.88 548.08 333.15 548.12 316.42 547.09 299.69 545.29 282.96 543.22 266.23 541.48C259.44 540.99 255.26 533.55 258.46 527.56Q262.87 519.31 267.22 511.13 271.49 503.03 275.68 495 279.78 487.03 283.81 479.12 291.68 463.44 299.48 447.85 303.4 440.07 307.37 432.28 311.4 424.47 315.51 416.62 319.71 408.72 323.99 400.76 328.34 392.72 332.75 384.59 337.21 376.37 341.68 368.05 346.15 359.62 350.58 351.08 354.96 342.42 359.28 333.65 363.51 324.77 367.66 315.78 371.73 306.7 375.72 297.53 379.66 288.28 383.57 278.96 389.41 264.9 391.36 260.2" stroke-dasharray="0 0" transform="rotate(154.28571428571428, 400, 400)" opacity="0.46"></path><path d="M392.36 270.78C395.25 263.81 404.18 261.91 407.49 267.61Q415.73 282.03 423.85 296.82 431.72 312 439.31 327.59 446.66 343.57 453.87 359.88 461.08 376.47 468.44 393.26 476.06 410.16 483.95 427.09 492.08 443.95 500.33 460.67 508.54 477.18 516.59 493.45 524.37 509.44 531.88 525.16C534.52 530.75 530.24 537.19 523.98 536.95Q508.54 535.78 493.09 533.99 477.65 532.02 462.21 530.35 446.77 529.39 431.32 529.37 415.88 530.29 400.44 531.93 384.99 533.9 369.55 535.71 354.11 536.92 338.66 537.24 323.22 536.59 307.78 535.14 292.33 533.22 276.89 531.31C270.63 530.65 266.73 523.65 269.65 518.24Q277.58 503.39 285.24 488.74 292.64 474.24 299.87 459.83 307.07 445.43 314.38 430.96 321.93 416.34 329.76 401.49 337.84 386.34 346.07 370.85 354.31 354.98 362.41 338.74 370.26 322.14 377.83 305.23 385.16 288.08 392.36 270.78 392.36 270.78 392.36 270.78" stroke-dasharray="0 0" transform="rotate(171.42857142857142, 400, 400)" opacity="0.50"></path><path d="M393.35 281.37C396 275 404.19 273.28 407.22 278.51Q414.72 291.71 422.04 305.21 429.14 319.03 436 333.19 442.68 347.68 449.27 362.46 455.9 377.51 462.66 392.76 469.63 408.16 476.84 423.63 484.26 439.11 491.8 454.54 499.36 469.85 506.82 485.01 514.09 499.97 521.12 514.71C523.59 519.96 519.72 525.7 513.98 525.25Q499.83 523.73 485.67 521.89 471.52 520.1 457.36 518.73 443.21 518.07 429.05 518.24 414.9 519.21 400.74 520.79 386.58 522.65 372.43 524.4 358.27 525.7 344.12 526.27 329.96 525.99 315.8 524.93 301.65 523.3 287.49 521.44C281.75 520.7 278.12 514.19 280.75 509.32Q287.87 495.92 294.76 482.63 301.46 469.4 308.05 456.17 314.67 442.88 321.41 429.47 328.35 415.87 335.53 402.04 342.93 387.93 350.46 373.52 358.03 358.81 365.5 343.78 372.8 328.48 379.86 312.93 390.02 289.29 393.35 281.37" stroke-dasharray="0 0" transform="rotate(188.57142857142858, 400, 400)" opacity="0.55"></path><path d="M394.31 291.95C396.74 286.17 404.19 284.64 406.92 289.4Q413.63 301.39 420.16 313.61 426.5 326.1 432.66 338.86 438.69 351.88 444.68 365.17 450.72 378.68 456.88 392.39 463.21 406.26 469.74 420.24 476.45 434.28 483.29 448.33 490.17 462.34 497 476.28 503.72 490.09 510.25 503.76C512.55 508.64 509.11 513.73 503.89 513.14Q491.02 511.47 478.15 509.73 465.28 508.21 452.41 507.18 439.54 506.79 426.67 507.14 413.8 508.14 400.93 509.64 388.06 511.38 375.2 513.06 362.33 514.4 349.46 515.17 336.59 515.24 323.72 514.59 310.85 513.35 297.98 511.71C292.76 511 289.4 505.04 291.72 500.68Q298.06 488.61 304.21 476.56 310.25 464.5 316.24 452.37 322.27 440.14 328.43 427.75 334.77 415.18 341.31 402.39 348.02 389.37 354.85 376.09 361.73 362.55 368.57 348.78 375.28 334.8 381.81 320.63 391.23 299.14 394.31 291.95" stroke-dasharray="0 0" transform="rotate(205.7142857142857, 400, 400)" opacity="0.59"></path><path d="M395.18 302.56C397.41 297.36 404.12 296.01 406.53 300.29Q412.45 311.08 418.21 322.04 423.81 333.21 429.3 344.59 434.7 356.19 440.1 368 445.54 380 451.09 392.19 456.79 404.52 462.64 416.98 468.65 429.53 474.77 442.13 480.96 454.76 487.14 467.36 493.26 479.92 499.26 492.4C501.38 496.87 498.34 501.39 493.64 500.75Q482.06 499.12 470.48 497.61 458.9 496.42 447.32 495.72 435.74 495.6 424.16 496.08 412.57 497.09 400.99 498.5 389.41 500.11 377.83 501.69 366.25 503.03 354.66 503.95 343.08 504.32 331.5 504.08 319.92 503.27 308.33 502C303.63 501.4 300.55 496.05 302.59 492.14Q308.17 481.28 313.64 470.37 319.03 459.41 324.43 448.34 329.89 437.15 335.47 425.8 341.19 414.28 347.08 402.57 353.11 390.66 359.25 378.55 365.44 366.25 371.62 353.76 377.72 341.12 383.69 328.35 392.35 309.02 395.18 302.56" stroke-dasharray="0 0" transform="rotate(222.85714285714286, 400, 400)" opacity="0.64"></path><path d="M395.93 313.16C397.97 308.54 403.92 307.36 406.02 311.18Q411.16 320.76 416.18 330.48 421.09 340.35 425.92 350.38 430.71 360.58 435.51 370.94 440.36 381.47 445.31 392.15 450.37 402.96 455.55 413.89 460.86 424.93 466.27 436.04 471.75 447.2 477.25 458.4 482.74 469.59 488.16 480.77C490.1 484.79 487.44 488.77 483.27 488.17Q472.97 486.76 462.68 485.57 452.38 484.74 442.09 484.35 431.79 484.46 421.5 485.05 411.2 486.04 400.9 487.35 390.61 488.81 380.31 490.28 370.02 491.59 359.72 492.6 349.43 493.2 339.13 493.32 328.83 492.95 318.54 492.13C314.37 491.69 311.57 487.02 313.35 483.52Q318.22 473.76 323.03 463.94 327.82 454.03 332.64 444 337.52 433.86 342.51 423.57 347.62 413.14 352.86 402.55 358.21 391.81 363.65 380.91 369.14 369.87 374.65 358.71 380.11 347.43 385.5 336.06 393.35 318.89 395.93 313.16" stroke-dasharray="0 0" transform="rotate(240, 400, 400)" opacity="0.68"></path><path d="M396.55 323.77C398.38 319.74 403.59 318.73 405.38 322.07Q409.77 330.45 414.08 338.93 418.32 347.51 422.52 356.22 426.72 365.05 430.93 374.01 435.19 383.09 439.52 392.29 443.95 401.61 448.47 411.03 453.08 420.55 457.79 430.14 462.55 439.81 467.36 449.53 472.18 459.28 476.97 469.06C478.69 472.58 476.41 476.1 472.75 475.6Q463.74 474.51 454.73 473.7 445.73 473.22 436.72 473.12 427.71 473.41 418.7 474.06 409.69 475.02 400.69 476.21 391.68 477.52 382.67 478.85 373.66 480.09 364.65 481.13 355.64 481.89 346.64 482.3 337.63 482.32 328.62 481.96C324.96 481.71 322.48 477.72 324 474.6Q328.22 465.91 332.41 457.15 336.61 448.29 340.85 439.32 345.16 430.25 349.56 421.07 354.04 411.77 358.63 402.36 363.3 392.83 368.05 383.19 372.85 373.46 377.66 363.64 382.47 353.74 387.24 343.79 394.24 328.78 396.55 323.77" stroke-dasharray="0 0" transform="rotate(257.14285714285717, 400, 400)" opacity="0.73"></path><path d="M397.04 334.38C398.65 330.94 403.12 330.09 404.61 332.95Q411.93 347.38 419.13 362.11 426.36 377.19 433.74 392.63 441.39 408.42 449.32 424.52 457.47 440.89 465.72 457.46C467.2 460.46 465.27 463.52 462.14 463.18Q446.7 462.03 431.25 462.01 415.81 463.1 400.37 465.06 384.92 467.39 369.48 469.54 354.03 470.98 338.59 471.36C335.46 471.29 333.31 467.97 334.61 465.24Q341.8 449.91 349.09 434.27 356.6 418.3 364.4 402 372.45 385.41 380.67 368.55 388.92 351.52 397.04 334.38 397.04 334.38 397.04 334.38" stroke-dasharray="0 0" transform="rotate(274.2857142857143, 400, 400)" opacity="0.77"></path><path d="M397.42 344.99C398.78 342.13 402.51 341.43 403.73 343.82Q409.75 355.83 415.74 368.04 421.79 380.48 427.96 393.16 434.32 406.08 440.88 419.24 447.61 432.61 454.45 446.17C455.68 448.63 454.07 451.26 451.46 451.08Q438.6 450.64 425.73 451.03 412.86 452.18 399.99 453.9 387.12 455.9 374.25 457.82 361.38 459.36 348.51 460.24C345.9 460.33 344.11 457.65 345.18 455.32Q351.21 442.2 357.35 428.86 363.66 415.29 370.17 401.52 376.87 387.56 383.69 373.46 393.99 352.12 397.42 344.99" stroke-dasharray="0 0" transform="rotate(291.42857142857144, 400, 400)" opacity="0.82"></path><path d="M397.71 355.62C398.82 353.33 401.79 352.79 402.76 354.71Q407.56 364.3 412.36 374.02 417.22 383.87 422.18 393.87 427.25 404.02 432.45 414.33 437.78 424.78 443.2 435.38C444.18 437.31 442.88 439.48 440.8 439.44Q430.51 439.56 420.21 440.2 409.91 441.31 399.62 442.76 389.32 444.39 379.03 446.02 368.73 447.48 358.43 448.6C356.35 448.77 354.91 446.71 355.79 444.78Q360.66 434.01 365.63 423.11 370.73 412.08 375.95 400.94 381.29 389.7 386.72 378.38 394.96 361.32 397.71 355.62" stroke-dasharray="0 0" transform="rotate(308.57142857142856, 400, 400)" opacity="0.86"></path><path d="M397.98 366.25C398.81 364.54 401.04 364.14 401.77 365.57Q408.99 380.02 416.4 394.75 424.06 409.8 432 425.18C432.73 426.58 431.75 428.27 430.18 428.32Q414.74 429.51 399.3 431.61 383.86 434.13 368.41 436.45C366.84 436.65 365.78 435.15 366.45 433.66Q373.95 417.08 381.73 400.27 389.76 383.3 397.98 366.25 397.98 366.25 397.98 366.25" stroke-dasharray="0 0" transform="rotate(325.7142857142857, 400, 400)" opacity="0.91"></path><path d="M398.26 376.89C398.81 375.75 400.3 375.48 400.79 376.45Q405.65 386.06 410.61 395.78 415.7 405.63 420.91 415.61C421.38 416.52 420.71 417.69 419.67 417.78Q409.38 418.95 399.08 420.47 388.78 422.18 378.48 423.89C377.44 424.06 376.75 423.07 377.2 422.06Q382.29 410.85 387.5 399.56 395.54 382.56 398.26 376.89" stroke-dasharray="0 0" transform="rotate(342.85714285714283, 400, 400)" opacity="0.95"></path></g></svg>