<svg xmlns="http://www.w3.org/2000/svg" version="1.1" xmlns:xlink="http://www.w3.org/1999/xlink" xmlns:svgjs="http://svgjs.dev/svgjs" viewBox="0 0 800 800" opacity="0.23"><g stroke-width="2" stroke="#e22a97" fill="none" stroke-linecap="round"><path d="M398.72 127.24C397.58 115.58 417.3 120.23 432.76 135.25Q441.03 144.42 447.85 153.43 452.99 162.28 456.35 170.96 457.33 187.63 454.49 203.7 449.46 218.77 446.06 233.25 449.57 246.86 458.73 260.04 466.65 266.43 476.18 272.73 486.96 278.97 498.51 285.18 510.29 291.39 521.74 297.61 532.32 303.9 541.52 310.26 553.28 323.41 558.72 337.05 554.96 351.74 547.94 367.19 543.92 375.39 540.56 383.88 538.44 392.68 538.03 401.77 539.72 411.17 543.71 420.86 550.05 430.84 558.62 441.1 569.11 451.61 581.09 462.38 594 473.36 607.19 484.53 619.99 495.87 631.77 507.34 641.94 518.92 650.03 530.56 655.72 542.22 658.88 553.88 659.54 565.49 657.93 577 654.45 588.4 649.66 599.62 644.2 610.65 638.78 621.44 634.13 631.96 630.9 642.18 629.66 652.07 630.85 661.62 634.72 670.8 641.32 679.59 650.51 687.98 661.95 695.98C681.27 706.77 689.69 723.94 675.95 724.12Q659.02 718.56 642.09 707.59 625.16 693.21 608.22 678.02 591.29 664.77 574.36 655.87 557.43 652.92 540.5 656.47 523.56 665.87 506.63 679.41 489.7 694.64 472.77 708.81 455.84 719.34 438.91 724.32 421.97 722.86 405.04 715.22 388.11 702.78 371.18 687.8 354.25 672.99 337.32 661.03 320.38 654.1 303.45 653.44 286.52 659.19 269.59 670.28 252.66 684.73 235.73 699.9 218.79 713.05 201.86 721.8 184.93 724.55 168 720.82 151.07 711.28 134.14 697.65C120.4 685.29 108.3 663.26 111.68 656.46Q117.44 646.92 124.6 637.14 134.68 626.54 146.41 615.24 152.98 609.11 159.72 602.68 166.43 595.91 172.91 588.81 178.98 581.35 184.47 573.54 189.25 565.38 193.25 556.86 196.45 548 198.89 538.8 200.67 529.29 201.95 519.49 202.94 509.41 203.86 499.08 204.98 488.53 206.52 477.79 208.7 466.89 211.71 455.86 215.66 444.74 220.59 433.55 226.5 422.35 233.27 411.15 240.73 399.99 248.67 388.9 256.81 377.91 264.86 367.05 272.51 356.35 279.5 345.83 285.6 335.5 290.62 325.39 294.48 315.51 297.16 305.87 298.76 296.48 299.43 287.35 298.97 269.97 298.38 253.32 300.83 237.81 306.7 222.91 311.94 215.75 318.51 208.74 326.26 201.85 334.94 195.05 344.23 188.33 353.77 181.65 363.17 175 372.01 168.34 379.95 161.67 386.68 154.95 396.84 134.24 398.72 127.24" stroke-dasharray="6 8" transform="rotate(0, 400, 400)" opacity="0.05"></path><path d="M403.71 138.33C404.85 127.17 424.12 131.78 436.79 146.26Q442.94 155.11 447.52 163.82 451.14 180.68 450.56 197.01 446.03 212.4 441.56 227.21 441.39 241.1 445.77 254.47 451.03 260.89 458.03 267.18 466.61 273.35 476.46 279.42 487.22 285.43 498.43 291.38 509.59 297.31 520.22 303.23 529.85 309.18 538.08 315.17 548.2 327.47 552.51 340.15 548.62 353.69 541.89 367.86 535.49 383.27 532.34 399.48 533.7 408.08 537.14 416.96 542.75 426.12 550.43 435.56 559.96 445.27 571 455.23 583.07 465.43 595.64 475.86 608.12 486.48 619.92 497.29 630.51 508.25 639.41 519.33 646.27 530.5 650.86 541.74 653.11 553 653.13 564.26 651.15 575.47 647.56 586.61 642.87 597.63 637.67 608.51 632.58 619.21 628.24 629.7 625.22 639.95 624.03 649.93 625.05 659.61 628.52 668.98 634.49 678.01 642.88 686.69C658.57 698.53 665.56 712.91 652.6 709.93Q636.63 701.39 620.65 688.87 604.68 674.47 588.71 660.6 572.74 649.58 556.76 643.27 540.79 642.73 524.82 648.03 508.85 658.31 492.87 671.82 476.9 686.32 460.93 699.35 444.95 708.74 428.98 712.92 413.01 711.17 397.04 703.8 381.06 692.05 365.09 677.87 349.12 663.65 333.14 651.78 317.17 644.25 301.2 642.32 285.22 646.31 269.25 655.55 253.28 668.5 237.31 682.98 221.33 696.57 205.36 706.98 189.39 712.46 173.41 712.11 157.44 705.97 141.47 695.08C128.51 683.99 116.98 662.62 120.47 656.04Q126.94 646.45 135.03 636.34 145.91 625.08 158.12 613 164.67 606.43 171.22 599.54 177.59 592.31 183.59 584.76 189.09 576.87 193.94 568.65 198.06 560.11 201.41 551.26 204.03 542.11 205.96 532.69 207.35 523 208.35 513.08 209.16 502.94 210.01 492.62 211.12 482.14 212.7 471.53 214.95 460.82 218.01 450.04 221.97 439.22 226.87 428.4 232.68 417.6 239.3 406.85 246.57 396.18 254.28 385.62 262.18 375.19 270.02 364.91 277.52 354.8 284.42 344.89 290.52 335.17 295.63 325.68 299.66 316.42 302.58 307.39 304.98 290.17 305.18 273.66 304.41 258.28 304.88 243.52 309.98 229.63 318.76 216.17 325.33 209.63 332.98 203.17 341.47 196.77 350.52 190.41 359.78 184.06 368.9 177.7 377.51 171.31 385.3 164.88 400.16 145.04 403.71 138.33" stroke-dasharray="0 6" transform="rotate(4.04, 400, 400)" opacity="0.09"></path><path d="M406.42 149.44C410.29 138.75 429 143.31 438.31 157.27Q444.71 174.21 445.53 190.57 442.32 206.27 437.72 221.27 434.8 235.55 436.31 249.11 443.96 262.01 457.98 274.32 476.97 286.16 498.25 297.65 518.45 308.97 534.39 320.27 543.87 331.76 546.25 343.6 542.68 355.99 535.83 369.07 529.29 383 526.66 397.88 530.66 413.78 542.4 430.75 561.09 448.76 584.14 467.76 607.8 487.66 628.08 508.3 641.73 529.52 647.09 551.1 644.54 572.8 636.49 594.39 626.76 615.61 619.71 636.22 619.1 655.99 627.19 674.72C638.55 687.46 642.44 699.21 630.23 693.58Q615.18 682.93 600.13 669.74 585.07 656.05 570.02 643.98 554.97 635.4 539.92 631.64 524.87 633.28 509.82 640.06 494.76 650.93 479.71 664.22 464.66 677.87 449.61 689.76 434.56 698.06 419.5 701.47 404.45 699.48 389.4 692.39 374.35 681.29 359.3 667.91 344.24 654.32 329.19 642.61 314.14 634.61 299.09 631.54 284.04 633.89 268.98 641.29 253.93 652.59 238.88 666.05 223.83 679.59 208.77 691.1 193.72 698.81 178.67 701.52 163.62 698.82 148.56 691.12C136.35 681.99 125.78 661.86 129.72 655.13Q136.86 645.15 146.22 634.25 157.57 622.27 170.14 609.11 182.73 594.72 194.06 579.1 203.08 562.27 209.27 544.35 212.83 525.47 214.64 505.78 216.14 485.49 218.92 464.82 224.35 443.96 233.18 423.16 245.35 402.6 259.88 382.48 275.17 362.97 289.3 344.19 300.57 326.23 307.9 309.16 311.2 292.98 311.41 277.69 310.28 263.21 310.04 249.46 312.74 236.33 319.82 223.68 331.62 211.37 347.32 199.22 365.04 187.1 382.33 174.84 396.73 162.33 406.42 149.44 406.42 149.44 406.42 149.44" stroke-dasharray="9 7" transform="rotate(8.08, 400, 400)" opacity="0.13"></path><path d="M406.57 160.56C413.23 150.35 431.27 154.84 437.1 168.27Q439.64 184.58 437.88 200.35 433.82 215.51 430.05 230.02 429.18 243.84 433.23 257 443.13 269.51 458.49 281.45 477.62 292.9 497.91 303.97 516.4 314.79 530.45 325.53 538.4 336.33 539.95 347.37 536.27 358.81 529.78 370.8 523.64 383.48 521 396.98 524.26 411.38 534.56 426.75 551.39 443.1 572.75 460.43 595.51 478.68 616.15 497.77 631.55 517.56 639.73 537.91 640.35 558.63 634.78 579.51 625.88 600.34 617.35 620.88 612.88 640.93 615.31 660.27C622.12 673.64 621.88 683.1 610.36 675.52Q596.16 663.66 581.95 650.64 567.75 638.29 553.55 628.38 539.35 622.32 525.14 620.97 510.94 624.53 496.74 632.47 482.54 643.69 468.33 656.57 454.13 669.29 439.93 680.04 425.72 687.28 411.52 690 397.32 687.79 383.11 680.98 368.91 670.53 354.71 657.93 340.51 644.98 326.3 633.51 312.1 625.16 297.9 621.12 283.69 621.96 269.49 627.56 255.29 637.12 241.08 649.29 226.88 662.33 212.68 674.39 198.47 683.75 184.27 689.08 170.07 689.62 155.86 685.3C144.35 678.62 135.09 660.19 139.7 653.01Q147.91 642.23 158.16 630.42 169.94 617.48 182.31 603.39 194.09 588.15 204.2 571.82 211.85 554.47 216.81 536.24 219.48 517.28 220.85 497.77 222.27 477.88 225.17 457.82 230.72 437.78 239.51 417.94 251.39 398.49 265.47 379.57 280.29 361.3 294.12 343.77 305.4 327.06 313.09 311.19 316.94 296.16 317.61 281.92 316.54 268.41 315.63 255.54 316.86 243.21 321.75 231.28 331.06 219.61 344.52 208.07 360.87 196.52 378.15 184.82 394.06 172.87 406.57 160.56 406.57 160.56 406.57 160.56" stroke-dasharray="7 6" transform="rotate(12.12, 400, 400)" opacity="0.16"></path><path d="M404.23 171.68C413.34 161.95 430.59 166.37 433.22 179.26Q432.73 194.94 429.49 210.11 425.6 224.72 423.38 238.73 424.88 252.11 431.39 264.85 443.19 276.98 459.43 288.55 478.29 299.62 497.34 310.3 514.03 320.68 526.26 330.9 532.8 341.1 533.61 351.42 529.86 362 523.74 373 518 384.55 515.35 396.77 517.95 409.76 526.89 423.59 541.92 438.33 561.51 453.98 583.12 470.54 603.71 487.96 620.39 506.17 631.03 525.06 634.74 544.49 632.06 564.31 624.93 584.34 616.26 604.38 609.34 624.25 607.18 643.73C609.77 657.41 604.99 665 594.09 656.22Q580.64 644.07 567.19 631.96 553.75 621.46 540.3 613.93 526.86 610.37 513.41 611.23 499.97 616.4 486.52 625.21 473.08 636.5 459.63 648.82 446.19 660.55 432.74 670.17 419.3 676.41 405.85 678.47 392.41 676.09 378.96 669.56 365.52 659.74 352.07 647.91 338.63 635.62 325.18 624.45 311.74 615.88 298.29 611.01 284.85 610.48 271.4 614.36 257.96 622.14 244.51 632.82 231.07 644.99 217.63 657.07 204.18 667.49 190.74 674.89 177.29 678.31 163.85 677.3C152.94 673.29 145.22 656.92 150.64 649.09Q159.88 637.35 170.8 624.56 182.66 610.68 194.48 595.76 205.2 579.83 213.94 563 220.21 545.37 224.03 527.09 225.94 508.31 226.98 489.19 228.4 469.92 231.47 450.67 237.14 431.6 245.87 412.86 257.45 394.6 271.06 376.93 285.39 359.93 298.89 343.68 310.15 328.2 318.15 313.51 322.54 299.58 323.76 286.36 322.91 273.78 321.62 261.76 321.66 250.18 324.62 238.94 331.48 227.91 342.45 216.95 356.85 205.96 373.24 194.82 389.7 183.42 404.23 171.68 404.23 171.68 404.23 171.68" stroke-dasharray="4 3" transform="rotate(16.16, 400, 400)" opacity="0.20"></path><path d="M399.72 182.82C410.65 173.55 427 177.89 427.06 190.25Q424.62 205.29 420.99 219.86 418.16 233.92 418.02 247.42 421.99 260.34 430.73 272.66 444 284.41 460.66 295.62 478.89 306.33 496.49 316.63 511.35 326.61 521.82 336.37 527.06 346.03 527.22 355.7 523.46 365.54 517.71 375.65 512.34 386.18 509.72 397.23 511.72 408.92 519.39 421.32 532.69 434.51 550.48 448.53 570.73 463.4 590.88 479.11 608.36 495.63 621.01 512.9 627.58 530.82 627.99 549.28 623.32 568.15 615.66 587.28 607.74 606.51 602.4 625.65C601.52 639.28 592.45 645.51 582.07 636.32Q569.29 624.72 556.5 614.13 543.71 605.82 530.93 600.75 518.14 599.55 505.35 602.35 492.57 608.82 479.78 618.18 466.99 629.33 454.21 640.95 441.42 651.64 428.63 660.15 415.85 665.45 403.06 666.92 390.27 664.39 377.49 658.15 364.7 648.95 351.92 637.87 339.13 626.25 326.34 615.45 313.56 606.76 300.77 601.22 287.98 599.48 275.2 601.75 262.41 607.76 249.62 616.79 236.84 627.78 224.05 639.41 211.27 650.31 198.48 659.17 185.69 664.95 172.91 666.96C162.54 665.64 156.43 651.49 162.65 642.94Q172.74 630.21 183.97 616.49 195.53 601.82 206.47 586.25 215.91 569.88 223.22 552.81 228.16 535.17 230.94 517.1 232.24 498.75 233.07 480.27 234.56 461.82 237.81 443.54 243.6 425.58 252.25 408.04 263.52 391.04 276.65 374.65 290.47 358.94 303.61 343.94 314.8 329.67 323.06 316.12 327.99 303.25 329.8 291.01 329.33 279.33 327.91 268.11 327.1 257.27 328.41 246.69 332.99 236.27 341.38 225.89 353.41 215.45 368.17 204.85 384.2 194 399.72 182.82 399.72 182.82 399.72 182.82" stroke-dasharray="6 3" transform="rotate(20.200000000000003, 400, 400)" opacity="0.24"></path><path d="M393.67 193.96C405.55 185.17 420.91 189.41 419.29 201.22Q416.06 215.61 413.07 229.58 411.99 243.08 414.2 256.07 420.55 268.52 431.16 280.42 445.42 291.78 462.04 302.63 479.3 313 495.3 322.95 508.33 332.55 517.14 341.89 521.2 351.07 520.82 360.18 517.08 369.36 511.69 378.69 506.69 388.32 504.1 398.33 505.58 408.83 512.08 419.92 523.71 431.67 539.68 444.14 558.41 457.37 577.8 471.39 595.59 486.18 609.75 501.73 618.83 517.98 622.28 534.87 620.48 552.3 614.78 570.17 607.23 588.35 600.24 606.7C596.89 619.93 584.3 625.29 574.39 616.4Q562.17 606.07 549.95 597.47 537.73 591.52 525.51 588.88 513.29 589.82 501.07 594.25 488.85 601.68 476.63 611.31 464.41 622.11 452.19 632.91 439.97 642.54 427.75 649.97 415.53 654.39 403.31 655.33 391.09 652.68 378.87 646.73 366.65 638.13 354.43 627.8 342.21 616.85 329.99 606.47 317.78 597.77 305.56 591.71 293.34 588.92 281.12 589.71 268.9 594 256.68 601.32 244.46 610.88 232.24 621.66 220.02 632.48 207.79 642.18 195.57 649.72 183.35 654.28C173.44 655.43 168.84 643.54 175.73 634.29Q186.31 620.68 197.45 606.22 208.32 590.98 218.1 575.03 226.11 558.49 231.98 541.47 235.67 524.1 237.57 506.51 238.41 488.84 239.13 471.21 240.76 453.76 244.21 436.6 250.11 419.84 258.65 403.57 269.59 387.86 282.23 372.77 295.52 358.34 308.28 344.58 319.34 331.49 327.83 319.03 333.25 307.18 335.68 295.87 335.72 285.03 334.4 274.59 333.07 264.44 333.09 254.5 335.66 244.67 341.55 234.85 350.98 224.95 363.53 214.89 378.22 204.58 393.67 193.96 393.67 193.96 393.67 193.96" stroke-dasharray="10 11" transform="rotate(24.24, 400, 400)" opacity="0.28"></path><path d="M386.84 205.12C398.75 196.78 413.1 200.91 410.74 212.2Q407.84 225.94 406.32 239.29 407.43 252.22 412.04 264.69 420.49 276.66 432.52 288.13 447.27 299.1 463.43 309.59 479.45 319.61 493.75 329.22 504.96 338.47 512.22 347.44 515.23 356.19 514.38 364.81 510.7 373.41 505.67 382.07 501.03 390.9 498.5 399.99 499.51 409.45 504.94 419.36 515 429.8 529.17 440.83 546.26 452.52 564.59 464.9 582.24 477.99 597.37 491.79 608.5 506.3 614.74 521.48 615.97 537.27 612.87 553.61 606.81 570.41 599.66 587.56C595.02 600.07 580.08 605.05 570.58 597.11Q558.85 588.59 547.12 582.25 535.39 578.71 523.67 578.33 511.94 581.12 500.21 586.83 488.48 594.9 476.76 604.54 465.03 614.8 453.3 624.7 441.57 633.26 429.85 639.65 418.12 643.25 406.39 643.71 394.66 640.98 382.93 635.33 371.21 627.3 359.48 617.69 347.75 607.43 336.02 597.51 324.3 588.91 312.57 582.47 300.84 578.8 289.11 578.28 277.38 580.94 265.66 586.53 253.93 594.51 242.2 604.1 230.47 614.36 218.74 624.3 207.02 632.93 195.29 639.43C185.78 642.69 182.44 632.92 189.73 623.1Q200.38 608.83 210.99 593.89 220.82 578.37 229.21 562.35 235.72 545.96 240.19 529.29 242.77 512.47 243.95 495.61 244.47 478.82 245.2 462.23 247.02 445.91 250.68 429.98 256.66 414.5 265.08 399.55 275.67 385.15 287.79 371.36 300.55 358.18 312.89 345.62 323.79 333.65 332.43 322.25 338.31 311.36 341.38 300.94 342.01 290.91 341.01 281.19 339.45 271.72 338.55 262.39 339.46 253.13 343.07 243.86 349.87 234.49 359.85 224.95 379.67 210.15 386.84 205.12" stroke-dasharray="1 2" transform="rotate(28.28, 400, 400)" opacity="0.32"></path><path d="M380.14 216.28C391.17 208.41 404.51 212.42 402.37 223.15Q400.73 236.23 401.23 248.97 404.69 261.33 411.53 273.26 421.68 284.75 434.61 295.78 449.35 306.35 464.68 316.47 479.24 326.15 491.77 335.44 501.24 344.36 507.06 352.97 506.73 369.49 499.65 385.71 494.43 402.28 497.96 419.58 506.55 428.84 518.97 438.58 534.34 448.85 551.36 459.7 568.47 471.17 584.05 483.28 596.67 496.05 605.31 509.46 609.47 523.5 609.3 538.13 605.57 553.31 599.56 568.95C594.74 580.47 578.84 585.5 569.68 578.96Q558.4 572.6 547.12 568.64 535.84 567.41 524.55 569.02 513.27 573.34 501.99 579.98 490.71 588.36 479.43 597.76 468.14 607.34 456.86 616.27 445.58 623.77 434.3 629.17 423.01 632.02 411.73 632.05 400.45 629.26 389.16 623.91 377.88 616.45 366.6 607.54 355.32 597.97 344.03 588.56 332.75 580.14 321.47 573.46 310.19 569.08 298.9 567.41 287.62 568.58 276.34 572.49 265.06 578.8 253.77 586.96 242.49 596.25 231.21 605.86 219.92 614.95 208.64 622.72C199.48 627.58 197.02 619.69 204.37 609.5Q214.61 594.88 224.28 579.79 232.78 564.32 239.66 548.56 244.68 532.61 247.86 516.58 249.5 500.56 250.14 484.65 250.48 468.94 251.3 453.52 253.35 438.47 257.22 423.83 263.26 409.68 271.53 396.05 281.75 382.97 293.36 370.45 305.56 358.48 317.45 347.07 328.14 336.18 336.87 325.77 343.16 315.8 346.84 306.21 348.14 296.94 347.61 287.92 346.12 279.08 344.68 270.34 344.33 261.64 345.99 252.9 350.32 244.05 357.61 235.03 373.93 221.03 380.14 216.28" stroke-dasharray="7 5" transform="rotate(32.32, 400, 400)" opacity="0.35"></path><path d="M374.41 227.45C383.86 220.04 396.22 223.93 395.08 234.1Q395.35 246.52 398.14 258.64 403.87 270.41 412.57 281.8 423.91 292.79 437.19 303.37 451.47 313.53 465.65 323.27 478.6 332.61 489.34 341.57 500.06 358.33 501.44 374.3 493.83 389.54 487.33 404.74 487.57 412.51 491.15 420.48 498.38 428.73 509.1 437.32 522.72 446.33 538.26 455.79 554.46 465.76 569.99 476.28 583.54 487.37 594.04 499.05 600.81 511.32 603.59 524.18 602.67 537.59 598.79 551.53C594.78 561.86 579.25 567.24 570.44 562.43Q559.58 558.4 548.73 556.74 537.87 557.59 527.02 560.87 516.16 566.34 505.31 573.56 494.46 581.97 483.6 590.91 472.75 599.69 461.89 607.61 451.04 614.07 440.18 618.55 429.33 620.7 418.47 620.36 407.62 617.55 396.77 612.49 385.91 605.58 375.06 597.36 364.2 588.46 353.35 579.6 342.5 571.45 331.64 564.65 320.79 559.75 309.93 557.11 299.08 556.94 288.22 559.27 277.37 563.9 266.52 570.48 255.66 578.48 244.81 587.3 233.95 596.22 223.1 604.57C214.29 610.47 212.24 604.13 219.27 593.83Q228.63 579.22 237.02 564.33 244 549.24 249.32 534.06 252.93 518.85 255 503.7 255.89 488.71 256.16 473.93 256.46 459.44 257.46 445.3 259.77 431.57 263.84 418.28 269.92 405.47 278.01 393.15 287.85 381.35 298.92 370.05 310.55 359.25 321.96 348.93 332.39 339.05 341.15 329.58 347.77 320.47 352.04 311.67 353.48 294.82 351.31 278.36 351.28 261.92 357.13 245.14 369.46 231.94 374.41 227.45" stroke-dasharray="10 10" transform="rotate(36.36, 400, 400)" opacity="0.39"></path><path d="M370.43 238.63C377.81 231.67 389.25 235.41 389.65 245.03Q392.16 256.79 397.21 268.27 404.88 279.44 414.95 290.28 426.9 300.77 440.02 310.88 453.43 320.62 466.2 329.98 477.45 338.96 486.46 347.59 494.71 363.73 494.95 379.05 487.82 393.46 481.75 407.64 486.09 422.05 499.59 436.96 511.46 444.87 525.37 453.11 540.39 461.75 555.4 470.82 569.3 480.36 581.08 490.4 589.96 500.97 595.45 512.06 597.46 523.68 596.29 535.82C593.83 544.88 579.83 550.81 571.39 547.86Q560.97 546.12 550.56 546.56 540.15 549.16 529.73 553.74 519.32 559.97 508.91 567.43 498.49 575.61 488.08 583.92 477.67 591.81 467.25 598.71 456.84 604.16 446.43 607.77 436.01 609.3 425.6 608.64 415.19 605.84 404.77 601.08 394.36 594.7 383.95 587.15 373.54 578.94 363.12 570.64 352.71 562.83 342.3 556.05 331.88 550.76 321.47 547.35 311.06 546.03 300.64 546.91 290.23 549.92 279.82 554.85 269.41 561.37 258.99 569.02 248.58 577.26 238.17 585.54C229.72 591.88 227.62 586.72 234 576.57Q242.09 562.32 248.95 547.97 254.34 533.6 258.16 519.27 260.52 505.05 261.66 491.01 262.02 477.2 262.1 463.69 262.48 450.52 263.72 437.73 266.29 425.35 270.54 413.41 276.64 401.92 284.52 390.89 293.95 380.32 304.47 370.19 315.52 360.5 326.43 351.2 336.54 342.28 345.26 333.68 352.14 325.38 356.93 317.31 359.67 301.74 358.23 286.43 356.41 271.01 358.58 255.25 366.86 242.84 370.43 238.63" stroke-dasharray="1 2" transform="rotate(40.400000000000006, 400, 400)" opacity="0.43"></path><path d="M368.73 249.81C373.85 243.31 384.47 246.9 386.66 255.96Q391.39 267.04 398.39 277.87 407.5 288.44 418.35 298.72 430.36 308.68 442.84 318.32 455.05 327.62 466.24 336.58 475.75 345.2 483.09 353.49 489.15 369.01 488.45 383.72 481.82 397.41 476.18 410.74 479.36 423.94 490.45 437.36 500.61 444.34 512.84 451.54 526.43 459.03 540.54 466.83 554.26 474.99 566.69 483.55 577.06 492.54 584.79 501.97 589.54 511.86 591.26 522.23C590.76 529.99 579.17 536.54 571.11 535.43Q561.18 535.77 551.24 538 541.31 541.96 531.38 547.43 521.45 554.06 511.51 561.45 501.58 569.16 491.65 576.71 481.72 583.64 471.78 589.53 461.85 594.02 451.92 596.85 441.98 597.82 432.05 596.89 422.12 594.12 412.19 589.67 402.25 583.81 392.32 576.9 382.39 569.36 372.46 561.65 362.52 554.24 352.59 547.58 342.66 542.08 332.72 538.08 322.79 535.81 312.86 535.41 302.93 536.91 292.99 540.22 283.06 545.14 273.13 551.36 263.19 558.51 253.26 566.15C245.2 572.39 242.66 568.04 248.07 558.31Q254.62 544.78 259.85 531.29 263.68 517.9 266.16 504.66 267.47 491.62 267.93 478.84 267.95 466.35 268 454.19 268.56 442.39 270.08 430.96 272.93 419.94 277.34 409.32 283.41 399.11 291.06 389.31 300.06 379.91 310.02 370.88 320.47 362.21 330.84 353.87 340.59 345.83 349.2 338.06 360.54 323.19 366.35 308.74 365 294.53 362.15 280.2 365.8 257.55 368.73 249.81" stroke-dasharray="2 3" transform="rotate(44.44, 400, 400)" opacity="0.47"></path><path d="M369.62 261.01C372.56 254.96 382.43 258.39 386.36 266.88Q393 277.28 401.45 287.46 411.4 297.42 422.41 307.11 433.94 316.54 445.39 325.68 456.15 334.52 465.66 343.07 473.47 351.31 479.26 359.26 483.39 374.16 481.94 388.28 475.82 401.34 470.62 413.94 472.8 426.15 481.7 438.36 490.22 444.58 500.74 450.92 512.75 457.44 525.64 464.17 538.69 471.16 551.18 478.43 562.39 486.02 571.72 493.96 578.74 502.27 583.18 510.97C584.74 517.49 576.01 524.64 568.39 525.17Q558.99 527.28 549.59 530.88 540.2 535.79 530.8 541.74 521.4 548.42 512 555.48 502.61 562.54 493.21 569.22 483.81 575.18 474.42 580.08 465.02 583.68 455.62 585.78 446.23 586.27 436.83 585.13 427.43 582.41 418.04 578.26 408.64 572.89 399.24 566.61 389.84 559.73 380.45 552.63 371.05 545.67 361.65 539.24 352.26 533.67 342.86 529.26 333.46 526.24 324.07 524.78 314.67 524.94 305.27 526.73 295.88 530.04 286.48 534.7 277.08 540.47 267.69 547.03C260.06 552.71 256.82 548.78 261.07 539.7Q265.96 527.18 269.59 514.8 272.01 502.61 273.36 490.64 273.88 478.93 273.89 467.51 273.78 456.39 273.94 445.62 274.77 435.19 276.6 425.11 279.7 415.4 284.24 406.06 290.24 397.07 297.62 388.42 306.17 380.11 315.56 372.11 325.4 364.39 335.21 356.94 344.55 349.71 352.97 342.69 364.88 329.15 371.9 315.88 371.76 302.69 369.25 289.36 368.66 268.23 369.62 261.01" stroke-dasharray="4 9" transform="rotate(48.48, 400, 400)" opacity="0.51"></path><path d="M373.05 272.21C374.16 266.6 383.35 269.86 388.71 277.78Q396.72 287.49 405.98 297.02 416.12 306.34 426.73 315.45 437.32 324.32 447.42 332.95 456.57 341.32 464.39 349.44 474.02 364.73 478.22 379.25 475.05 392.56 469.68 405.24 467.02 425.63 473.33 439.78 480.32 445.39 489.15 451.05 499.51 456.79 510.94 462.65 522.94 468.66 534.93 474.86 546.31 481.27 556.56 487.93 565.19 494.86 571.84 502.09C575.29 507.48 569.49 515.09 562.35 516.97Q544.76 524.94 527.16 536.44 509.57 549.37 491.98 561.39 474.39 570.33 456.79 574.56 439.2 573.33 421.61 566.84 404.01 556.28 386.42 543.56 368.83 530.99 351.23 520.84 333.64 514.95 316.05 514.4 298.45 519.27 280.86 528.69C273.72 533.44 269.63 529.66 272.67 521.43Q275.93 510.14 278.13 499.05 279.38 488.2 279.88 477.61 279.88 467.29 279.68 457.26 279.61 447.54 280 438.13 281.14 429.04 283.29 420.27 286.62 411.81 291.24 403.65 297.13 395.8 304.22 388.22 312.29 380.91 321.1 373.85 330.3 367.01 339.53 360.37 348.41 353.89 356.58 347.56 368.86 335.24 376.96 323.09 378.25 310.9 376.66 298.53 373.5 278.91 373.05 272.21" stroke-dasharray="3 9" transform="rotate(52.52, 400, 400)" opacity="0.54"></path><path d="M378.72 283.44C378.49 278.26 387.06 281.33 393.35 288.68Q411.43 306.55 430.86 323.74 448.72 340.14 462.38 355.67 470.2 370.29 471.94 384 468.93 396.83 463.71 408.86 459.5 420.19 459.34 430.98 465.36 441.41 478.16 451.67 496.68 461.98 518.36 472.56 539.77 483.64 557.45 495.41C562.35 499.87 559.18 507.72 552.59 510.57Q536.32 519.89 520.05 531.28 503.78 542.98 487.51 553.17 471.24 560.28 454.97 563.21 438.7 561.5 422.43 555.42 406.16 545.91 389.88 534.44 373.61 522.79 357.34 512.76 341.07 505.89 324.8 503.27 308.53 505.28 292.26 511.63C285.66 515.23 280.76 511.39 282.65 504.11Q285.52 484.51 285.85 465.88 285.4 448.31 286.22 431.84 290.16 416.45 298.34 402.1 310.83 388.68 326.63 376.07 343.81 364.12 360.03 352.65 373.07 341.46 381.45 330.37 384.8 319.19 384.02 307.74 379.93 289.65 378.72 283.44" stroke-dasharray="11 6" transform="rotate(56.56, 400, 400)" opacity="0.58"></path><path d="M386.02 294.65C385.04 289.92 393.02 292.8 399.65 299.56Q417.2 316.05 434.41 331.97 449.12 347.23 459.6 361.76 465.01 375.53 465.54 388.51 462.43 400.72 457.75 412.2 453.95 423.01 453.37 433.25 457.75 443.05 467.79 452.53 483.03 461.86 501.88 471.21 521.92 480.74 540.44 490.64C546.25 494.33 545.18 502.19 539.16 505.61Q524.32 515.39 509.47 526.06 494.63 536.21 479.78 544.54 464.93 549.95 450.09 551.73 435.24 549.67 420.4 544.02 405.55 535.51 390.71 525.27 375.86 514.63 361.01 504.96 346.17 497.53 331.32 493.32 316.48 492.86 301.63 496.22C295.61 498.58 290.11 494.54 291.03 488.29Q291.95 471.52 291.49 455.68 291.21 440.77 292.71 426.78 297.27 413.67 305.56 401.36 317.48 389.76 332.15 378.74 348.05 368.18 363.32 357.91 376.19 347.81 385.32 337.7 390.13 327.46 390.95 316.95 387.49 300.35 386.02 294.65" stroke-dasharray="3 10" transform="rotate(60.599999999999994, 400, 400)" opacity="0.62"></path><path d="M394.17 305.87C393.01 301.58 400.4 304.25 406.8 310.42Q422.64 325.52 437.01 340.14 448.48 354.22 456.06 367.71 459.44 380.56 459.03 392.76 455.95 404.3 451.79 415.2 448.39 425.49 447.52 435.23 450.51 444.49 458.1 453.37 470.18 461.97 485.88 470.41 503.67 478.81 521.59 487.3C527.67 490.41 528.03 498 522.61 501.6Q509.26 511.05 495.9 520.5 482.55 528.93 469.19 535.43 455.84 539.3 442.49 540.12 429.13 537.8 415.78 532.6 402.42 525.07 389.07 516.02 375.71 506.44 362.36 497.36 349 489.75 335.65 484.44 322.29 482.01 308.94 482.7C303.52 483.87 297.74 479.6 297.95 474.37Q297.67 460.36 297.03 447.14 297.25 434.68 299.5 422.95 304.6 411.88 312.89 401.39 324.16 391.4 337.67 381.8 352.24 372.49 366.47 363.34 378.95 354.24 388.55 345.08 394.62 335.76 397.1 326.17 395.37 311.05 394.17 305.87" stroke-dasharray="7 6" transform="rotate(64.64, 400, 400)" opacity="0.66"></path><path d="M402.3 317.11C401.42 313.25 408.21 315.71 413.86 321.29Q427.13 334.96 438.36 348.26 446.72 361.12 451.76 373.51 453.5 385.39 452.43 396.74 449.48 407.55 445.83 417.81 442.83 427.55 441.75 436.78 443.62 445.56 449.07 453.94 458.24 461.98 470.73 469.75 485.65 477.34 501.77 484.84C507.58 487.53 508.64 494.62 503.84 498.06Q492 506.53 480.17 514.43 468.33 521.07 456.5 525.85 444.66 528.36 432.83 528.39 420.99 525.93 409.16 521.19 397.32 514.59 385.48 506.71 373.65 498.24 361.81 489.92 349.98 482.47 338.14 476.56 326.31 472.69 314.47 471.21C309.67 471.32 303.97 466.87 303.79 462.59Q303.06 451.14 302.72 440.3 303.68 430.03 306.68 420.29 312.19 411.01 320.33 402.12 330.87 393.54 343.18 385.2 356.4 377.02 369.47 368.89 381.35 360.75 391.12 352.5 398.15 344.08 402.18 335.41 402.83 321.78 402.3 317.11" stroke-dasharray="3 8" transform="rotate(68.68, 400, 400)" opacity="0.70"></path><path d="M409.49 328.35C409.23 324.92 415.35 327.14 419.93 332.13Q430.16 344.37 438.25 356.31 443.82 367.91 446.75 379.15 447.25 389.99 445.77 400.42 443.03 410.41 439.89 419.96 437.17 437.57 440.72 453.98 447.3 461.54 456.7 468.81 468.48 475.82 481.96 482.64C487.07 485.05 488.18 491.42 484 494.41Q473.67 501.47 463.34 507.65 453.01 512.52 442.68 515.76 432.35 517.13 422.02 516.54 411.7 514.03 401.37 509.77 391.04 504.07 380.71 497.3 370.38 489.96 360.05 482.53 349.72 475.54 339.39 469.47 329.06 464.75 318.73 461.69C314.54 460.98 309.31 456.47 309.03 453.04Q309.55 435.28 314.27 418.67 320.04 410.93 327.9 403.42 337.61 396.08 348.69 388.86 360.52 381.7 372.35 374.53 383.42 367.29 393.04 359.93 400.66 352.4 405.95 344.65 409.16 332.5 409.49 328.35" stroke-dasharray="11 11" transform="rotate(72.72, 400, 400)" opacity="0.73"></path><path d="M414.99 339.6C415.46 336.6 420.89 338.58 424.23 342.97Q431.34 353.75 436.57 364.31 439.8 374.61 441.11 384.64 440.73 394.37 439.06 403.78 436.6 412.87 433.95 421.63 431.25 437.94 433.03 453.26 437.42 460.37 444.02 467.19 452.69 473.75 463.1 480.07C467.19 482.3 467.94 487.79 464.34 490.18Q455.47 495.57 446.61 500.02 437.74 503.27 428.87 505.18 420.01 505.62 411.14 504.58 402.27 502.12 393.41 498.36 384.54 493.51 375.67 487.82 366.81 481.59 357.94 475.16 349.07 468.87 340.21 463.04 331.34 458 322.47 454C318.87 452.73 314.41 448.31 314.26 445.61Q316.27 431.43 322.33 417.94 328.16 411.5 335.58 405.18 344.37 398.93 354.2 392.72 364.61 386.49 375.12 380.22 385.19 373.86 394.35 367.37 411.17 346.7 414.99 339.6" stroke-dasharray="8 7" transform="rotate(76.76, 400, 400)" opacity="0.77"></path><path d="M418.19 350.84C419.34 348.29 424.04 350.02 426.17 353.79Q433.31 372.23 434.92 389.95 432.33 406.83 428.02 422.77 424.97 437.71 425.95 451.63 432.81 464.56 445.96 476.57C448.93 478.65 449.06 483.18 446.03 484.88Q431.09 491.4 416.15 494.09 401.22 492.52 386.28 486.95 371.34 478.23 356.4 467.71 341.46 457.03 326.53 447.83C323.5 446.28 320 442.15 320.15 440.05Q323.21 428.74 330.89 417.89 343.38 407.27 359.69 396.68 377.78 385.92 395.08 374.8 413.66 357 418.19 350.84" stroke-dasharray="6 4" transform="rotate(80.80000000000001, 400, 400)" opacity="0.81"></path><path d="M418.81 362.1C420.42 359.96 424.35 361.44 425.45 364.6Q428.59 380.1 428.28 395.11 425.6 409.55 422.09 423.37 419.5 436.5 419.43 448.93 423.11 460.65 431.13 471.65C433.03 473.56 432.51 477.12 430.02 478.16Q417.74 481.75 405.46 482.51 393.18 480.36 380.89 475.53 368.61 468.54 356.33 460.14 344.05 451.24 331.77 442.81C329.27 441.24 326.81 437.57 327.28 435.94Q331.89 427.04 339.95 418.28 351.3 409.54 365.18 400.68 380.36 391.61 395.32 382.21 413.68 367.25 418.81 362.1" stroke-dasharray="1 4" transform="rotate(84.84, 400, 400)" opacity="0.85"></path><path d="M416.82 373.37C418.62 371.66 421.73 372.86 422.1 375.4Q422.6 387.9 421.3 400.1 418.87 411.96 416.17 423.43 414.06 434.48 413.39 445.1 414.85 455.26 418.9 464.95C419.93 466.66 418.92 469.28 416.95 469.75Q407.2 471.04 397.44 470.49 387.69 468.13 377.94 464.12 368.18 458.75 358.43 452.39 348.67 445.47 338.92 438.48C336.95 437.1 335.42 434.04 336.18 432.79Q341.73 425.86 349.53 418.9 359.33 411.85 370.67 404.65 382.86 397.24 395.15 389.59 411.77 377.5 416.82 373.37" stroke-dasharray="4 9" transform="rotate(88.88, 400, 400)" opacity="0.89"></path><path d="M412.53 384.63C414.18 383.36 416.49 384.27 416.45 386.19Q414.11 404.93 410.26 422.94 407.78 440.09 409.31 456.26C409.71 457.67 408.51 459.44 407.02 459.52Q392.4 458.02 377.78 452.7 363.15 444.38 348.53 434.34C347.04 433.29 346.28 430.96 347.16 430.02Q359.62 419.46 376.15 408.47 394.67 396.91 412.53 384.63 412.53 384.63 412.53 384.63" stroke-dasharray="7 4" transform="rotate(92.92, 400, 400)" opacity="0.92"></path><path d="M406.51 395.91C407.75 395.05 409.27 395.67 409.09 396.96Q406.83 409.6 404.35 421.93 402.5 433.91 402.09 445.51C402.14 446.54 401.06 447.6 400.07 447.46Q390.26 445.18 380.44 441.3 370.62 436.09 360.8 429.92C359.81 429.26 359.55 427.72 360.34 427.06Q370.18 419.72 381.62 412.1 400.26 400.04 406.51 395.91" stroke-dasharray="6 2" transform="rotate(96.96, 400, 400)" opacity="0.96"></path></g></svg>