<svg xmlns="http://www.w3.org/2000/svg" version="1.1" xmlns:xlink="http://www.w3.org/1999/xlink" xmlns:svgjs="http://svgjs.dev/svgjs" viewBox="0 0 800 800"><g stroke="#e22a97" fill="none" stroke-linecap="round"><circle r="364" cx="400" cy="400" stroke-width="16.5" stroke-dasharray="1670 2287" opacity="1.00"></circle><circle r="336" cx="400" cy="400" stroke-width="16.5" stroke-dasharray="1413 2111" transform="rotate(30, 400, 400)" opacity="0.92"></circle><circle r="308" cx="400" cy="400" stroke-width="16.5" stroke-dasharray="1177 1935" transform="rotate(60, 400, 400)" opacity="0.84"></circle><circle r="280" cx="400" cy="400" stroke-width="16.5" stroke-dasharray="963 1759" transform="rotate(90, 400, 400)" opacity="0.76"></circle><circle r="252" cx="400" cy="400" stroke-width="16.5" stroke-dasharray="771 1583" transform="rotate(120, 400, 400)" opacity="0.68"></circle><circle r="224" cx="400" cy="400" stroke-width="16.5" stroke-dasharray="599 1407" transform="rotate(150, 400, 400)" opacity="0.60"></circle><circle r="196" cx="400" cy="400" stroke-width="16.5" stroke-dasharray="449 1232" transform="rotate(180, 400, 400)" opacity="0.53"></circle><circle r="168" cx="400" cy="400" stroke-width="16.5" stroke-dasharray="321 1056" transform="rotate(210, 400, 400)" opacity="0.45"></circle><circle r="140" cx="400" cy="400" stroke-width="16.5" stroke-dasharray="214 880" transform="rotate(240, 400, 400)" opacity="0.37"></circle><circle r="112" cx="400" cy="400" stroke-width="16.5" stroke-dasharray="128 704" transform="rotate(270, 400, 400)" opacity="0.29"></circle><circle r="84" cx="400" cy="400" stroke-width="16.5" stroke-dasharray="64 528" transform="rotate(300, 400, 400)" opacity="0.21"></circle><circle r="56" cx="400" cy="400" stroke-width="16.5" stroke-dasharray="21 352" transform="rotate(330, 400, 400)" opacity="0.13"></circle><circle r="28" cx="400" cy="400" stroke-width="16.5" stroke-dasharray="0 176" transform="rotate(360, 400, 400)" opacity="0.05"></circle></g></svg>