<?xml version="1.0" encoding="UTF-8"?>
<svg id="Layer_2" data-name="Layer 2" xmlns="http://www.w3.org/2000/svg" viewBox="0 0 3747.25 3970.97">
  <defs>
    <style>
      .cls-1 {
        fill: #fff;
      }

      .cls-2, .cls-3 {
        fill: #f8961d;
      }

      .cls-3 {
        fill-rule: evenodd;
      }
    </style>
  </defs>
  <g id="Layer_1-2" data-name="Layer 1">
    <g id="Lights">
      <circle class="cls-1" cx="1493.97" cy="2477" r="1493.97"/>
      <circle class="cls-1" cx="2813.08" cy="1229.46" r="934.17"/>
      <path class="cls-3" d="M2809.64,1507.69c-93.48,0-178.14-37.9-239.42-99.16-61.27-61.27-99.15-145.94-99.15-239.42,0-52.48,12.03-102.25,33.45-146.77,20.24-41.98,48.88-79.15,83.73-109.35v-70.61c0-22.9,9.34-43.68,24.4-58.73,5.2-5.19,11.03-9.7,17.46-13.36v-53.71c0-22.06,9.67-41.95,25.21-56.29,15.01-13.76,35.51-22.3,57.9-22.3h9.14v-69.49c0-15.21,12.32-27.53,27.52-27.53h119.53c15.18,0,27.53,12.32,27.53,27.53v69.49h9.15c22.38,0,42.87,8.54,57.85,22.3,15.57,14.31,25.24,34.23,25.24,56.29v53.73c6.36,3.66,12.19,8.18,17.39,13.34h.09c15.05,15.05,24.39,35.83,24.39,58.73v70.61c34.86,30.2,63.49,67.37,83.74,109.35,21.42,44.52,33.44,94.32,33.44,146.77,0,93.48-37.92,178.15-99.19,239.42-61.28,61.27-145.89,99.16-239.41,99.16h0Zm287.16-12.48l71.73,71.71c10.75,10.73,28.18,10.73,38.93,0,10.75-10.71,10.75-28.19,0-38.9l-71.73-71.73c-10.75-10.76-28.19-10.76-38.93,0-10.75,10.75-10.75,28.17,0,38.93h0Zm-613.25-38.93l-71.69,71.73c-10.75,10.71-10.75,28.19,0,38.9,10.76,10.73,28.18,10.73,38.93,0l71.71-71.71c10.73-10.76,10.73-28.18,0-38.93-10.75-10.76-28.18-10.76-38.94,0h0Zm759.74-259.63c-15.23,0-27.53-12.36-27.53-27.54s12.3-27.52,27.53-27.52h107.18c15.16,0,27.53,12.32,27.53,27.52s-12.37,27.54-27.53,27.54h-107.18Zm-867.27-55.06c15.23,0,27.55,12.32,27.55,27.52s-12.32,27.54-27.55,27.54h-107.16c-15.18,0-27.54-12.36-27.54-27.54s12.37-27.52,27.54-27.52h107.16Zm406.08,461.14c0-15.21,12.36-27.54,27.54-27.54s27.53,12.33,27.53,27.54v99.11c0,15.23-12.32,27.54-27.53,27.54s-27.54-12.32-27.54-27.54v-99.11h0Zm-42.26-460.83v18.12c0,15.18-12.33,27.49-27.54,27.49s-27.53-12.32-27.53-27.49v-345.69h-13.41c-7.68,0-14.69,3.19-19.77,8.26-5.11,5.07-8.25,12.07-8.25,19.8v83.46c-.09,8.08-3.62,16.11-10.43,21.53-33.17,26.46-60.3,60.23-78.9,98.83-17.88,37.08-27.86,78.75-27.86,122.9,0,78.32,31.73,149.21,83.01,200.49,51.34,51.28,122.19,83.01,200.49,83.01s149.18-31.73,200.48-83.01c51.32-51.28,83.04-122.17,83.04-200.49,0-44.15-10.01-85.82-27.85-122.9-18.41-38.11-45.04-71.53-77.66-97.82-7.04-4.99-11.68-13.21-11.68-22.54v-83.46c0-7.72-3.18-14.73-8.25-19.8l.04-.04c-5.08-5.08-12.09-8.22-19.85-8.22h-13.37v345.69c0,15.18-12.35,27.49-27.54,27.49s-27.53-12.32-27.53-27.49v-18.12h-42.31v18.12c0,15.18-12.32,27.49-27.53,27.49s-27.54-12.32-27.54-27.49v-18.12h-42.26Zm42.26-73.17c0-15.19,12.36-27.49,27.54-27.49s27.53,12.3,27.53,27.49v18.1h42.31v-272.49h-139.65v272.49h42.26v-18.1h0Zm-4.67-430.72h64.46v-41.94h-64.46v41.94h0Zm-92.27,112.15h248.96v-33.57c0-6.04-2.82-11.68-7.36-15.87-5.16-4.7-12.44-7.65-20.65-7.65h-192.87c-8.22,0-15.5,2.95-20.65,7.65-4.54,4.19-7.42,9.83-7.42,15.87v33.57Z"/>
      <path class="cls-3" d="M1495.32,2979.76c-157.65,0-300.43-63.91-403.78-167.23-103.32-103.32-167.21-246.12-167.21-403.78,0-88.51,20.3-172.44,56.42-247.52,34.14-70.8,82.44-133.48,141.21-184.41v-119.08c0-38.62,15.75-73.66,41.15-99.04,8.76-8.76,18.6-16.36,29.45-22.54v-90.58c0-37.2,16.32-70.75,42.51-94.93,25.31-23.2,59.88-37.61,97.64-37.61h15.41v-117.19c0-25.66,20.77-46.43,46.41-46.43h201.59c25.59,0,46.43,20.77,46.43,46.43v117.19h15.43c37.74,0,72.31,14.4,97.56,37.61,26.26,24.13,42.57,57.73,42.57,94.93v90.62c10.72,6.18,20.56,13.8,29.32,22.49h.15c25.38,25.38,41.13,60.42,41.13,99.04v119.08c58.79,50.93,107.07,113.61,141.23,184.41,36.12,75.08,56.4,159.07,56.4,247.52,0,157.65-63.96,300.45-167.28,403.78-103.34,103.32-246.04,167.23-403.75,167.23h0Zm484.28-21.05l120.97,120.93c18.12,18.1,47.53,18.1,65.65,0,18.12-18.06,18.12-47.55,0-65.61l-120.97-120.97c-18.12-18.15-47.55-18.15-65.65,0-18.12,18.12-18.12,47.51,0,65.65h0Zm-1034.24-65.65l-120.91,120.97c-18.12,18.06-18.12,47.55,0,65.61,18.14,18.1,47.53,18.1,65.65,0l120.93-120.93c18.1-18.15,18.1-47.53,0-65.65-18.12-18.15-47.53-18.15-65.67,0h0Zm1281.29-437.85c-25.68,0-46.43-20.84-46.43-46.45s20.75-46.41,46.43-46.41h180.75c25.57,0,46.43,20.77,46.43,46.41s-20.86,46.45-46.43,46.45h-180.75Zm-1462.62-92.86c25.68,0,46.46,20.77,46.46,46.41s-20.77,46.45-46.46,46.45h-180.73c-25.59,0-46.45-20.84-46.45-46.45s20.86-46.41,46.45-46.41h180.73Zm684.84,777.7c0-25.66,20.84-46.45,46.45-46.45s46.43,20.79,46.43,46.45v167.15c0,25.68-20.77,46.45-46.43,46.45s-46.45-20.77-46.45-46.45v-167.15h0Zm-71.27-777.18v30.57c0,25.59-20.79,46.37-46.45,46.37s-46.43-20.77-46.43-46.37v-583h-22.62c-12.96,0-24.78,5.38-33.34,13.93-8.61,8.55-13.91,20.36-13.91,33.39v140.76c-.15,13.63-6.11,27.17-17.59,36.31-55.94,44.62-101.69,101.58-133.07,166.67-30.16,62.53-46.99,132.81-46.99,207.27,0,132.08,53.51,251.63,140,338.12,86.58,86.49,206.06,140,338.12,140s251.59-53.51,338.1-140c86.56-86.49,140.05-206.04,140.05-338.12,0-74.46-16.88-144.74-46.97-207.27-31.04-64.28-75.96-120.63-130.96-164.97-11.88-8.42-19.69-22.28-19.69-38.01v-140.76c0-13.02-5.36-24.84-13.91-33.39l.06-.06c-8.57-8.57-20.38-13.86-33.47-13.86h-22.54v583c0,25.59-20.83,46.37-46.45,46.37s-46.43-20.77-46.43-46.37v-30.57h-71.36v30.57c0,25.59-20.77,46.37-46.43,46.37s-46.45-20.77-46.45-46.37v-30.57h-71.27Zm71.27-123.41c0-25.62,20.84-46.37,46.45-46.37s46.43,20.75,46.43,46.37v30.52h71.36v-459.55h-235.51v459.55h71.27v-30.52h0Zm-7.88-726.4h108.7v-70.73h-108.7v70.73h0Zm-155.61,189.15h419.86v-56.61c0-10.18-4.76-19.7-12.42-26.76-8.7-7.92-20.99-12.89-34.83-12.89h-325.27c-13.86,0-26.13,4.97-34.83,12.89-7.66,7.06-12.51,16.57-12.51,26.76v56.61Z"/>
      <rect class="cls-2" x="1447.84" y=".99" width="92.26" height="1349.43"/>
      <rect class="cls-2" x="2784.27" width="57.61" height="562.43"/>
    </g>
  </g>
</svg>