<?xml version="1.0" encoding="UTF-8"?>
<svg id="Layer_2" data-name="Layer 2" xmlns="http://www.w3.org/2000/svg" viewBox="0 0 621 515.19">
  <defs>
    <style>
      .cls-1 {
        fill: #fff;
        fill-rule: evenodd;
      }
    </style>
  </defs>
  <g id="Layer_1-2" data-name="Layer 1">
    <g>
      <path class="cls-1" d="M490.41,469.28c-3.04-.13-8.96-6.23-11.76-7.87,2.57-.1,8.03,5.63,11.76,7.87"/>
      <path class="cls-1" d="M245.56,98.36c1.13-.75,4.15-2.15,7.67-3.31,3.5-1.2,7.46-2.13,10.2-2.73-4.75,1.86-11.71,3.89-17.87,6.05"/>
      <path class="cls-1" d="M252.86,427.24c-3.05-.23-5.5-1.08-7.98-2.13-2.48-1.07-5-2.32-8.29-3.72,1.92,.05,4.39,1.09,7.2,2.32,2.81,1.22,5.98,2.63,9.06,3.53"/>
      <path class="cls-1" d="M372.02,430.25c-27.23,1.73-46.5,.37-81.94,.72,24.22-2.17,59.51-.91,81.94-.72"/>
      <path class="cls-1" d="M274.55,430.25c3.31-.6,11.52-.6,14.83,0-2.77,1.67-10.89,.1-14.83,0"/>
      <path class="cls-1" d="M374.85,429.89c1.48,2.11,7.68-.53,10.6,1.8-4.81,.17-8.61-.17-12.71-.36,.29-.69,2.74-.29,2.12-1.44"/>
      <path class="cls-1" d="M197.98,344.5c-2.22-23.59-1.55-53.22-1.08-85.47,1.99,29.02,.58,57.14,1.08,85.47"/>
      <path class="cls-1" d="M199.63,374.83c-1.41-6.18-2.19-11.85-2.33-16.94l-.02-1.87,.02-1.47c.02-.97,.05-1.91,.1-2.82,.1-1.82,.28-3.52,.6-5.11-.09,1.79-.05,3.88,.02,6.08l.13,3.38c.05,1.4,.13,2.81,.24,4.2,.42,5.59,1.35,10.85,1.25,14.54"/>
      <path class="cls-1" d="M208.59,393.7c-1.34-1.58-2.96-3.98-4.42-6.86-1.45-2.88-2.73-6.24-3.5-9.56,1.43,2.89,2.28,4.88,3.27,7.26,1,2.36,2.13,5.14,4.65,9.17"/>
      <path class="cls-1" d="M412.28,430.97c-.13,.31,.28,.34,.71,.36-1.46,1.63-11.26,.21-12.71,.72,.85-2.73,9.1,.12,12.01-1.08"/>
      <path class="cls-1" d="M197.26,233.6c.36,3.42,.05,5.34,.36,10.59-1.28-1.01-.79-8.48-.36-10.59"/>
      <path class="cls-1" d="M248.53,93.82c.51-.91,2.72-1.72,5.18-2.33,2.46-.63,5.17-1.06,6.7-1.67-.73,.81-2.83,1.3-5.18,1.89-2.35,.58-4.97,1.26-6.7,2.11"/>
      <path class="cls-1" d="M329.35,116.94c3.78,.61,10.15,.38,15.54,.72,15.51,.99,38.8,3.02,52.27,1.8,6.72-.61,12.78-2.19,19.78-1.8,18.27,1.01,41.82,2.22,65.69,2.52l54.38,.79,1.42,.04,1.32,.08c.88,.07,1.76,.15,2.64,.27,1.75,.23,3.49,.56,5.21,1,3.43,.87,6.78,2.17,9.95,3.85,6.33,3.37,11.92,8.35,16,14.39,4.1,6.04,6.68,13.08,7.41,20.41,.08,.92,.16,1.84,.19,2.76l.11,3.58,.22,7.65,.48,15.33c.67,20.48,1.46,41.04,2.44,61.4,1.64,34.33,1.86,70.01,3.56,100.94l.15,2.79c.03,.76,.04,1.5,.04,2.24,0,1.48-.09,2.93-.23,4.35-.29,2.84-.83,5.56-1.57,8.16-1.5,5.19-3.83,9.9-6.9,14.13-3.08,4.23-6.92,8-11.66,11.1-4.73,3.09-10.4,5.51-17.01,6.6-2.03,.33-4.1,.52-6.18,.54l-12.41-.02-26.49-.24-.43,33.18-.42,19.2-.14,9.72-.02,2.44,8.03,.14h.02s0,0,0,0c0,0-.02,0-.01,0h.02s0,.01,0,.02c.02-.03-.05,.04,.06-.05,.04-.03,.09-.06,.13-.08l-.23,.11-.14,.07-.07,.03c-.21,.11,.26-.14,.21-.12h0s0,0,0,0v.02s.02,.03,.02,.03c0,0,0-.03,0-.02,0,0,0,.02,0,.02,.03,0-.04-.03,.05,.02,.07,.02,.28,.19,0-.02l-.12-.1-.06-.05-.03-.02h-.01c2.22-2.81-5,6.24,4.98-6.3l-.25-.18-.5-.37c-2.66-1.95-5.35-3.89-8.05-5.81-12.14-8.63-23.57-16.82-34.64-24.9-5.54-4.04-10.98-8.05-16.38-12.07l-19.96-15.01-9.17-.07-5.9-.08-10.37-.23c-53.13-1.35-86.84-.44-127.85,.36l-7.54,.14-3.76,.06-1.59,.02-1.44-.02c-3.84-.13-7.65-.74-11.31-1.82-7.33-2.15-14.07-6.2-19.44-11.59-5.38-5.38-9.35-12.05-11.51-19.2-1.08-3.58-1.73-7.27-1.92-10.98-.05-.94-.07-1.84-.07-2.82v-3.6s.03-7.19,.03-7.19c.12-38.26,.25-75.32-.55-110.87-.26-11.51-.33-23.09-.3-34.66l.12-17.34,.23-17.07c.27-8.97,3.17-17.58,8.01-24.74,4.82-7.18,11.53-12.83,18.94-16.46,3.42-1.66,6.67-3.03,10.2-4.19,1.77-.58,3.6-1.1,5.58-1.53,.98-.23,2-.41,3.06-.58l.8-.12c.28-.04,.51-.08,.89-.11l2.08-.22c15.58-1.63,31.72-2.65,31.79-7.56-2.88,.79-3.63,.41-2.12-1.08-7.87-.95-8.61-1.84-.71-3.6-2.97-.77-6.31,1-11.3,.36,.48-1.34,5.16-1.96,7.77-1.08-3.57-3.35,8.98-6.25,10.6-4.68,.35-5.07-9.12-3.05-13.42-3.96,.53,.11-.23-2-.7-2.16-2.98-1.02-10.22-.51-17.69,.27l-5.58,.62-2.99,.34c-1.03,.13-2.04,.27-3.01,.44-3.87,.64-7.14,1.47-9.33,1.96-7.15,1.57-14.1,4.27-20.49,7.98-6.39,3.72-12.23,8.45-17.21,13.99-9.99,11.05-16.42,25.54-17.72,40.58-.17,1.88-.27,3.76-.28,5.64v4.98s-.02,9.8-.02,9.8l.04,19.58c.06,13.03,.18,26,.44,38.83,.58,28.61,.62,58.02,.63,87.82v22.42s.01,5.62,.01,5.62l.02,2.97c.02,1.06,.06,2.13,.14,3.19,.28,4.25,.96,8.49,2.03,12.63,2.15,8.28,5.89,16.15,10.95,23.04,5.05,6.89,11.4,12.82,18.63,17.34,8.14,5.12,17.31,8.49,26.71,9.9,2.35,.35,4.71,.58,7.08,.69,1.17,.05,2.39,.08,3.52,.08h3.15s12.57,.05,12.57,.05c16.71,.09,33.24,.32,49.55,.58l48.24,.78,23.55,.28,20.02,.12,10.39,7.68c4.28,3.14,8.54,6.23,12.79,9.28,8.49,6.1,16.93,12.01,25.31,17.7-7.3-7.31-17.7-11.73-23.35-18.31,16.39,11.35,31.41,22.18,47.13,34.1l1.47,1.12,.74,.56,.57,.41,.1,.07,.23,.15,.47,.29c.34,.21,.58,.32,.85,.46,.26,.14,.54,.26,.81,.37,.55,.24,1.12,.43,1.69,.59,1.15,.32,2.35,.5,3.56,.52,1.21,.02,2.42-.11,3.6-.41,1.16-.28,2.38-.77,3.34-1.29,2.25-1.23,4.03-2.94,5.34-5.08,1.29-2.11,2.04-4.61,2.08-7.13l.09-3.97,.21-7.98,.56-16.71,.08-2.17,.04-1.09,.02-.41,.02-.31,.18-2.45,.4-4.75c.16,1.63,.24,3.22,.25,4.86,0,.82,0,1.64-.02,2.49l-.09,4.64c-.17,6.7-.48,13.74-.74,20.76l-.18,5.25-.04,1.31-.03,.92c-.02,.45-.07,.89-.12,1.33-.24,1.77-.81,3.48-1.63,5.04-.83,1.55-1.94,2.95-3.24,4.12-.33,.28-.66,.57-1.01,.83l-.53,.38-.69,.44-.35,.21-.19,.1-.28,.15-.31,.16-.14,.07-.29,.13c-.2,.09-.39,.18-.59,.26-3.2,1.29-6.79,1.41-9.99,.42-.8-.25-1.58-.55-2.33-.93-.34-.16-.82-.44-1.26-.71l-.42-.27-.25-.17-2.18-1.56c-1.31-.92-2.6-1.81-3.88-2.66-2.56-1.7-5.05-3.25-7.46-4.59l7.8,6.17,4,3.14,.5,.39,.77,.57c.4,.27,1.06,.68,1.47,.89,.42,.22,.85,.44,1.29,.63,1.76,.77,3.66,1.21,5.6,1.31,1.93,.11,3.89-.14,5.75-.72,.47-.14,.92-.32,1.38-.5l.67-.3,.17-.08,.08-.04,.04-.02,.31-.16,.14-.08,.29-.15c.22-.12,.53-.31,.78-.46,.59-.36,.9-.61,1.31-.91,3.12-2.4,5.33-5.96,6.09-9.87,.2-.97,.29-1.97,.31-2.96l.02-1.38,.04-2.63,.08-5.27,.26-20.97,.2-10.31,12.7,.2,1.45,.03c.92,0,1.9,0,2.83-.03,1.88-.06,3.71-.18,5.49-.37,3.56-.38,6.91-1,10-1.78,8.61-2.15,16.66-6,23.64-11.08,6.98-5.09,12.89-11.42,17.43-18.49,4.55-7.06,7.73-14.85,9.46-22.83,.87-3.99,1.38-8.03,1.54-12.06,.08-2.01,.08-4.02-.02-6.03l-.29-5.23c-1.54-27.44-3-53.92-3.24-80.42-.19-21.23-1.8-41.64-2.96-63.51-.41-7.72-.71-15.06-.94-22.19l-.56-21.11c-.74-15.58-6.63-30.96-17.92-43.31-7.07-7.7-15.6-13.54-24.84-17.34-4.62-1.9-9.42-3.29-14.31-4.16-2.44-.43-4.91-.73-7.38-.91-1.24-.09-2.48-.15-3.72-.16l-3.35-.03c-17.23-.12-34.83-.31-54.42-.76-39.39-.91-78.99,2.23-116.54,1.44-12.93-.27-23.57-.55-37.44,1.08,18.32,5.23,53.79,1.8,75.58,4.32-14.3,0-32.92,.37-47.32,.36-3.6,0-7.18-1.07-10.6-.36-1.97,.41-3.17,2.22-4.94,2.52-7.03,1.18-14.36-1.3-19.78,.72,1.54,1.61,7.14-.45,7.06,1.44-1.44-.31-4.39,.31-2.12,.72,1.67,1.65,10.5,2.79,19.07,3.24-8.97,.87-21.18,2.72-32.49,4.32,7.66-.43,13.59,1.38,18.36,2.16m253.55,71.94c1.26,11.4,1.53,26.59,2.04,37.39-1.8-11.59-1.94-26.09-2.04-37.39m-53.66-69.42l7.34-.16,1.61-.02c.48-.01,.95,.02,1.43,.02,.95,.04,1.91,.09,2.86,.19,3.81,.38,7.6,1.27,11.23,2.68,7.26,2.78,13.83,7.63,18.77,13.79,4.95,6.16,8.22,13.57,9.47,21.27,.33,1.93,.51,3.87,.59,5.83l.16,7.39c.12,5.21,.26,10.41,.44,15.59-.38-5.41-.71-10.69-.99-15.88l-.2-3.87-.09-1.92c-.04-.47-.05-.95-.1-1.41-.16-1.88-.4-3.73-.77-5.54-1.44-7.24-4.5-13.95-8.96-19.74-4.46-5.78-10.33-10.61-17.3-13.83-3.49-1.6-7.23-2.81-11.2-3.5-1.98-.36-4.02-.56-6.1-.65l-8.21-.23Zm59.95,227.52c-1.82-10.31-.64-19.14-1.63-35.99,.06-1.7-.59-8.05,.14-6.36l.3,8.47c.92,8.97,.38,19.28,1.19,33.88m-3.17-79.75l-.5-14.12c.73,4.55,.98,14.87,1.08,20.46,.21,11.14-.33,3.13-.58-6.34M451.55,118.38c14.7-1.04,33.97,.22,48.74,.36-14.77,1.33-31.54-.05-48.74-.36m-213.88,13.64c-2.69,4.16-6.01,7.85-8.55,11.95-1.11,1.81-1.46,2.48-1.46,2.37,0-.11,.4-.98,1.01-2.1,.6-1.13,1.43-2.49,2.2-3.65,.77-1.15,1.48-2.09,1.74-2.46l2.52-3.46c.68-.91,1.37-1.69,2.53-2.65m336.18,286.06c-2.07,1.29-6.31,3.29-10.49,4.5-4.17,1.25-8.19,1.76-9.37,1.56,3.47-.67,6.53-1.41,9.68-2.33,3.15-.93,6.41-2.04,10.19-3.72m-33.31,6.77c-1.55,.27-3.05,.59-4.78,.73-1.74,.14-3.69,.09-6.53-.37-.41-.07-.68-.12-.84-.17-.05,.04-.08,0-.12-.12,.31-.13,2.54-.12,5.1-.09,2.56,.03,5.42,.07,7.16,.02"/>
      <path class="cls-1" d="M200.5,352.27c-1.08-11.26-.37-20.95-.72-32.49,1.13,9.99,.91,24.61,.72,32.49"/>
      <path class="cls-1" d="M335.71,92.47c17.52-3.45,40.95-1.96,65.69-2.88,43.79-1.62,88.72-1.29,133.69-.63l2.11,.03c.79,.02,1.75,.03,2.62,.07,1.78,.07,3.55,.22,5.32,.41,3.54,.41,7.06,1.05,10.51,1.94,6.9,1.78,13.54,4.53,19.65,8.13,12.23,7.18,22.29,17.76,28.85,30.17,3.29,6.2,5.7,12.85,7.16,19.67,.74,3.41,1.22,6.87,1.49,10.33,.13,1.67,.2,3.63,.23,4.87l.12,4.17c.33,11.11,.71,22.17,1.17,33.16l5.75,131.48,.73,16.8,.09,2.11,.04,1.05,.04,1.33c.04,1.78,.03,3.57-.06,5.36-.15,3.57-.58,7.14-1.23,10.67-2.63,14.11-9.34,27.53-19.26,38.17-9.87,10.67-22.92,18.48-37.15,22.15-3.56,.91-7.19,1.59-10.85,1.99-1.83,.2-3.67,.34-5.51,.41-.92,.05-1.84,.05-2.77,.06h-.7s-5.24,.02-5.24,.02h-1.38c-.02,.41-.08,.81-.16,1.29l-.03,.18-.03,1.71-.07,3.99-.17,7.95-.39,15.83-.05,1.97v.49s-.06,1.29-.06,1.29c-.06,1.04-.19,2.08-.39,3.1-.8,4.09-2.72,7.92-5.48,11-.69,.77-1.43,1.49-2.22,2.16-.39,.34-.79,.66-1.21,.96l-.63,.45c-.2,.14-.55,.37-.83,.54l-.89,.53-.29,.16-.11,.06-.22,.11-.05,.03-.51,.27-.09,.04-.35,.16c-.93,.43-1.89,.8-2.87,1.11-3.93,1.23-8.16,1.37-12.12,.42-1.98-.47-3.9-1.21-5.69-2.19-.51-.28-1.16-.67-1.7-1.04l-.28-.19-.1-.07-.2-.14-.54-.39-.1-.08-.19-.15-.38-.3-3.07-2.4-6.12-4.78-12.2-9.41c-8.12-6.2-16.21-12.23-24.31-18,7.47,4.68,15.24,10.01,23.26,15.77,4.01,2.88,8.08,5.88,12.2,8.96l6.22,4.68,3.14,2.38,1.58,1.2,.79,.6,.2,.15,.59,.43,.2,.15,.68,.44c.54,.34,1.13,.68,1.51,.86,.43,.22,.86,.43,1.3,.62,.88,.39,1.79,.71,2.72,.97,1.85,.52,3.78,.79,5.72,.79,1.93,0,3.88-.26,5.75-.79,.94-.26,1.86-.59,2.75-.98l.66-.3,.17-.08,.08-.04,.47-.24,.11-.06,.22-.12,.15-.08,.42-.25,.83-.51,.4-.26,.3-.21c.39-.29,.79-.58,1.16-.89,.76-.62,1.47-1.3,2.14-2.02,1.33-1.44,2.46-3.07,3.35-4.83,.89-1.75,1.53-3.64,1.91-5.59,.19-.97,.31-1.96,.36-2.95l.04-1.13v-.51s.32-16.42,.32-16.42l.28-15.25c.08-1.11,.13-2.14,.16-3.19,2.81,.03,5.51,0,8.28-.13l.62-.02,1.17-.02c1.34-.01,2.69-.05,4.04-.13,2.72-.15,5.47-.43,8.21-.85,5.47-.83,10.88-2.27,15.83-4.19,4.95-1.92,9.43-4.33,13.1-6.91,3.68-2.58,6.56-5.31,8.47-7.77,2.15-2.79-2.35,1.31-.34-1.64,1.2-1.8,3.41-4.38,5.88-7.62,2.48-3.23,5.19-7.15,7.56-11.41,2.38-4.25,4.39-8.83,5.8-13.11,1.43-4.27,2.26-8.23,2.65-11.14,.49-3.65,.71-7.34,.64-11.04-.05-1.98-.13-3.4-.2-4.96l-.22-4.65-.86-18.78-1.69-38.29c-1.1-25.82-2.16-52.19-3.1-78.87l-1.33-40.22-.15-5.05-.04-1.27-.06-1.49c-.06-.99-.12-1.99-.22-2.98-.36-3.98-1.06-7.93-2.09-11.81-2.04-7.76-5.41-15.18-9.9-21.86-8.95-13.37-22.48-23.68-37.95-28.68-3.86-1.25-7.83-2.2-11.84-2.79-2.01-.3-4.03-.52-6.05-.65-1.01-.06-2.03-.11-3.04-.13l-2.63-.06-20.23-.46c-14.39-.36-28.94-1-43.09-1.08-47.27-.28-90.25,3.93-136.32,1.08"/>
      <path class="cls-1" d="M197.26,255.5c-1.06-.62-.05-7.8,0-9.18,.32,2.04,.56,6.2,0,9.18"/>
      <path class="cls-1" d="M209.3,121.88c-3.06,5.05-7.33,12.75-9.97,21.77-1.34,4.49-2.29,9.26-2.72,13.95-.22,2.35-.31,4.67-.29,6.93l.03,1.62,.06,1.32,.13,2.56c-.14-.8-.27-1.61-.38-2.43-.11-.85-.22-1.55-.29-2.71-.15-2.12-.18-4.31-.06-6.53,.23-4.43,1-8.98,2.24-13.37,1.24-4.39,2.93-8.61,4.88-12.5,1.96-3.89,4.15-7.45,6.36-10.61"/>
    </g>
    <g>
      <path class="cls-1" d="M194.26,195.89c-1.85-5.61-2.99,8.17-5.17,11.89,2.49-11.63,5.6-22.71,8.64-33.92l2.26-8.43c.37-1.37,.74-2.91,1.2-4.41,.45-1.49,.93-2.98,1.48-4.45,2.16-5.87,5.07-11.5,8.69-16.83-.82,3.65-2.55,7.69-4.37,12.28-.92,2.29-1.85,4.72-2.72,7.27-.89,2.54-1.61,5.27-2.39,7.87-3.1,10.52-6.79,21.17-7.63,28.73"/>
      <path class="cls-1" d="M222.05,128.66c-1.11,1.52-3.15,3.71-5.11,5.78-1.97,2.07-3.88,4.02-5.14,4.66,3.28-4.36,7.62-8.71,10.25-10.44"/>
      <path class="cls-1" d="M322.54,109.97c1.95-1.72,5.96,1.11,9.57,1.25-2.72,.97-5.59-.6-9.57-1.25"/>
      <path class="cls-1" d="M162.57,346.1c-.81-1.11-2.09-5.02-2.65-8.53-.59-3.51-.55-6.52,.09-5.7,.46,1.46,.66,3.81,.99,6.41,.33,2.6,.8,5.45,1.57,7.82"/>
      <path class="cls-1" d="M321.76,421.66c-2.57,1.41-10.08-1.35-14.76-1.72,3.04-1.54,11.55,1.93,14.76,1.72"/>
      <path class="cls-1" d="M278.71,136.88c5.47-1.02,8.33,7.76,12.12,3.89,.66,3.1,10.82,3.26,13.07,2.75-1.09,.25,5.86-3.44,4.83-1.78,3.27-5.33-13.53-6.57-13.84-11.21,.01,.24,4.54-1.81,4.18-2.33-1.82-2.57-8.03-.78-8.84-1.12-1.98-.82,.39-2.13-.94-3.23-1.32-1.11-6.39-2.35-11.57-3.43l-3.85-.78c-1.17-.23-2.28-.42-3.32-.56-2.05-.28-3.72-.41-4.57-.53-5.1-.73-10.75-.68-16.47,.39-5.72,1.05-11.49,3.12-16.81,6.1-5.32,2.97-10.16,6.86-14.19,11.26-4.04,4.4-7.26,9.3-9.62,14.19-1.78,3.67-3.23,7.55-4.31,11.57-1.02,4.05-1.9,8.11-2.9,12.2-1.96,8.17-4.03,16.42-6.2,24.75-4.32,16.66-8.99,33.65-13.74,50.98-4.75,17.33-9.59,35.01-14.26,53.06l-1.75,6.78c-.65,2.63-1.18,5.51-1.53,8.33-.7,5.68-.73,11.52-.03,17.34,1.39,11.64,5.72,23.13,12.67,33.04,5.54,7.95,12.83,14.9,20.82,20.02,7.98,5.16,16.59,8.48,24.4,10.24l36.86,7.45,35.28,7.03,34.38,6.75,16.91,3.27,4.2,.81,2.1,.4,.25,.05,.12,.03,.24,.06,1.86,.45,.74,1.16,.36,.57,.2,.31,.86,1.23,6.87,9.79,13.69,19.42c9.12,12.88,18.21,25.63,27.34,38.33l3.42,4.76,1.71,2.38,.66,.9,.6,.77c.44,.56,.7,.85,1.02,1.21,1.25,1.39,2.64,2.66,4.14,3.77,5.99,4.48,13.81,6.38,21.2,5.12,.46-.08,.92-.17,1.37-.26l.17-.04,.88-.22,.09-.02,.18-.05,.79-.23c.61-.19,1.22-.39,1.82-.61,.33-.12,.52-.2,.74-.29l.65-.28c.43-.19,.85-.38,1.27-.6,.83-.42,1.65-.88,2.44-1.38,3.16-2,5.88-4.64,8-7.71,2.12-3.07,3.62-6.59,4.35-10.24l.18-.93,.06-.36,.12-.72,.25-1.45,.99-5.78,1.96-11.58,1.93-11.6,.96-5.81,.48-2.91,.12-.73,.03-.21v-.08s.05-.32,.05-.32l.6-5.44,4.81,.62c1.62,.21,3.63,.92,5,1.52,1.39,.61,2.2,1.12,1.99,1.03,.46,.19,.91,.33,1.37,.42l.39,.07,1.26,.19c.84,.13,1.69,.21,2.55,.29,3.44,.31,7,.29,10.69,.04,7.41-.53,15.32-1.93,24.41-4.24,.2-.05,.19,1.27,.4,1.23,6.63-1.15,11.13-3.72,12.64-4.53,.76-.42,.82-.41,.05,.29-.78,.68-2.36,2.07-5.11,4.19,11.56-5.63,21.64-13.38,29.7-22.71,8.07-9.31,14.1-20.21,17.58-31.91,.87-2.92,1.57-5.89,2.12-8.9,.14-.75,.26-1.5,.37-2.26l.28-1.91,.46-3.29c.61-4.39,1.19-8.8,1.74-13.22,1.09-8.85,2-17.79,2.57-26.92,1.5-24.13,3.43-52.73,6.79-76.17,.87-6.03,1.69-12.09,2.48-18.17l1.15-9.13,.3-2.46c.12-.99,.21-1.98,.29-2.97,.15-1.99,.22-3.98,.22-5.98,0-7.99-1.29-15.98-3.75-23.55-2.45-7.57-6.09-14.71-10.67-21.1-9.15-12.81-22.23-22.54-36.7-27.63-3.61-1.28-7.3-2.28-11.02-3-.93-.18-1.86-.35-2.79-.49l-1.23-.18-1.12-.16-4.46-.64-17.68-2.57c-25.97-3.84-45.97-7.63-69.19-9.13-1.68,.94-33.53-4.72-56.62-7.79-9.96-1.33-20.49-4.35-27.76-4.9-2.19-.17-3.9,.93-5.41,.8-6.66-.6-8.6-2.38-16-3.26-16.56-1.97,7.27,6.58,10.79,7.16-3.29,.67-24.33-7.36-26.95-5.19-3.42,2.83,8.54,4.31,11.82,5.59,.84,.33-.12,1.47,.43,1.83,2.52,1.66,14.21,3.17,20.88,5.44,9.83,3.34,17,6.35,23.43,8.08,7.6,2.04,18.05,2.07,28.57,4.6,18.13,4.36,44.44,9.05,60.47,11.54,15.27,2.37,30.78,5.01,45.23,7.49l20.68,3.53c5.8,1.01,11.02,2.87,15.47,5.08,3.89,1.92,7.83,4.7,11.29,8.07,3.47,3.36,6.46,7.3,8.78,11.29,2.33,4,4.02,8.04,5.25,11.63,1.24,3.59,2.06,6.71,2.85,9,.6,1.77,2.42,2.59,2.61,4.47,.1,.93-1.56,3.02-1.65,4.08-.09,1.35-.08,2.72,0,4.02,.08,1.31,.21,2.49,.38,3.67,.34,2.26,.88,3.62,1.17,3-1.92,1.46-2.57,10.45,.42,9.78-5.4,.75-2.11,10.69-3.04,16.06-.23,1.32-2.23,7.27-2.34,10.91-.05,1.72,3.06,3.81-.27,5.2-.53,.22-.43,3.68,.92,6.11-.48-.29-1.22-3.18-2.04-1.03,.19,2.53,.07,6.12,1.45,5.44-1.45-.7-4.29,8.72-3.63,10.74,.64,1.95,2.18-1.75,2.04,1.02-.02,.45-3.32,12.38-3.5,13-1.06,3.75,.79,7.87,.43,9.78-.37,1.96-2.46,1.87-2.73,4.12-2.46,20.2-.68,43.62-4.16,56.31,.64,.63,1.3-.1,1.83-.68,.54-.57,.98-.98,1.27,.43-1.88,.76-3.18,3.01-4.07,5.5-.88,2.5-1.4,5.29-1.21,7.31-1.08-.74-1.34,.1-1.78,1.58-.44,1.47-1.12,3.63-2.92,5.28,.55,.83,2.95,.56,2.25,2.15-1.76-.26-3.58,.6-5.11,1.93-1.53,1.34-2.8,3.15-3.42,5.03,.03-.08,.96,1.2,1.3,2.42,.34,1.2,.05,2.38-2.19,1.83-.4-.11,.52-2.95-.57-2.57,.17,.21,.32,.43-.18,.83-.36-.1-.64-.56-1.14-.05,.79,.83,1.41,2.28,1.39,3.37,0,1.1-.66,1.82-2.22,1.1,.81,.05,1.03-1.36,.84-2.38-.19-1.03-.71-1.68-1.26-.21,0,1.53-1.66,5.26-4.38,8.32-2.67,3.09-6.29,5.39-8.48,4.77,.03,.83-2.08,2.97-5.13,4.71-3.02,1.74-6.96,2.97-9.71,2.63,.45,.79-.42,1.09-1.71,1.51-1.29,.42-2.97,.9-4.24,2.19-.65-.83,.74-1.37,1.91-1.95,1.18-.58,2.12-1.2,.76-1.96-1.51,1.58-5.1,2.13-8.33,2.03-3.25-.08-6.1-.76-6.57-.69-2.24,.35-2.2,1.18-2.43,1.76-.22,.55-.78,.87-4.2-.28-.22-.08-.57-.77-1.13-1.39-.46-.61-1.09-1.14-2.04-.91-1.04,.26-2.66-.21-4.74-.56-2.05-.35-4.6-.58-6.76,.29-1.16-2.28-2.27-2.68-3.13-2.53-.87,.15-1.47,.86-2.05,.74-3.12-.67-6.44-1.4-9.62-1.98-.88,4.82-1.49,9.99-.89,14.12,.16,1.13,.14,2.72,.02,4.49l-.11,1.35-.07,.7-.12,.94-.57,4.07c-.81,5.43-1.74,10.54-2,11.97-.7,3.82-1.58,7.86-2.58,12.01-.5,2.08-1.03,4.18-1.57,6.3l-1.82,6.89c-1.22,4.02-4.35,7.26-8.1,8.64-3.73,1.43-7.98,.95-11.16-1.01-1.59-.96-2.96-2.3-3.92-3.77l-1.67-2.84-3.17-5.36c-6.55-10.98-15.3-20.84-23.39-32.52-1.36-1.97-2.07-8.16-6.41-8.18,1.04-4.74-4.96-7.43-6.58-9.89-1.36-2.06-3.36-9.57-7.11-7.67,1.04-1.51-.63-5.21-3.16-9.08-.32-.48-.65-.97-.99-1.46l-.99-1.37c-.64-.86-1.3-1.7-1.96-2.48-1.31-1.56-2.57-2.87-3.57-3.7-.87,.03-1.6,.11-2.13,.23-1.4-1.71-5.67-3.31-10.77-4.32-4.9-.97-9.79-1.21-11.97-.13,.31-3.76-7.31-2.83-9.92-3.51-6.91-1.77-9.29-2.99-16.65-3.81-14.54-1.62-38.85-9.95-46.17-7.27,.95-2.71-4.44-2.52-6.27-2.86-6.79-1.25-19.97-5.98-24.61-5.65-.91,.06,1.3,1.62-.22,1.27-3.88-.89-6.96-1.87-9.87-2.8-2.91-.97-5.68-1.89-9.28-2.69,.17,.04,1.41-.4,1.67-.29-8.44-3.76-15.71-8.81-21.81-15.34-6.05-6.52-10.95-14.64-13.35-24.39-.34-.03-1.21,1.71-1.46,1.17-1.16-3.6,2.36-.75,1.34-3.32-.48-1.28-1.78-.16-1.87-2.5,1.61,2.29,2.04,.81,1.94-.87-.11-1.69-.69-3.74-1.65-2.78,1.64-2.76,.03-2.63-.88-5.62,1.24,1.16,2.5-.49,1.7-2.13-1.96-.52,.67,1.9-1.29,1.4,0-.71-.36-.84-.44-1.42,1.23-2.52,2-6.25,2.98-9.94,.97-3.9,1.67-7.71,2.3-9.76-.55,.68-1.1,1.33-1.66,1.96,.88-2.45,.11-4.76,1.42-8.03,.41,2.83-.97,4.19,.8,5.41,2.77-12.58,1.56-12.52,4.62-18.77-1.19,0-2.17,.59-2.94,1.74,3.4-5,3.21-4.07,5.33-10.35-6.86-.42,7.38-11.8,2.41-16.15,1.25-1.31,1.05,.17,2.34-3.35-.83-1.64-2.09,.42-2.42-1.18,3.43,.21,3.54-1.12,3.58-5.39,0-.26-.66,1.51-.68,1.38-.7-3.52,6.54-7.06,1-8.11,3.58-.65,3.53-4.98,4.52-8.24-2.99,1.35-.43,5.08-3.29,6.2,2.74-7.05,.74-9.42,6.37-16.2-4.5-1.62,5.13-5.84,2.15-14.69,1.4-.28,.91-.37,2.13,.37-.78-7.3,3.23-13.93,5.31-20.15,.92-2.75,1.66-8.61,2.19-12.42,.58-4.23,5.05-5.9,2.1-9.42,1.42,.4,1.98-.6,2.85-1.08-.45-.63-1.47-.83-1.33-1.92,2.06-1.7,2.91-3.86,3.78-6.11,.85-2.24,1.73-4.58,3.39-6.06-.13,1.66-1.14,2.03-.2,2.82,1.45-2.06-.25-3.14,.66-5.02,1.15,1.4,2.33,.43,3.46-.76,1.12-1.2,2.24-2.67,2.76-2.57-.88,.72-1.66,.02-.92-.92,1.66,.36,2.77-.08,3.66-.88,.89-.79,1.57-1.95,2.25-2.97-3.07,1.66-3.31,1.81-2.75,1.07,.57-.71,2.07-2.08,2.61-3.07,.7,.74,1.46,1.26,2.44,1,.27-1.09-1.18-1-.25-2.37,2.02,2.93,3.22,.61,4.48-1.33-.33,.85-1.27,2.04,0,2.37,1.72-.59,3.27-2.21,4.56-3.22,1.28-1.02,2.15-1.44,2.08,.34,1.56-.39,1.29-1.78,3.09-2.01,.58,1.24-1.18,1.06-.56,2.3,2.18-.59,3.78-.5,5.11-.53,1.35-.02,2.44-.18,3.88-1.07-.53,2.13,1.53,2.02,2.62,2.78-.59-2.59,.08-3.24,1.03-2.81,.46,.23,.97,.72,1.35,1.38,.1,.16,.18,.34,.27,.52,.12,.19,.27,.39,.38,.6,.23,.41,.4,.84,.49,1.28,.54-.65,1.17-2.24-.13-3.53,2.57,2.91,4.96-.11,3.2,3.19,4.91,2.08,.82-1.3,4.1-1.91m-12.68-4.51c1.12,1.66,1.21,.2,1.61-1.01,.2-.6,.47-1.15,.97-1.2,.5-.04,1.24,.41,2.22,1.83,.27-.03,.5-.11,.7-.23,.18-.12,.48-.23,.68-.37,.45-.27,.89-.55,1.55-.65-5.15,3.99,4.5,1.7,4.23,1.62,5.93,1.64,1.38,4.5-2.94,3.87-.23-.03-.87-.21-1.75-.5l-1.47-.5-.8-.29-.57-.26c-1.56-.74-3.37-1.54-4.43-2.32"/>
      <path class="cls-1" d="M183.62,226.4c-2.7,16.79-6.75,31.75-11.19,47.01l-6.85,23.38c-1.15,4.02-2.3,8.13-3.43,12.35l-.23,.93-.23,1.02c-.15,.68-.29,1.37-.43,2.06-.27,1.38-.49,2.79-.68,4.21-.37,2.84-.58,5.77-.59,8.75-.28-4.96,.01-10.05,.88-15.09l.35-1.85,.31-1.47,.64-2.96,1.35-5.96c1.87-7.98,4.02-16.1,6.28-24.23,4.52-16.27,9.53-32.62,13.83-48.13"/>
      <path class="cls-1" d="M162.45,347.16c1.31,3.25,2.74,6.84,4.43,10.5,1.69,3.65,3.65,7.37,5.9,10.83,4.45,6.95,10.15,12.79,15.33,15.49,2.21,1.16,3.77,2.7,5.43,4.37,1.66,1.66,3.43,3.44,5.97,4.85,2.95,1.63,5.28,2.38,7.94,3.27,2.68,.87,5.69,1.9,10.4,3.54,1.22,.42,2.51,.8,3.85,1.15,.67,.17,1.35,.33,2.04,.48l1.68,.36c2.17,.45,4.45,.87,6.81,1.28,4.71,.8,9.74,1.53,14.76,2.27,10.04,1.49,20.09,3.09,27.68,5.61,6.81,2.27,20.26,5.94,30.88,8.52-24.4-5-47.95-9.55-71.88-14.35l-9-1.81-2.72-.56c-1.01-.22-2.01-.46-3.01-.72-2-.52-3.99-1.12-5.96-1.79-7.86-2.7-15.36-6.66-22.08-11.73-13.45-10.12-23.75-24.74-28.45-41.55"/>
      <path class="cls-1" d="M351.73,427.83c-.11,.03-.23,.05-.34,.07l-3.42-.54c-2.4-.4-4.98-.87-7.63-1.38-5.3-1.02-10.87-2.22-15.73-3.37,6.5,.62,11.29,1.49,15.8,2.49,2.25,.5,4.44,1.03,6.72,1.57l3.53,.82,.46,.1c.14,.03,.37,.08,.32,.08l.09,.06,.19,.1Z"/>
      <path class="cls-1" d="M352.11,428.33c.11-.12,.21-.2,.29-.25,.21-.05,.28,.22,.34,.43,.03,.11,.06,.21,.12,.28,.03,.04,.06,.06,.11,.08h.04s0,0,.1,.1c.14,.15,.28,.3,.42,.44-.16-.07-.32-.15-.48-.25-.07-.04-.18-.13-.22-.13l-.09,.04c-.12,.04-.21,.08-.28,.09-.15,.03-.22,.02-.26-.04-.07-.12-.02-.43-.02-.68-.02-.05-.04-.09-.06-.12"/>
    </g>
    <g>
      <path class="cls-1" d="M30.55,213.48c-1.69-1.33-1.47-4.14-.9-6.94,.57-2.81,1.48-5.59,1.02-7.1,2.5,3.73,.09,9.99-.12,14.04"/>
      <path class="cls-1" d="M38.68,168.28c1.37-4.29,3.41-8.91,5.71-13.41,2.31-4.5,4.89-8.88,7.27-12.82,7.21-11.96,15.14-23.39,23.91-34.11,8.77-10.71,18.4-20.69,28.88-29.63,5.43-4.64,11.3-9.94,17.58-14.56,6.26-4.62,12.93-8.54,19.37-10.54,1.26-.38,4.27-1.98,8.16-4.08l13.35-7.28c9.34-5.2,18.59-10.16,17.86-13.65-.38-1.72-3.28-2.96-6.33-3.98-3.04-1.02-6.24-1.84-7.01-3.04,.28,.44,2.17-2.51,.72-3.18-1.81-.83-5.15-.47-8.58,.36-3.43,.83-6.94,2.15-9.16,3-18.37,7.06-36.01,16.92-52.42,28.86-16.44,11.95-31.67,25.94-45.86,41.5-12.48,13.69-23.29,28.95-31.85,45.63-8.55,16.66-14.86,34.76-18.15,53.77C.5,200.4,.06,209.34,0,217.77c-.06,8.44,.27,16.39,.18,23.98-.23,20.34,2.96,40.92,8.86,60.21,5.88,19.32,14.49,37.3,24.4,53.06,2.25,3.61,4.66,9.07,7.34,14.08,2.66,5.01,5.58,9.56,8.26,11.33,3.28,2.18,7.83,7.25,13.37,13.32l4.33,4.72,2.29,2.46c.08,.09,.24,.25,.25,.27-.02,0,.02,.05,.04,.08l.16,.24,.31,.47c.82,1.25,1.5,2.38,2,3.32,.03,.04,.05,.08-.02,.15l-.12,.17-.23,.34-.45,.65-.83,1.16-1.35,1.83-.07,.1s-.11,.27-.16,.39l-.35,.87-.68,1.7c-.44,1.11-.84,2.18-1.22,3.19-.75,2.03-1.35,3.86-1.77,5.43,.2-.75,.79,4.28,1.1,3.6-1.78,3.92-5.25,7.81-8.01,15.25-2.18,5.89-4.08,11.64-5.85,17.36l-.33,1.07-.08,.27-.25,.83-.04,.14-.08,.29c-.13,.47-.24,.95-.35,1.43l-.15,.72-.11,.64-.15,1.06c-.1,.71-.15,1.43-.19,2.14-.07,1.43-.02,2.86,.12,4.28,.6,5.68,2.99,11.14,6.74,15.42l.72,.78,.37,.38,.19,.19,.62,.61,.69,.62c.37,.32,.74,.63,1.12,.94l.58,.45,.43,.31c.58,.41,1.17,.81,1.78,1.17,2.43,1.47,5.07,2.57,7.82,3.25,2.75,.68,5.6,.92,8.43,.73,1.41-.09,2.82-.29,4.21-.61,.69-.15,1.37-.34,2.05-.54l.51-.16,.15-.05,.26-.09c11.3-3.96,22.9-7.92,36.16-11.33l34.3-8.87,17.3-4.63,8.58-2.37,2.13-.6,.23-.06h.02s.04,.01,.04,.01l.07,.02,.25,.07,.14,.11,.06,.05,.03,.02s.02,.02-.05,.01l2.98,.54,3.11,.51c4.15,.65,8.27,1.16,12.36,1.53,8.17,.74,16.18,.93,23.84,.59,7.55-.32,15.66-1.37,22.46-2.49,6.81-1.11,12.31-2.25,14.85-2.33,4.2-.12,9.24-1.38,14.18-2.9,4.94-1.51,9.78-3.3,13.81-4.33,17.98-4.58,35.57-12.39,51.82-22.81,16.27-10.42,31.19-23.43,44.31-38.27,13.14-14.84,24.47-31.5,33.97-49.35,9.5-17.87,17.19-36.94,23.15-56.97,3.1-10.49,4.12-25.22,4.78-42.8,.86-22.44-.22-45.97-4.79-69.78-4.52-23.77-12.63-47.9-25.23-70.19-9.74-17.28-22.07-33.11-36.3-46.84-14.22-13.75-30.34-25.38-47.56-34.59-17.23-9.21-35.56-15.99-54.24-20.25C264.93,1.24,245.92-.5,227.28,.12c-1.76,.07-5.43,.08-9.8,.37-4.37,.28-9.43,.83-13.93,1.75-4.5,.91-8.43,2.17-10.58,3.6-2.16,1.45-2.54,3.02-.09,4.7-3.17,.41-6.93,2.74-9.57,5.6-2.65,2.85-4.17,6.2-3.3,8.53,.76,2.06,4.39,1.01,4.94,1.9-2.25-3.67,1.53,4.27-.85,3.11,2.77,1.33,8.48-.89,10.52,1.71,2.96,2.26-3.9,.82-3,3.43,12.58-2.5,26.29-3.84,40.59-3.48,14.29,.36,29.16,2.4,43.88,6.38,14.72,3.96,29.28,9.83,42.94,17.45,13.67,7.61,26.42,16.97,37.67,27.58,3.33,3.13,7.55,7.43,11.03,9.68,2.71,1.71,8.88,5.58,14.52,10.57,5.66,4.93,10.7,10.96,11.68,15.47,.2,.71-3.6-5.55-2.6-5.15,3.16,1.21,6.32,6.1,9.1,11.9,2.81,5.8,5.2,12.45,7.7,17.25,6.37,12.14,10.04,23.98,12.4,35.57,2.35,11.62,3.41,23.01,4.02,34.96,.29,5.79,1.11,9.81,2.2,13.07,1.07,3.26,2.38,5.74,3.36,8.33,1.86,5.01,.71,10.51,.17,17.56-1.62,20.95-6.64,42.34-15.32,62.95-8.66,20.6-20.98,40.42-36.77,58.05-16.33,18.27-35.94,33.84-57.42,45.32-21.46,11.52-44.73,18.92-67.65,21.98-10.24,1.36-20.01,2.78-29.85,3.46-9.82,.67-19.71,.61-29.71-1.19-3.02-.55-6.13-1.15-9.23-1.8-2.38,.67-4.81,1.45-7.17,2.17l-7.04,2.19-14.05,4.37c-9.36,2.87-18.71,5.62-28.08,7.98-10.79,2.72-22.91,3.09-32.93,6-5.42,1.58-10.74,3.41-15.99,5.33l-.49,.18-.11,.04-.05,.03c-.07,.03-.13,.06-.2,.09-.14,.05-.3,.08-.46,.08-.32,0-.66-.07-.97-.26-.62-.38-1.08-1.16-.91-2.11,2.9-10.69,5.98-21.21,10.5-31.11,2.5-5.49,4.96-11.06,7.39-16.7l.46-1.08,.56-1.38,1.12-2.79,2.27-5.7,2.29-5.86,1.16-2.99,.58-1.5,.29-.76c.04-.12,.11-.26,.13-.37l-.06-.31-7.11-6.29c-2.42-2.15-4.84-4.35-7.22-6.65l-.89-.86c-.28-.27-.67-.65-.81-.8l-1.2-1.24-2.38-2.52c-1.58-1.69-3.14-3.4-4.66-5.14-6.13-6.95-11.88-14.3-17.16-22-10.58-15.4-19.23-32.29-25.34-50.05-6.1-17.74-9.69-36.37-10.38-54.77-.71-18.4,1.5-36.6,6.46-53.42-.5,1.54-.29,2.63,.92,3,.92-5.09,.29-3.33-1.94-5.34,3.95-1.7,5.25-5.22,5.93-9.34,.66-4.1,.75-8.83,1.95-12.57m-5.48,20.95c-.87-.7-.62-3.38,.06-6.27,.69-2.89,1.82-5.96,2.52-7.51,1.15-2.57-.75,6.26-2.58,13.78"/>
    </g>
    <g>
      <path class="cls-1" d="M206.79,453.81c-1.02,.17-2.04,.38-3.05,.61-.29,.07-.4,.08-.59,.11l-.52,.1-1.02,.22c-1.35,.32-2.64,.72-3.89,1.19-2.5,.94-4.83,2.12-7.06,3.32-4.46,2.4-8.53,4.86-12.8,5.56,.75-.12,1.27,1.17,.65,1.6-4.76-1.45-9.61,3.53-12.72,6.4,1.67-5.01-9.08,4.31-2.19,.89,.11,3.06-10.49,3-9.93,2.78-4.57,1.81-10.77,8.27-14.56,10.25,.2-.1-4.16,.99-10.1,2.91-2.97,.96-6.33,2.13-9.71,3.45l-1.27,.5,1.29,3.46s0-.03,0-.02h0s0,.02,0,.02c.03,0-.06-.04,.09,.04l.07,.05s.07,.06,0,0l-.24-.22-.06-.06c-.17-.14,.22,.18,.18,.15h0s0,0,0,0h0s-.02,.02-.02,.02h-.01s.02,0,.02,0c0,0,0,0,0,0,0,0-.01,0-.01,0,0,0,0,0,0,0,0,.01-.02,.22-.02,.2l.08-.27,.04-.14h0s0-.01,0-.01c1,.35-2.25-.8,2.25,.79v-.02s0-.04,0-.04v-.07s.06-.57,.06-.57l.1-1.11,.18-1.96c.1-1.14,.16-1.87,.13-1.74,.81-3.43,5.97-9.27,1.31-7.79,.32-2.49,2.85,.4,2.99-2.51-.18-1.47-1.75-1.77-1.49-3.61,1.95-5.67,4.05-12.74,5.87-20.33l.67-2.87,.8-3.57c.55-2.49,1.07-5,1.56-7.47,.49-2.48,.94-4.93,1.33-7.31l.56-3.53,.25-1.72,.11-.85c0-.27,.18-.6-.07-.77l-.17-.21c-5.16-2.79-9.96-5.69-14.38-8.79-1.11-.77-2.18-1.58-3.23-2.37l-1.52-1.19-1.29-1.04c-1.64-1.36-3.23-2.75-4.73-4.18-6.04-5.7-10.88-11.81-14.28-17.06-2.06,.03-2.25-.7-2.71-2.17-.46-1.48-1.18-3.68-4.21-6.79-.66-.69-2.16-3.24-3.64-6.11-1.49-2.87-2.96-6.04-3.86-7.89-6.62-13.57-14.36-28.61-20.63-45.8-3.12-8.58-5.89-17.65-7.93-27.1-2.04-9.44-3.36-19.26-3.68-29.2-.12-3.34,.12-8.03,.68-13.19,.54-5.16,1.43-10.78,2.36-16.08,1.84-10.59,4.05-19.83,2.17-22.32-1.35-1.79,1.58-3.02,1.31-2.73,2.36-2.58,3.4-9.76,4.67-16.03,1.23-6.27,2.56-11.58,3.88-10.1,1.05-2.82-3.36-2.67-1.84-5.76,2.15,.54,2.89,.19,3.35,2.36,.37-4.71,1.18-5.69,.49-8.94,3.75-.65-.1,4.99,.77,6.25,1.98-2.51,2.59-4.38,3.21-6.28,.61-1.9,1.24-3.83,3.34-6.26,.25-2.48-2.56,.9-2-1.14,.74,.99,3.28-2.79,5.8-6.56,2.5-3.78,5-7.57,4.85-7.11,.79-2.48,.2-3.12-.04-3.78-.24-.66-.16-1.39,2.13-4-.35,.4,1.61-.76,2.81-2.26,1.2-1.5,1.67-3.42-1.78-4.69,2.46-.92,2.51,.84,3.59,2.89,2.17-2.94,3.91-4.91,5.65-6.81l5.8-6.19c-1.8-1.86-4.44,1.22-5.22,1.34,1.38-2.04,4.64-2.95,7.1-4.06,2.46-1.12,4.15-2.48,2.57-5.73,3.48-.84,3.88-1.66,5.86-1.47,.55-4.27,.92-3.21,3.24-4.34,3.23-1.57,6.93-5.78,10.5-9.66,3.54-3.9,6.92-7.48,8.69-8.02-2.19,1.1-3.82,3.85-.99,2.7,1-2.53,5.51-5.93,9.26-8.58,3.72-2.68,6.65-4.73,4.09-5.28,4.46-2.67,11.08-4.37,12.95-7.49-1.15,.45-2.46,1.17-2.63-.1,1.5-1.49,3.67,.23,3.63-1.58-6.17,.06-5.02-.05-2.85-.34,2.17-.28,5.32-.6,3.13-1.04,3.65,.06,5.29-.22,6.81-.39,1.51-.17,2.88-.24,5.86,.43-2.23-2.39-.16-2.9,3.01-3.04,3.17-.15,7.38,.14,9.6-.96-2.12,.89-1.56-1.17-1.23-1.45,3.48,1.01,4.76,1.4,8.98-2.94,.78,2.31,2.83,2.53,5.04,2.02s4.62-1.78,6.05-2.56c-.49,.26-2.76,.22-2.41-.14,1.21-1.25,6.04-.95,9.41-.88,3.36,.06,5.4-.26,1.09-3.17-2.67-1.75-1.07-1.7,1.21-1.17,2.28,.52,5.18,1.56,5.2,1.56,2.47-.1,4.49-4.36,6.02-4-.03-.01,1.15,1.88,2.64,3.28,1.49,1.4,3.28,2.33,4.7,.35,.77-1.04-3.25-5.91,.69-2.91-.79,2.7,.7,3.3,2.53,3.2,1.83-.09,4.02-.86,4.63-1,.3-.08,1.97-2.88,5.46,1.81-.61-2.25-.15-3.07,2.51-3.94-.04,1.36-1.43,1.65-.93,3.42,.57-2.29,2.07-1.61,4.12-.68,2.06,.93,4.64,2.13,7.64,.91-6.75,.44-1.87-4.25,.96-1.64-6.82-.21-1.02,1.95,2.88,2.63-1.47-3.95-.33-2.61,1.54-6.19-.11,7.3,11.14,2.49,2.26,7.26,4.5,1.23,5.55,.37,6.21-.65,.65-1,.87-2.16,3.67-1.25-2.2,.48-4.62,3.26-4,4.55,4.82-1.96,5.88,2.07,8.62,4.02,.54-3.58,.57-2.5-2.19-4.58,1.43-1.6,3.02,.55,4.69,2.46,1.68,1.93,3.44,3.6,5.67,1.12,.04,1.03-1.48,1.14-.43,1.67,1-1.47,3.34-1.39,4.89-.72,1.55,.68,2.27,1.91,.14,2.7,2.7,.19,5.58-.16,7.68,3.61,1.08-1.54,.67-2.26,1.65-2.48,.19,2.75,3.32,3.12,6.89,3.37,3.56,.24,7.58,.39,9.2,2.29,.34,.39-1.34,1.3-1.4,1.27,4.22,1.62,13.03,2.13,6.42,6.13,2.05,2.65,4.35-.34,4.96-1.38,3.01,1.67-1.25,4.15,1.39,3.97,1.51-.62,7.87,1.34,6.64,3.7,.61-1.31,2.18-.35,3.15-.82-2.94,2.02,1.3,7.25,5.58,11.25,4.3,3.97,8.92,6.76,8.03,2.65,.63,2.07,1.09,4.66,2.09,6.62,1.01,1.97,2.57,3.32,5.52,3.04-.77,6.08,2.63,1.32,4.87,3.46-1.95,.51-1.93,1.28-.29,3.62,2.35,.76-.5-3.51,2.33-2.55,.22,3.64,1.15,4.31,2.58,4.48,1.41,.17,3.31-.17,5.23,1.45-1.54,.49-1.77,1.3-3.21,.04,.85,1.45,3.9,2.81,6.19,4.31,2.3,1.49,3.8,3.09,1.54,4.68,1.52,2.37,2.64-1.64,4.18,1.29-1.65,2.2-.5,3.21,1.08,3.92,1.58,.7,3.62,1.1,3.68,1.86-.65,.52-3.38-1.32-1.35,1.07,2.82,.57,3.84,.44,5.46-2.37,3.19,3.7-1.5,4.84-2.75,5.89,1.7,2.72,8.61,2.02,4.39,5.08,1.47,4.21,2.89,3.8,6.48,5.58,.35,2.67-2.53-1.52-1.94,1.23,3.59-.18,2.72,4.52,2.35,3.8,2.74,5.53,5.25,7.69,8.06,8.93,2.79,1.24,5.79,1.53,9.06,3.5,3.64,2.19,5.94,7.66,9.04,10.67,1.24,1.19,3.43,.85,4.38,1.75,1.83,1.75,2.36,4.12,3.05,6.37,.7,2.25,1.56,4.38,4.16,5.81,.16-1.16-2.88-7.51-5.69-13.78-2.76-6.3-5.32-12.59-2.79-14.75,2.93-2.51,5.72,1.97,7.89,7.3,2.21,5.3,3.72,11.36,5.39,11.78,2.52,.66,1.08-4.23-1.67-10.08-2.71-5.86-6.83-12.51-8.6-16.04-1.28-2.62-4.6-8.44-8.47-14.23-3.85-5.81-8.28-11.56-10.9-14.72-1.37-1.67-4.54-5.31-7.52-8.41-2.97-3.11-5.7-5.72-5.81-5.75-2.99-.95,1.49,2.62-1.1-1.27-4.37-6.49-10.07-11.48-15.33-15.36-5.27-3.9-10.09-6.72-13-9.35-.98-.91-4.63-5.09-8.17-8.06-3.53-2.98-6.83-4.73-6.55-1.33-2.37-4.18-7.93-7.17-13.44-9.56-5.51-2.42-10.94-4.27-13.34-7.07,.4,2.18-1.57,.17-3.78-1.76-2.2-1.94-4.65-3.78-4.79-1.48-1.54-1.66-3.03-4.53-5.15-6.63-2.12-2.08-4.88-3.37-8.64-1.73-2.15,.94-1.27-2.18-3.29-3.52-.91-.59-4.15-1.51-7.5-2.31-3.34-.82-6.79-1.51-8.06-2.03-1.86-.75-.67-1.87-3.06-1.88-1.98-.02-7.32-1.91-12.95-3.4-5.61-1.52-11.47-2.65-13.95-2.01-4.45,1.15,4.92,3.67-2.8,2.64,1.71,.22-1.57-3.03,1.04-2.22-2.28-.71-5.48-.64-8.74-.36-3.27,.27-6.6,.74-9.24,.71-7.35-.07-14.73,.65-22.36,1.77-7.63,1.12-15.5,2.63-23.94,4.28,0,0-5.31,.22-11.04,1.03-5.73,.76-11.83,2.15-13.36,3.32-2.19,1.67,.62,2.3-1.67,3-4.27,1.36-7.7-2.43-10.73,2.83,.67-3.5-3.57-1.12-8.38,2.01-4.83,3.11-10.07,7.04-12.5,5.86,1.98,.45,.31,1.51-1.72,2.41-2.03,.9-4.44,1.69-4.02,1.41-7,4.5-14.66,9.76-22.45,15.83-7.79,6.07-15.71,12.98-23.25,20.61-7.55,7.62-14.72,15.96-21.13,24.71-6.42,8.75-12.07,17.89-16.76,26.98-2.1-.3-3.68,2.38-4.62,5.12-.95,2.73-1.27,5.49-1.19,5.34-1.06,2.02-4.08,4.75-3.33,3.2-5.83,12.12-9.62,25.47-11.85,38.98-2.25,13.52-2.96,27.18-3.04,40.44-.11,17.12,1.66,33.9,5.05,50.02,3.41,16.12,8.4,31.58,14.82,46.2,12.83,29.26,31.43,54.98,53.81,75.65,1.71,1.59,3.49,3.13,5.31,4.64l1.29,1.05c.25,.2,.5,.4,.76,.59,.47,.35,.87,.66,1.33,.98,1.78,1.27,3.73,2.45,5.86,3.6,.35,.08,.17,.36,.17,.58l-.09,.68-.17,1.39-.32,2.85-.31,2.97-.16,1.53-.02,.19v.1s-.04,.17-.04,.17l-.12,.69-.23,1.39c-1.23,7.38-2.41,14.57-3.67,21.34l-3.52,18.69-.24,1.23-.03,.15-.09,.4v.04s-.02,.08-.02,.08l-.05,.31c-.08,.47-.22,1.43-.24,1.91-.14,2.15,.12,4.33,.78,6.38,1.29,4.11,4.19,7.71,7.95,9.81,3.75,2.13,8.31,2.76,12.48,1.69,.52-.13,1.04-.29,1.54-.46l.75-.29,.27-.11,.15-.07,1.18-.54,2.37-1.07c12.66-5.72,25.62-11.38,37.59-16.25-2.44,.99,5.29-.28,5.76-.47,6.21-2.47,13.82-5.61,21.95-9.02l12.49-5.26,10.28-4.38c1.08,.1,2.15,.18,3.22,.25l4.26,.25c3.29,.17,6.49,.25,9.54,.27,6.1,.04,11.6-.2,16.12-.51,19.71-1.35,38.97-5.53,57.29-12.2,18.33-6.67,35.75-15.89,51.71-27.5,15.96-11.61,30.46-25.61,42.94-41.76,12.47-16.14,22.9-34.45,30.6-54.58,4.41-11.57,7.41-24.03,9.19-37.06,1.78-13.04,2.34-26.64,1.87-40.74-.17-5.29-.47-11.14-1.13-16.96-.65-5.82-1.69-11.61-3.13-16.74-2.89-10.29-7.43-17.81-12.84-18.16-.33,1.84,1.61,5.47-.04,6.33-2.75-1.2-1.52-4.87-3.37-7.69-2.96,3.79-3.34,5.95-5.55,10.01-.25-1.64-.84-2.59-1.85-2.49-2.05,6.54-2.53,13.45-2.33,20.85,.2,7.39,1.08,15.31,1.75,23.69,.68,8.37,1.15,17.21,.69,26.1-.45,8.87-1.84,17.77-4.6,25.89-8.7,25.71-21.62,49.16-37.9,68.88-16.24,19.73-35.88,35.61-56.87,46.39-5.73,3.01-15.43,7.9-24.79,11.48-9.32,3.67-18.15,6.11-20.94,6.7-5.77,1.26-12.38,2.56-18.93,3.32-6.54,.77-13.01,1.02-18.33,.56-2.57-.02,1.49,1.96-.78,1.7-.3-1.4-2.5-1.33-4.44-1.16-1.94,.17-3.62,.45-2.77-.37-.39,.2-.77,.36-1.15,.48-.15,.07-.5,.1-.75,.13-.27,.03-.54,.05-.8,.07-1.07,.06-2.04,.01-3.21-.17-2.23-.33-4.37-.99-6.35-1.54-3.41,.68-6.31,1.54-6.97,4.45M378.96,133.11c.5-.68-.01-1.87,1.45-3.48-1.34-.87-2.24,1.86-3.77-.56,1.27-1.28,6.13,.39,2.04-2.03,2.51-.36,2.89,1.76,3.28,3.78,.39,2.03,.79,3.97,3.56,3.47-.19,2.31-1.24,1.5-2.54,.4-1.3-1.12-2.88-2.53-4.02-1.57"/>
      <path class="cls-1" d="M38.08,166.48c-2.08,.66-.97-1.8,.73-3.99,1.69-2.19,3.93-4.06,3.89-2.49-.09,2.88-3.24,7.74-6.28,12.21-3.04,4.46-5.98,8.52-6.17,9.06-1.77,4.95-2.62,10.89-3.57,16.73-.96,5.86-2.03,11.61-4.53,16.55-.5,.99-1.58,7.04-2.41,13.92-.87,6.89-1.43,14.59-2.13,18.87-1.19-3.88-1.53-9.6-1.08-16.13,.45-6.53,1.7-13.84,3.41-20.92,1.7-7.08,3.87-13.92,5.81-19.66,1.93-5.75,3.63-10.41,4.24-13.29,.76,.83,1.49-1.53,2.71-4.27,1.2-2.75,2.94-5.88,5.39-6.58"/>
    </g>
  </g>
</svg>