<svg xmlns="http://www.w3.org/2000/svg" version="1.1" xmlns:xlink="http://www.w3.org/1999/xlink" xmlns:svgjs="http://svgjs.dev/svgjs" viewBox="0 0 1422 800" opacity="0.23"><g stroke-width="2" stroke="#e22a97" fill="none" stroke-linecap="round"><path d="M 0 700 Q 355.5 105 711 400 Q 1066.5 695 1422 700" opacity="0.05"></path><path d="M 0 665 Q 355.5 105 711 400 Q 1066.5 695 1422 665" opacity="0.10"></path><path d="M 0 630 Q 355.5 105 711 400 Q 1066.5 695 1422 630" opacity="0.15"></path><path d="M 0 595 Q 355.5 105 711 400 Q 1066.5 695 1422 595" opacity="0.20"></path><path d="M 0 560 Q 355.5 105 711 400 Q 1066.5 695 1422 560" opacity="0.25"></path><path d="M 0 525 Q 355.5 105 711 400 Q 1066.5 695 1422 525" opacity="0.30"></path><path d="M 0 490 Q 355.5 105 711 400 Q 1066.5 695 1422 490" opacity="0.35"></path><path d="M 0 455 Q 355.5 105 711 400 Q 1066.5 695 1422 455" opacity="0.40"></path><path d="M 0 420 Q 355.5 105 711 400 Q 1066.5 695 1422 420" opacity="0.45"></path><path d="M 0 385 Q 355.5 105 711 400 Q 1066.5 695 1422 385" opacity="0.50"></path><path d="M 0 350 Q 355.5 105 711 400 Q 1066.5 695 1422 350" opacity="0.55"></path><path d="M 0 315 Q 355.5 105 711 400 Q 1066.5 695 1422 315" opacity="0.60"></path><path d="M 0 280 Q 355.5 105 711 400 Q 1066.5 695 1422 280" opacity="0.65"></path><path d="M 0 245 Q 355.5 105 711 400 Q 1066.5 695 1422 245" opacity="0.70"></path><path d="M 0 210 Q 355.5 105 711 400 Q 1066.5 695 1422 210" opacity="0.75"></path><path d="M 0 175 Q 355.5 105 711 400 Q 1066.5 695 1422 175" opacity="0.80"></path><path d="M 0 140 Q 355.5 105 711 400 Q 1066.5 695 1422 140" opacity="0.85"></path><path d="M 0 105 Q 355.5 105 711 400 Q 1066.5 695 1422 105" opacity="0.90"></path><path d="M 0 70 Q 355.5 105 711 400 Q 1066.5 695 1422 70" opacity="0.95"></path></g></svg>