<?xml version="1.0" encoding="UTF-8"?>
<svg id="Layer_2" data-name="Layer 2" xmlns="http://www.w3.org/2000/svg" xmlns:xlink="http://www.w3.org/1999/xlink" viewBox="0 0 5355.98 5235.87">
  <defs>
    <style>
      .cls-1, .cls-2 {
        fill: #fff;
      }

      .cls-2, .cls-3 {
        fill-rule: evenodd;
      }

      .cls-4 {
        clip-path: url(#clippath);
      }

      .cls-5 {
        fill: none;
      }

      .cls-3 {
        fill: #a0cc3a;
      }
    </style>
    <clipPath id="clippath">
      <rect class="cls-5" y="2545.09" width="5355.98" height="2690.79"/>
    </clipPath>
  </defs>
  <g id="Layer_1-2" data-name="Layer 1">
    <g>
      <g>
        <path class="cls-2" d="M3954.72,1320.85c-1.89-2.72-1.19-1.69,0,0h0Z"/>
        <g>
          <path class="cls-2" d="M3373.87,530.47c.86-.55,.66-.43,0,0h0Z"/>
          <path class="cls-2" d="M4361.07,3834.49c-467.33-230.72-672.1-1515.62-651.25-2138.6,.37-11.23,.61-22.04,.71-32.47-12.7,14.2-26.79,27.76-42.04,40.76-6.36,5.42-14.79,9.33-24.03,12.04,.57,2.72,.94,5.45,1.11,8.16,.91,14.52-9.71,31.1-23.82,41.21-1.52,1.09-3.18,2.16-4.93,3.2,4.07-9.84,7.88-19.78,11.32-29.88,8.01-23.47,13.17-47.4,16.3-71.97,6.41-11.31,12.14-23.06,17.1-35.43,22.17-55.3,19.65-123.83-16.52-172.34,.1-3.4,.16-6.81,.11-10.25-.27-18.38-15.97-36.01-35.15-35.15-5.4,.24-10.62,1.62-15.32,3.93-14.57-6.96-30.36-11.4-46.68-13.31-12.12-1.42-24.06-.6-35.56,2.05-8.24-10.45-21.62-16.25-35.38-12.91-.96-7.72-2.16-15.41-3.59-23.07,11.5,1.87,23.22,2.36,34.83,1.36,17.31-1.49,33.73-5.17,49.65-11.02,15.95-2.79,31.8-6,47.5-9.19,25.89-5.27,51.77-10.62,77.93-14.38,19.53-2.41,39.15-3.76,58.84-3.25,6.29,.16,12.8-1.85,18.44-5.35,17.18,15.79,34.54,31.39,51.81,47.08l57.13,51.93c9.52,8.66,19.04,17.31,28.56,25.96,10.87,9.88,22.21,23.19,35.8,28.93,42.3,17.85,66.08-35.02,64.31-68.73-1.39-26.44-11.99-50.33-27.38-71.54-4.42-6.09-9.07-12.02-13.68-17.97-.59-.76-1.65-2.25-2.48-3.43,.4,.58,.91,1.32,1.57,2.26-1.58-2.28-3.39-4.43-5.05-6.66-6.64-8.94-12.91-18.16-18.89-27.55-11.99-18.83-22.85-38.35-33.44-57.99-25.03-46.37-49.46-92.43-82.25-133.92-7.51-9.51-23.2-12.07-34.2-9.04-12.36,3.4-20.53,12.74-24.55,24.55-5.65,16.6-11.03,33.29-16.15,50.06,2-32.26,3.13-64.6,3.74-96.95,1.43-76.05,.5-152.15,3.78-228.15,1.77-41.09,4.84-82.13,10.13-122.92,4.8-34.14,11.2-68.05,19.9-101.42,9.46-36.25,24.35-73.32,20.07-111.47-4.45-39.71-25.7-73.69-47.08-106.51-19.6-30.08-41.08-58.97-63.91-86.67-24.58-29.83-51.12-58-79.36-84.38-1.38-1.29-2.83-2.44-4.34-3.49-7.45-18.81-15.39-37.41-24.32-55.58-10.81-22-23.29-43.14-38.08-62.71-5.75-7.6-11.44-13.52-21.01-16.15-8.41-2.32-19.62-1.27-27.09,3.54-7.51,4.84-14.11,12.04-16.15,21.01-.51,2.25-.89,4.67-1.08,7.15-14.7,.91-26.99,10.5-32.03,25.49-1.25,3.72-2.49,7.52-3.95,11.2-.14,.3-.34,.72-.63,1.33-.57,1.23-1.11,2.47-1.68,3.7-1.29,2.77-2.62,5.51-4,8.23-5.08,10-10.76,19.68-16.82,29.12-12.06,18.78-25.6,36.56-39.18,54.25-29.37,38.28-57.21,76.57-74.59,122.01-6.81,17.79-11.37,36.83-13.01,56-1.26,2.65-2.46,5.35-3.57,8.09-12.15,29.77-10.6,63.56-7.58,94.94,.19,1.99,.45,3.93,.8,5.82-8.83,24.88-9.58,51.4-8.43,77.88,1.84,42.5,7.83,84.91,17.98,126.27-6.87,4.68-12.23,10.45-16.34,16.95-7.56,.05-15.09,.25-22.57,.75,2.05,1.64,3.99,3.35,5.77,5.12,13.68,13.68,22.36,34.3,22.24,53.69-.14,22.39-3.25,44.81-7.5,66.9,7.62,49.29,16.73,98.33,27.63,147.04,.6,2.7,1.22,5.39,1.84,8.09-4.96,44.46-6.34,89.32-3.98,133.89-10.61,3.93-20.77,9.14-30,15.11-4.26-17.68-8.52-35.36-12.77-53.04-5.88-24.4-41.64-35.71-58.75-15.51-7.61,8.99-16.13,17.1-25.21,24.6-1.64,1.35-3.3,2.67-4.96,4-.63,.48-1.26,.95-1.89,1.42-4.76,3.55-9.58,7.01-14.41,10.46-20.56,14.66-41.77,29.12-59.63,47.09-39.32,39.57-53.96,92.72-62.63,146.23-5.82,35.88-10.5,72.56,.11,108.09,7.28,24.38,40.33,35.53,58.75,15.51,19.4-21.1,38.8-42.19,58.21-63.29,.83-.67,1.65-1.33,2.48-2,.72-.55,1.45-1.1,2.17-1.64,2.78-2.08,5.58-4.13,8.41-6.15,19.79-14.12,40.69-26.67,62.46-37.48,22.95-11.4,49.87-19.23,63.37-43.12,3.08-5.44,5.03-10.95,6.13-16.53,2.62,3.46,5.99,6.42,10.15,8.57,24.63,12.76,49.43,25.21,75.44,34.96,7.85,2.94,15.82,5.47,23.87,7.61,3.64,13.33,6.45,26.86,8.49,40.52,.78,6.68,1.36,13.37,1.75,20.08-11.27,6.72-21.57,14.86-30.16,25.08-25.02,29.75-36.43,68.43-34.16,107.14,2.35,39.92,15.88,77.1,30.31,113.96,9.43,24.08,19.39,47.96,29.87,71.61-18.78-1.04-36.22-7.98-49.89-16.97-13.29-8.74-21.75-23.19-23.47-36.33-4.9,7.19-7.58,11.29-7.58,11.29-1.23,605.46,163.87,1959.98-256.19,2086.51-420.06,126.52,1760.79,282.81,1293.46,52.1Z"/>
        </g>
      </g>
      <path class="cls-3" d="M3803.16,1102.76l162.85,231.24v133.31l-191.21-173.16,.04-1.15c9.53-63.18,20.41-126.91,28.32-190.25h0Zm-567.2,39.76l22.82,150.48,.06,1.15-191.23,173.16v-133.31l162.85-231.24c1.68,13.33,3.49,26.47,5.5,39.76h0ZM3516.84,0c-16.39,0-33.05,4.68-46.5,13.86-7.13,4.93-13.62,11.21-18.85,19l-204.77,298.89c-15.57,22.74-26.96,46.38-34.28,71.58-7.25,25-10.37,51.06-9.39,78.64l16.27,478.52,.12,4.35-230.54,327.38c-3.1,4.33-5.59,9.57-7.33,15.67-1.62,5.3-2.4,10.56-2.4,15.47h.14l.06,228.82h-.21c0,7,1.38,14.01,3.84,20.39,1.09,2.79,2.44,5.32,4,7.72,2.73,4.6,6.22,8.73,10.43,12.36,9.26,8.15,20.33,12.18,32.45,11.93l.53-.06c11.71-.33,22.26-4.56,31.07-12.57l2.22-2.16,235.78-213.52c9.59,8.24,20.81,15.12,33.11,20.23-25.92,29.92-43.97,66.22-51.69,105.5-7.91,40.05-4.4,88.05,10.95,127.11,4.48,11.93,9.26,22.43,14.32,32.12,4.81,9.2,11.03,19.78,17.62,30.85,32.33,54.16,69.56,107.25,106.49,159.87,17.17,24.5,34.22,48.84,50.4,72.73,8.42,12.47,22.16,19.24,36.15,19.39,13.92-.14,27.64-6.92,36.09-19.39,16.2-23.89,33.23-48.22,50.38-72.73,36.95-52.62,74.18-105.71,106.51-159.87,6.61-11.07,12.84-21.65,17.6-30.85,5.07-9.69,9.86-20.19,14.34-32.12,15.36-39.06,18.85-87.06,10.95-127.11-7.7-39.29-25.78-75.58-51.69-105.5,12.32-5.11,23.52-11.99,33.09-20.23l235.82,213.52,2.2,2.16c8.79,8.01,19.35,12.24,31.09,12.57l.51,.06c12.1,.25,23.19-3.78,32.51-11.93,4.17-3.64,7.66-7.76,10.37-12.36,1.56-2.4,2.92-4.93,4.03-7.72,2.44-6.39,3.82-13.39,3.82-20.39h-.21l.06-228.82h.14c0-4.91-.78-10.17-2.4-15.47-1.77-6.1-4.21-11.34-7.31-15.67l-230.56-327.38,.14-4.35,16.25-478.52c.98-27.58-2.14-53.65-9.39-78.64-7.31-25.2-18.73-48.84-34.26-71.58l-204.79-298.89c-5.24-7.78-11.73-14.07-18.85-19-13.45-9.18-30.11-13.86-46.44-13.86h0Zm0,1821.72l-14.25-20.21c-35.67-50.98-71.66-102.36-103-154.76-44.57-74.18-51-154.12,17.95-209.94,10.89-8.87,23.18-16.2,36.53-21.79,5.03-2.12,11.46-3.8,18.83-5.16v149.44c0,24.36,19.63,44.05,43.93,44.3,24.24-.25,43.85-19.94,43.85-44.3v-149.44c7.39,1.36,13.8,3.04,18.85,5.16,13.35,5.59,25.65,12.92,36.54,21.79,68.93,55.82,62.52,135.76,17.95,209.94-31.36,52.39-67.3,103.78-103,154.76l-14.19,20.21h0Zm0-880.93c-24.3,.25-43.93,19.94-43.93,44.3v332.84h-91.64c-4.99,.06-9.65-.86-13.82-2.44-4.13-1.56-8.01-4.11-11.44-7.27l-.06,.12c-2.79-2.59-5.05-5.71-6.61-9.14-9.14-20.27-21.32-140.38-25.8-169.83-4.78-31.63-8.27-59.48-10.68-85.58-2.61-27.66-4.27-55.66-5.32-86.1l-16.25-478.52c-.66-18.4,1.27-35.37,5.96-51.24,4.6-15.73,12.06-31.09,22.47-46.31l197.13-287.88,197.07,287.88c10.41,15.22,17.93,30.58,22.49,46.31,4.66,15.88,6.59,32.84,5.94,51.24l-16.25,478.52c-1.03,30.44-2.73,58.43-5.3,86.1-2.4,26.1-5.89,53.95-10.7,85.58-4.48,29.45-16.66,149.56-25.78,169.83-1.56,3.43-3.84,6.55-6.63,9.14l-.04-.12c-3.45,3.16-7.33,5.71-11.48,7.27-4.15,1.58-8.81,2.51-13.8,2.44h-91.66v-332.84c0-24.36-19.62-44.05-43.85-44.3h0Zm0-460.32c42.7,.21,81.04,26.06,97.17,65.04,10.7,25.71,10.7,55.12,0,80.9-16.39,39.64-54.73,65.17-97.17,65.37-42.47-.21-80.86-25.73-97.23-65.37-10.68-25.78-10.68-55.19,0-80.9,16.12-38.98,54.47-64.84,97.23-65.04h0Zm0-88.62c25.92,.08,50.85,5.38,73.79,14.83,47.81,19.96,85.23,57.4,105.05,105.28,9.47,22.8,14.64,47.81,14.64,74.1h.21c0,26.12-5.26,51.26-14.85,74.25-9.51,22.98-23.45,43.85-40.69,61.47l-2.65,2.71c-16.64,16.39-36.54,29.8-58.53,39.41l-4.17,1.93c-22.29,9.06-46.89,14.13-72.81,14.17-25.98-.04-50.59-5.11-72.87-14.17l-4.15-1.93c-22.02-9.61-41.9-23.02-58.55-39.41l-2.67-2.71c-17.23-17.62-31.16-38.49-40.67-61.47-9.59-22.98-14.83-48.12-14.83-74.25h.18c0-26.29,5.18-51.3,14.64-74.1,19.82-47.87,57.26-85.32,105.08-105.28,22.92-9.45,47.85-14.75,73.83-14.83Z"/>
    </g>
    <g class="cls-4">
      <path class="cls-2" d="M1310.87,5627.51c73.85,237.26,490.54,150.27,626.03,133.24,.1,0,3761.49-566.63,3761.49-566.63,309.85-225.92,217.51-355.37,62.69-456.05,222.62-71.44,374.97-280.19,355.66-514.42-19.78-240.09-213.12-427.13-452.83-457.58-47.91-303.89-333.28-525.17-658.25-500.63-241.07,18.2-438.24,166.93-523.31,367.83-71.2-53.27-162.34-82.48-259.49-75.14-148.96,11.23-270.22,104.72-320.13,230.12-176.44-104.78-388.06-158.66-610.92-141.83-436.98,33-786.92,327.65-895.59,710.68-58.19-27.25-124.29-40.78-193.52-35.55-128.93,9.73-237.39,80.96-296.52,181.24-95.85-58.33-211.22-89-333.16-79.77-298.74,22.54-521.75,272.67-498.2,558.69,.15,1.73,.55,3.48,.71,5.23-95.95,71.55-153.82,186.23-143.54,310.99,15.61,189.6,182.92,332.68,378.89,329.59Z"/>
      <path class="cls-1" d="M3127.01,5128.11c61.96-204.12-113.12-401.52-323.37-364.13,38.83-338.69-312.51-582.33-614.44-433.49-244.45-398.75-852.53-283.42-933.94,176.11-141.37-7.95-240.01,136.28-179.67,265.44-230.94-116.88-505.2,30.11-539.94,282.85-54.84-34.95-119.45-56.08-189.23-57.4-360.99-6.85-510.57,459.04-217.23,665.38,424.31,8.05,2664.71,50.58,3072.52,58.33,197.03-166.97,157.57-480.14-74.71-593.09Z"/>
    </g>
  </g>
</svg>