<svg xmlns="http://www.w3.org/2000/svg" version="1.1" xmlns:xlink="http://www.w3.org/1999/xlink" xmlns:svgjs="http://svgjs.dev/svgjs" viewBox="0 0 2400 800"><g fill="#e22a97ff" transform="matrix(1,0,0,1,8.247314453125,99.86192321777344)"><path d="M-10,10C47.63888888888889,15.625,153.47222222222223,40.541666666666664,266.6666666666667,37C379.86111111111114,33.458333333333336,422.2222222222223,-4.291666666666667,533.3333333333334,-7C644.4444444444445,-9.708333333333332,688.8888888888889,25.041666666666668,800,24C911.1111111111111,22.958333333333332,955.5555555555557,-14.083333333333334,1066.6666666666667,-12C1177.7777777777778,-9.916666666666666,1222.2222222222224,31.708333333333332,1333.3333333333335,34C1444.4444444444446,36.291666666666664,1488.888888888889,-3.5,1600,-1C1711.111111111111,1.5,1755.5555555555557,49.541666666666664,1866.6666666666667,46C1977.7777777777778,42.458333333333336,2022.2222222222224,-18.625,2133.3333333333335,-18C2244.4444444444443,-17.375,2292.3611111111113,-38.08333333333334,2400,49C2507.6388888888887,136.08333333333334,3254.1666666666665,222.70833333333331,2650,400C2045.8333333333335,577.2916666666667,156.25,795.8333333333334,-500,900" transform="matrix(1,0,0,1,0,52)" opacity="0.05"></path><path d="M-10,10C47.63888888888889,15.625,153.47222222222223,40.541666666666664,266.6666666666667,37C379.86111111111114,33.458333333333336,422.2222222222223,-4.291666666666667,533.3333333333334,-7C644.4444444444445,-9.708333333333332,688.8888888888889,25.041666666666668,800,24C911.1111111111111,22.958333333333332,955.5555555555557,-14.083333333333334,1066.6666666666667,-12C1177.7777777777778,-9.916666666666666,1222.2222222222224,31.708333333333332,1333.3333333333335,34C1444.4444444444446,36.291666666666664,1488.888888888889,-3.5,1600,-1C1711.111111111111,1.5,1755.5555555555557,49.541666666666664,1866.6666666666667,46C1977.7777777777778,42.458333333333336,2022.2222222222224,-18.625,2133.3333333333335,-18C2244.4444444444443,-17.375,2292.3611111111113,-38.08333333333334,2400,49C2507.6388888888887,136.08333333333334,3254.1666666666665,222.70833333333331,2650,400C2045.8333333333335,577.2916666666667,156.25,795.8333333333334,-500,900" transform="matrix(1,0,0,1,0,104)" opacity="0.17"></path><path d="M-10,10C47.63888888888889,15.625,153.47222222222223,40.541666666666664,266.6666666666667,37C379.86111111111114,33.458333333333336,422.2222222222223,-4.291666666666667,533.3333333333334,-7C644.4444444444445,-9.708333333333332,688.8888888888889,25.041666666666668,800,24C911.1111111111111,22.958333333333332,955.5555555555557,-14.083333333333334,1066.6666666666667,-12C1177.7777777777778,-9.916666666666666,1222.2222222222224,31.708333333333332,1333.3333333333335,34C1444.4444444444446,36.291666666666664,1488.888888888889,-3.5,1600,-1C1711.111111111111,1.5,1755.5555555555557,49.541666666666664,1866.6666666666667,46C1977.7777777777778,42.458333333333336,2022.2222222222224,-18.625,2133.3333333333335,-18C2244.4444444444443,-17.375,2292.3611111111113,-38.08333333333334,2400,49C2507.6388888888887,136.08333333333334,3254.1666666666665,222.70833333333331,2650,400C2045.8333333333335,577.2916666666667,156.25,795.8333333333334,-500,900" transform="matrix(1,0,0,1,0,156)" opacity="0.29"></path><path d="M-10,10C47.63888888888889,15.625,153.47222222222223,40.541666666666664,266.6666666666667,37C379.86111111111114,33.458333333333336,422.2222222222223,-4.291666666666667,533.3333333333334,-7C644.4444444444445,-9.708333333333332,688.8888888888889,25.041666666666668,800,24C911.1111111111111,22.958333333333332,955.5555555555557,-14.083333333333334,1066.6666666666667,-12C1177.7777777777778,-9.916666666666666,1222.2222222222224,31.708333333333332,1333.3333333333335,34C1444.4444444444446,36.291666666666664,1488.888888888889,-3.5,1600,-1C1711.111111111111,1.5,1755.5555555555557,49.541666666666664,1866.6666666666667,46C1977.7777777777778,42.458333333333336,2022.2222222222224,-18.625,2133.3333333333335,-18C2244.4444444444443,-17.375,2292.3611111111113,-38.08333333333334,2400,49C2507.6388888888887,136.08333333333334,3254.1666666666665,222.70833333333331,2650,400C2045.8333333333335,577.2916666666667,156.25,795.8333333333334,-500,900" transform="matrix(1,0,0,1,0,208)" opacity="0.41"></path><path d="M-10,10C47.63888888888889,15.625,153.47222222222223,40.541666666666664,266.6666666666667,37C379.86111111111114,33.458333333333336,422.2222222222223,-4.291666666666667,533.3333333333334,-7C644.4444444444445,-9.708333333333332,688.8888888888889,25.041666666666668,800,24C911.1111111111111,22.958333333333332,955.5555555555557,-14.083333333333334,1066.6666666666667,-12C1177.7777777777778,-9.916666666666666,1222.2222222222224,31.708333333333332,1333.3333333333335,34C1444.4444444444446,36.291666666666664,1488.888888888889,-3.5,1600,-1C1711.111111111111,1.5,1755.5555555555557,49.541666666666664,1866.6666666666667,46C1977.7777777777778,42.458333333333336,2022.2222222222224,-18.625,2133.3333333333335,-18C2244.4444444444443,-17.375,2292.3611111111113,-38.08333333333334,2400,49C2507.6388888888887,136.08333333333334,3254.1666666666665,222.70833333333331,2650,400C2045.8333333333335,577.2916666666667,156.25,795.8333333333334,-500,900" transform="matrix(1,0,0,1,0,260)" opacity="0.53"></path><path d="M-10,10C47.63888888888889,15.625,153.47222222222223,40.541666666666664,266.6666666666667,37C379.86111111111114,33.458333333333336,422.2222222222223,-4.291666666666667,533.3333333333334,-7C644.4444444444445,-9.708333333333332,688.8888888888889,25.041666666666668,800,24C911.1111111111111,22.958333333333332,955.5555555555557,-14.083333333333334,1066.6666666666667,-12C1177.7777777777778,-9.916666666666666,1222.2222222222224,31.708333333333332,1333.3333333333335,34C1444.4444444444446,36.291666666666664,1488.888888888889,-3.5,1600,-1C1711.111111111111,1.5,1755.5555555555557,49.541666666666664,1866.6666666666667,46C1977.7777777777778,42.458333333333336,2022.2222222222224,-18.625,2133.3333333333335,-18C2244.4444444444443,-17.375,2292.3611111111113,-38.08333333333334,2400,49C2507.6388888888887,136.08333333333334,3254.1666666666665,222.70833333333331,2650,400C2045.8333333333335,577.2916666666667,156.25,795.8333333333334,-500,900" transform="matrix(1,0,0,1,0,312)" opacity="0.64"></path><path d="M-10,10C47.63888888888889,15.625,153.47222222222223,40.541666666666664,266.6666666666667,37C379.86111111111114,33.458333333333336,422.2222222222223,-4.291666666666667,533.3333333333334,-7C644.4444444444445,-9.708333333333332,688.8888888888889,25.041666666666668,800,24C911.1111111111111,22.958333333333332,955.5555555555557,-14.083333333333334,1066.6666666666667,-12C1177.7777777777778,-9.916666666666666,1222.2222222222224,31.708333333333332,1333.3333333333335,34C1444.4444444444446,36.291666666666664,1488.888888888889,-3.5,1600,-1C1711.111111111111,1.5,1755.5555555555557,49.541666666666664,1866.6666666666667,46C1977.7777777777778,42.458333333333336,2022.2222222222224,-18.625,2133.3333333333335,-18C2244.4444444444443,-17.375,2292.3611111111113,-38.08333333333334,2400,49C2507.6388888888887,136.08333333333334,3254.1666666666665,222.70833333333331,2650,400C2045.8333333333335,577.2916666666667,156.25,795.8333333333334,-500,900" transform="matrix(1,0,0,1,0,364)" opacity="0.76"></path><path d="M-10,10C47.63888888888889,15.625,153.47222222222223,40.541666666666664,266.6666666666667,37C379.86111111111114,33.458333333333336,422.2222222222223,-4.291666666666667,533.3333333333334,-7C644.4444444444445,-9.708333333333332,688.8888888888889,25.041666666666668,800,24C911.1111111111111,22.958333333333332,955.5555555555557,-14.083333333333334,1066.6666666666667,-12C1177.7777777777778,-9.916666666666666,1222.2222222222224,31.708333333333332,1333.3333333333335,34C1444.4444444444446,36.291666666666664,1488.888888888889,-3.5,1600,-1C1711.111111111111,1.5,1755.5555555555557,49.541666666666664,1866.6666666666667,46C1977.7777777777778,42.458333333333336,2022.2222222222224,-18.625,2133.3333333333335,-18C2244.4444444444443,-17.375,2292.3611111111113,-38.08333333333334,2400,49C2507.6388888888887,136.08333333333334,3254.1666666666665,222.70833333333331,2650,400C2045.8333333333335,577.2916666666667,156.25,795.8333333333334,-500,900" transform="matrix(1,0,0,1,0,416)" opacity="0.88"></path><path d="M-10,10C47.63888888888889,15.625,153.47222222222223,40.541666666666664,266.6666666666667,37C379.86111111111114,33.458333333333336,422.2222222222223,-4.291666666666667,533.3333333333334,-7C644.4444444444445,-9.708333333333332,688.8888888888889,25.041666666666668,800,24C911.1111111111111,22.958333333333332,955.5555555555557,-14.083333333333334,1066.6666666666667,-12C1177.7777777777778,-9.916666666666666,1222.2222222222224,31.708333333333332,1333.3333333333335,34C1444.4444444444446,36.291666666666664,1488.888888888889,-3.5,1600,-1C1711.111111111111,1.5,1755.5555555555557,49.541666666666664,1866.6666666666667,46C1977.7777777777778,42.458333333333336,2022.2222222222224,-18.625,2133.3333333333335,-18C2244.4444444444443,-17.375,2292.3611111111113,-38.08333333333334,2400,49C2507.6388888888887,136.08333333333334,3254.1666666666665,222.70833333333331,2650,400C2045.8333333333335,577.2916666666667,156.25,795.8333333333334,-500,900" transform="matrix(1,0,0,1,0,468)" opacity="1.00"></path></g></svg>